G04 #@! TF.GenerationSoftware,KiCad,Pcbnew,(5.1.9)-1*
G04 #@! TF.CreationDate,2021-01-25T13:58:14-05:00*
G04 #@! TF.ProjectId,eWeatherStation,65576561-7468-4657-9253-746174696f6e,rev?*
G04 #@! TF.SameCoordinates,Original*
G04 #@! TF.FileFunction,Copper,L2,Bot*
G04 #@! TF.FilePolarity,Positive*
%FSLAX46Y46*%
G04 Gerber Fmt 4.6, Leading zero omitted, Abs format (unit mm)*
G04 Created by KiCad (PCBNEW (5.1.9)-1) date 2021-01-25 13:58:14*
%MOMM*%
%LPD*%
G01*
G04 APERTURE LIST*
G04 #@! TA.AperFunction,ComponentPad*
%ADD10O,2.200000X1.100000*%
G04 #@! TD*
G04 #@! TA.AperFunction,ComponentPad*
%ADD11O,1.800000X1.100000*%
G04 #@! TD*
G04 #@! TA.AperFunction,ComponentPad*
%ADD12O,1.700000X1.700000*%
G04 #@! TD*
G04 #@! TA.AperFunction,ComponentPad*
%ADD13R,1.700000X1.700000*%
G04 #@! TD*
G04 #@! TA.AperFunction,ViaPad*
%ADD14C,0.700000*%
G04 #@! TD*
G04 #@! TA.AperFunction,ViaPad*
%ADD15C,0.508000*%
G04 #@! TD*
G04 #@! TA.AperFunction,Conductor*
%ADD16C,0.350000*%
G04 #@! TD*
G04 #@! TA.AperFunction,Conductor*
%ADD17C,0.152400*%
G04 #@! TD*
G04 #@! TA.AperFunction,Conductor*
%ADD18C,0.254000*%
G04 #@! TD*
G04 #@! TA.AperFunction,Conductor*
%ADD19C,0.100000*%
G04 #@! TD*
G04 APERTURE END LIST*
D10*
X173500000Y-102675000D03*
D11*
X170700000Y-104825000D03*
X176300000Y-104825000D03*
D12*
X144700000Y-73360000D03*
X144700000Y-75900000D03*
X144700000Y-78440000D03*
X144700000Y-80980000D03*
X144700000Y-83520000D03*
D13*
X144700000Y-86060000D03*
X186000000Y-87000000D03*
D12*
X186000000Y-89540000D03*
X186000000Y-92080000D03*
X186000000Y-94620000D03*
X186000000Y-97160000D03*
X186000000Y-99700000D03*
X186000000Y-102240000D03*
X186000000Y-104780000D03*
D14*
X181250000Y-74500000D03*
X176000000Y-71500000D03*
X157500000Y-98250000D03*
X167000000Y-95750000D03*
X167500000Y-86250000D03*
X167500000Y-78000000D03*
X154500000Y-78000000D03*
X150250000Y-78000000D03*
D15*
X167250000Y-66750000D03*
X167250000Y-68000000D03*
X171500000Y-81250000D03*
X174500000Y-84000000D03*
X178000000Y-84250000D03*
X171750000Y-79500000D03*
X172000000Y-83000000D03*
X157000000Y-90500000D03*
X155750000Y-86500000D03*
X149000000Y-94750000D03*
X159000000Y-89000000D03*
X156750000Y-71500000D03*
X174500000Y-94500000D03*
X162750000Y-88500000D03*
X159000000Y-74000000D03*
D14*
X150250000Y-60750000D03*
X150250000Y-66499994D03*
X176750000Y-91500000D03*
D15*
X183000000Y-105500000D03*
X183000000Y-103000000D03*
X183000000Y-100750000D03*
X179000000Y-106250000D03*
X178750000Y-103000000D03*
X166250000Y-105500000D03*
X166250000Y-103000000D03*
X166250000Y-100500000D03*
X166000000Y-93500000D03*
X160000000Y-86500000D03*
X152250000Y-90500000D03*
X147750000Y-84250000D03*
X146250000Y-70500000D03*
X183500000Y-73750000D03*
X183250000Y-80500000D03*
X180000000Y-93250000D03*
X169500000Y-85750000D03*
X183250000Y-83250000D03*
X156500000Y-105500000D03*
X146500000Y-93500000D03*
X149500000Y-104250000D03*
X174250000Y-76250000D03*
X186000000Y-77000000D03*
X173750000Y-79500000D03*
X173750000Y-71250000D03*
X149250000Y-63500000D03*
X143000000Y-68250000D03*
X167000000Y-62000000D03*
X146250000Y-69000000D03*
D16*
X179000000Y-74500000D02*
X176000000Y-71500000D01*
X181250000Y-74500000D02*
X179000000Y-74500000D01*
X160000000Y-95750000D02*
X167000000Y-95750000D01*
X157500000Y-98250000D02*
X160000000Y-95750000D01*
X167500000Y-86250000D02*
X167500000Y-78000000D01*
X154500000Y-78000000D02*
X150250000Y-78000000D01*
D17*
X144700000Y-80980000D02*
X147500000Y-78180000D01*
X147500000Y-78180000D02*
X147500000Y-69500000D01*
X147500000Y-69500000D02*
X149250000Y-67750000D01*
X149250000Y-67750000D02*
X154750000Y-67750000D01*
X155750000Y-66750000D02*
X167250000Y-66750000D01*
X154750000Y-67750000D02*
X155750000Y-66750000D01*
X156500000Y-68000000D02*
X167250000Y-68000000D01*
X156250000Y-68250000D02*
X156500000Y-68000000D01*
X149750000Y-68250000D02*
X156250000Y-68250000D01*
X148250000Y-79970000D02*
X148250000Y-69750000D01*
X148250000Y-69750000D02*
X149750000Y-68250000D01*
X144700000Y-83520000D02*
X148250000Y-79970000D01*
X174250000Y-84000000D02*
X174500000Y-84000000D01*
X171500000Y-81250000D02*
X174250000Y-84000000D01*
X185830000Y-92080000D02*
X186000000Y-92080000D01*
X178000000Y-84250000D02*
X185830000Y-92080000D01*
X186000000Y-93750000D02*
X186000000Y-94620000D01*
X171750000Y-79500000D02*
X186000000Y-93750000D01*
X186000000Y-97000000D02*
X186000000Y-97160000D01*
X172000000Y-83000000D02*
X186000000Y-97000000D01*
X166750000Y-90500000D02*
X157000000Y-90500000D01*
X175950000Y-99700000D02*
X166750000Y-90500000D01*
X186000000Y-99700000D02*
X175950000Y-99700000D01*
X185656390Y-101896390D02*
X159896390Y-101896390D01*
X186000000Y-102240000D02*
X185656390Y-101896390D01*
X155750000Y-97750000D02*
X155750000Y-86500000D01*
X159896390Y-101896390D02*
X155750000Y-97750000D01*
X158180001Y-103930001D02*
X149000000Y-94750000D01*
X185150001Y-103930001D02*
X158180001Y-103930001D01*
X186000000Y-104780000D02*
X185150001Y-103930001D01*
X156750000Y-86750000D02*
X156750000Y-71500000D01*
X159000000Y-89000000D02*
X156750000Y-86750000D01*
X168500000Y-88500000D02*
X162750000Y-88500000D01*
X174500000Y-94500000D02*
X168500000Y-88500000D01*
X162750000Y-77750000D02*
X159000000Y-74000000D01*
X162750000Y-88500000D02*
X162750000Y-77750000D01*
D16*
X150250000Y-60750000D02*
X150250000Y-66499994D01*
D17*
X174250000Y-76250000D02*
X185750000Y-76250000D01*
X186000000Y-76500000D02*
X186000000Y-77000000D01*
X185750000Y-76250000D02*
X186000000Y-76500000D01*
X173750000Y-79500000D02*
X173750000Y-71250000D01*
X144700000Y-68050000D02*
X149250000Y-63500000D01*
X144700000Y-73360000D02*
X144700000Y-68050000D01*
X144700000Y-75900000D02*
X143150000Y-75900000D01*
X143000000Y-75750000D02*
X143000000Y-68250000D01*
X143150000Y-75900000D02*
X143000000Y-75750000D01*
X147804810Y-67445190D02*
X146250000Y-69000000D01*
X154623744Y-67445190D02*
X147804810Y-67445190D01*
X160068934Y-62000000D02*
X154623744Y-67445190D01*
X167000000Y-62000000D02*
X160068934Y-62000000D01*
D18*
X173013000Y-59934341D02*
X173025504Y-59938116D01*
X173037042Y-59944251D01*
X173047162Y-59952505D01*
X173055491Y-59962573D01*
X173061704Y-59974064D01*
X173065566Y-59986540D01*
X173069440Y-60023396D01*
X173071367Y-60103079D01*
X173071904Y-60109697D01*
X173072786Y-60129117D01*
X173190307Y-61513401D01*
X173191368Y-61520854D01*
X173191841Y-61528365D01*
X173197195Y-61561781D01*
X173470665Y-62923863D01*
X173472562Y-62931145D01*
X173473883Y-62938558D01*
X173482985Y-62971153D01*
X173908889Y-64293521D01*
X173911602Y-64300550D01*
X173913751Y-64307758D01*
X173926484Y-64339113D01*
X174499347Y-65604766D01*
X174502837Y-65611442D01*
X174505789Y-65618361D01*
X174521990Y-65648073D01*
X175234446Y-66840741D01*
X175238667Y-66846975D01*
X175242385Y-66853519D01*
X175261828Y-66881180D01*
X175261846Y-66881207D01*
X175261853Y-66881215D01*
X176104737Y-67985555D01*
X176109635Y-67991269D01*
X176114072Y-67997353D01*
X176136541Y-68022659D01*
X177099029Y-69024491D01*
X177104547Y-69029618D01*
X177109640Y-69035156D01*
X177134829Y-69057756D01*
X178204540Y-69944191D01*
X178210604Y-69948661D01*
X178216290Y-69953586D01*
X178243876Y-69973189D01*
X179407060Y-70732831D01*
X179413585Y-70736583D01*
X179419796Y-70740835D01*
X179449407Y-70757179D01*
X179449426Y-70757190D01*
X179449433Y-70757193D01*
X180691123Y-71380273D01*
X180698033Y-71383263D01*
X180704686Y-71386785D01*
X180735975Y-71399680D01*
X182040228Y-71878193D01*
X182047431Y-71880381D01*
X182054439Y-71883127D01*
X182086987Y-71892397D01*
X183437024Y-72220189D01*
X183444429Y-72221548D01*
X183451704Y-72223483D01*
X183485091Y-72229009D01*
X184863559Y-72401866D01*
X184871079Y-72402378D01*
X184878516Y-72403476D01*
X184912315Y-72405187D01*
X186280941Y-72420653D01*
X186281550Y-72420718D01*
X187477102Y-72430821D01*
X187513000Y-72434341D01*
X187525504Y-72438116D01*
X187537042Y-72444251D01*
X187547162Y-72452505D01*
X187555491Y-72462573D01*
X187561704Y-72474064D01*
X187565566Y-72486540D01*
X187569001Y-72519221D01*
X187569000Y-106978923D01*
X187565659Y-107013001D01*
X187561884Y-107025503D01*
X187555749Y-107037042D01*
X187547496Y-107047161D01*
X187537424Y-107055493D01*
X187525939Y-107061703D01*
X187513459Y-107065566D01*
X187480790Y-107069000D01*
X139771077Y-107069000D01*
X139736999Y-107065659D01*
X139724497Y-107061884D01*
X139712958Y-107055749D01*
X139702839Y-107047496D01*
X139694507Y-107037424D01*
X139688297Y-107025939D01*
X139684434Y-107013459D01*
X139681000Y-106980790D01*
X139681000Y-94687458D01*
X148365000Y-94687458D01*
X148365000Y-94812542D01*
X148389403Y-94935223D01*
X148437271Y-95050785D01*
X148506764Y-95154789D01*
X148595211Y-95243236D01*
X148699215Y-95312729D01*
X148814777Y-95360597D01*
X148937458Y-95385000D01*
X148988423Y-95385000D01*
X157840830Y-104237408D01*
X157855148Y-104254854D01*
X157924765Y-104311988D01*
X158004192Y-104354442D01*
X158090374Y-104380586D01*
X158157541Y-104387201D01*
X158157551Y-104387201D01*
X158180001Y-104389412D01*
X158202451Y-104387201D01*
X169528360Y-104387201D01*
X169485707Y-104466998D01*
X169432471Y-104642492D01*
X169414496Y-104825000D01*
X169432471Y-105007508D01*
X169485707Y-105183002D01*
X169572157Y-105344738D01*
X169688499Y-105486501D01*
X169830262Y-105602843D01*
X169991998Y-105689293D01*
X170167492Y-105742529D01*
X170304269Y-105756000D01*
X171095731Y-105756000D01*
X171232508Y-105742529D01*
X171408002Y-105689293D01*
X171569738Y-105602843D01*
X171711501Y-105486501D01*
X171827843Y-105344738D01*
X171914293Y-105183002D01*
X171967529Y-105007508D01*
X171985504Y-104825000D01*
X171967529Y-104642492D01*
X171914293Y-104466998D01*
X171871640Y-104387201D01*
X175128360Y-104387201D01*
X175085707Y-104466998D01*
X175032471Y-104642492D01*
X175014496Y-104825000D01*
X175032471Y-105007508D01*
X175085707Y-105183002D01*
X175172157Y-105344738D01*
X175288499Y-105486501D01*
X175430262Y-105602843D01*
X175591998Y-105689293D01*
X175767492Y-105742529D01*
X175904269Y-105756000D01*
X176695731Y-105756000D01*
X176832508Y-105742529D01*
X177008002Y-105689293D01*
X177169738Y-105602843D01*
X177311501Y-105486501D01*
X177427843Y-105344738D01*
X177514293Y-105183002D01*
X177567529Y-105007508D01*
X177585504Y-104825000D01*
X177567529Y-104642492D01*
X177514293Y-104466998D01*
X177471640Y-104387201D01*
X184830278Y-104387201D01*
X184816307Y-104420931D01*
X184769000Y-104658757D01*
X184769000Y-104901243D01*
X184816307Y-105139069D01*
X184909102Y-105363097D01*
X185043820Y-105564717D01*
X185215283Y-105736180D01*
X185416903Y-105870898D01*
X185640931Y-105963693D01*
X185878757Y-106011000D01*
X186121243Y-106011000D01*
X186359069Y-105963693D01*
X186583097Y-105870898D01*
X186784717Y-105736180D01*
X186956180Y-105564717D01*
X187090898Y-105363097D01*
X187183693Y-105139069D01*
X187231000Y-104901243D01*
X187231000Y-104658757D01*
X187183693Y-104420931D01*
X187090898Y-104196903D01*
X186956180Y-103995283D01*
X186784717Y-103823820D01*
X186583097Y-103689102D01*
X186359069Y-103596307D01*
X186121243Y-103549000D01*
X185878757Y-103549000D01*
X185640931Y-103596307D01*
X185515033Y-103648456D01*
X185489175Y-103622598D01*
X185474854Y-103605148D01*
X185405237Y-103548014D01*
X185325810Y-103505560D01*
X185239628Y-103479416D01*
X185172461Y-103472801D01*
X185172451Y-103472801D01*
X185150001Y-103470590D01*
X185127551Y-103472801D01*
X174532399Y-103472801D01*
X174569738Y-103452843D01*
X174711501Y-103336501D01*
X174827843Y-103194738D01*
X174914293Y-103033002D01*
X174967529Y-102857508D01*
X174985504Y-102675000D01*
X174967529Y-102492492D01*
X174925393Y-102353590D01*
X184769000Y-102353590D01*
X184769000Y-102361243D01*
X184816307Y-102599069D01*
X184909102Y-102823097D01*
X185043820Y-103024717D01*
X185215283Y-103196180D01*
X185416903Y-103330898D01*
X185640931Y-103423693D01*
X185878757Y-103471000D01*
X186121243Y-103471000D01*
X186359069Y-103423693D01*
X186583097Y-103330898D01*
X186784717Y-103196180D01*
X186956180Y-103024717D01*
X187090898Y-102823097D01*
X187183693Y-102599069D01*
X187231000Y-102361243D01*
X187231000Y-102118757D01*
X187183693Y-101880931D01*
X187090898Y-101656903D01*
X186956180Y-101455283D01*
X186784717Y-101283820D01*
X186583097Y-101149102D01*
X186359069Y-101056307D01*
X186121243Y-101009000D01*
X185878757Y-101009000D01*
X185640931Y-101056307D01*
X185416903Y-101149102D01*
X185215283Y-101283820D01*
X185059913Y-101439190D01*
X160085768Y-101439190D01*
X157618356Y-98971779D01*
X157713225Y-98952908D01*
X157846258Y-98897804D01*
X157965985Y-98817805D01*
X158067805Y-98715985D01*
X158147804Y-98596258D01*
X158202908Y-98463225D01*
X158231000Y-98321997D01*
X158231000Y-98305301D01*
X160230302Y-96306000D01*
X166522210Y-96306000D01*
X166534015Y-96317805D01*
X166653742Y-96397804D01*
X166786775Y-96452908D01*
X166928003Y-96481000D01*
X167071997Y-96481000D01*
X167213225Y-96452908D01*
X167346258Y-96397804D01*
X167465985Y-96317805D01*
X167567805Y-96215985D01*
X167647804Y-96096258D01*
X167702908Y-95963225D01*
X167731000Y-95821997D01*
X167731000Y-95678003D01*
X167702908Y-95536775D01*
X167647804Y-95403742D01*
X167567805Y-95284015D01*
X167465985Y-95182195D01*
X167346258Y-95102196D01*
X167213225Y-95047092D01*
X167071997Y-95019000D01*
X166928003Y-95019000D01*
X166786775Y-95047092D01*
X166653742Y-95102196D01*
X166534015Y-95182195D01*
X166522210Y-95194000D01*
X160027304Y-95194000D01*
X160000000Y-95191311D01*
X159972695Y-95194000D01*
X159972688Y-95194000D01*
X159891005Y-95202045D01*
X159786199Y-95233838D01*
X159689608Y-95285466D01*
X159604947Y-95354947D01*
X159587535Y-95376163D01*
X157444699Y-97519000D01*
X157428003Y-97519000D01*
X157286775Y-97547092D01*
X157153742Y-97602196D01*
X157034015Y-97682195D01*
X156932195Y-97784015D01*
X156852196Y-97903742D01*
X156797092Y-98036775D01*
X156778221Y-98131644D01*
X156207200Y-97560623D01*
X156207200Y-90437458D01*
X156365000Y-90437458D01*
X156365000Y-90562542D01*
X156389403Y-90685223D01*
X156437271Y-90800785D01*
X156506764Y-90904789D01*
X156595211Y-90993236D01*
X156699215Y-91062729D01*
X156814777Y-91110597D01*
X156937458Y-91135000D01*
X157062542Y-91135000D01*
X157185223Y-91110597D01*
X157300785Y-91062729D01*
X157404789Y-90993236D01*
X157440825Y-90957200D01*
X166560623Y-90957200D01*
X175610830Y-100007408D01*
X175625147Y-100024853D01*
X175642592Y-100039170D01*
X175694764Y-100081987D01*
X175774190Y-100124441D01*
X175794249Y-100130526D01*
X175860373Y-100150585D01*
X175927540Y-100157200D01*
X175927550Y-100157200D01*
X175950000Y-100159411D01*
X175972450Y-100157200D01*
X184856954Y-100157200D01*
X184909102Y-100283097D01*
X185043820Y-100484717D01*
X185215283Y-100656180D01*
X185416903Y-100790898D01*
X185640931Y-100883693D01*
X185878757Y-100931000D01*
X186121243Y-100931000D01*
X186359069Y-100883693D01*
X186583097Y-100790898D01*
X186784717Y-100656180D01*
X186956180Y-100484717D01*
X187090898Y-100283097D01*
X187183693Y-100059069D01*
X187231000Y-99821243D01*
X187231000Y-99578757D01*
X187183693Y-99340931D01*
X187090898Y-99116903D01*
X186956180Y-98915283D01*
X186784717Y-98743820D01*
X186583097Y-98609102D01*
X186359069Y-98516307D01*
X186121243Y-98469000D01*
X185878757Y-98469000D01*
X185640931Y-98516307D01*
X185416903Y-98609102D01*
X185215283Y-98743820D01*
X185043820Y-98915283D01*
X184909102Y-99116903D01*
X184856954Y-99242800D01*
X176139378Y-99242800D01*
X167089174Y-90192597D01*
X167074853Y-90175147D01*
X167005236Y-90118013D01*
X166925809Y-90075559D01*
X166839627Y-90049415D01*
X166772460Y-90042800D01*
X166772450Y-90042800D01*
X166750000Y-90040589D01*
X166727550Y-90042800D01*
X157440825Y-90042800D01*
X157404789Y-90006764D01*
X157300785Y-89937271D01*
X157185223Y-89889403D01*
X157062542Y-89865000D01*
X156937458Y-89865000D01*
X156814777Y-89889403D01*
X156699215Y-89937271D01*
X156595211Y-90006764D01*
X156506764Y-90095211D01*
X156437271Y-90199215D01*
X156389403Y-90314777D01*
X156365000Y-90437458D01*
X156207200Y-90437458D01*
X156207200Y-86940825D01*
X156243236Y-86904789D01*
X156297791Y-86823141D01*
X156299415Y-86839626D01*
X156325559Y-86925808D01*
X156368013Y-87005235D01*
X156425147Y-87074853D01*
X156442597Y-87089174D01*
X158365000Y-89011579D01*
X158365000Y-89062542D01*
X158389403Y-89185223D01*
X158437271Y-89300785D01*
X158506764Y-89404789D01*
X158595211Y-89493236D01*
X158699215Y-89562729D01*
X158814777Y-89610597D01*
X158937458Y-89635000D01*
X159062542Y-89635000D01*
X159185223Y-89610597D01*
X159300785Y-89562729D01*
X159404789Y-89493236D01*
X159493236Y-89404789D01*
X159562729Y-89300785D01*
X159610597Y-89185223D01*
X159635000Y-89062542D01*
X159635000Y-88937458D01*
X159610597Y-88814777D01*
X159562729Y-88699215D01*
X159493236Y-88595211D01*
X159404789Y-88506764D01*
X159300785Y-88437271D01*
X159185223Y-88389403D01*
X159062542Y-88365000D01*
X159011579Y-88365000D01*
X157207200Y-86560623D01*
X157207200Y-73937458D01*
X158365000Y-73937458D01*
X158365000Y-74062542D01*
X158389403Y-74185223D01*
X158437271Y-74300785D01*
X158506764Y-74404789D01*
X158595211Y-74493236D01*
X158699215Y-74562729D01*
X158814777Y-74610597D01*
X158937458Y-74635000D01*
X158988423Y-74635000D01*
X162292801Y-77939379D01*
X162292800Y-88059175D01*
X162256764Y-88095211D01*
X162187271Y-88199215D01*
X162139403Y-88314777D01*
X162115000Y-88437458D01*
X162115000Y-88562542D01*
X162139403Y-88685223D01*
X162187271Y-88800785D01*
X162256764Y-88904789D01*
X162345211Y-88993236D01*
X162449215Y-89062729D01*
X162564777Y-89110597D01*
X162687458Y-89135000D01*
X162812542Y-89135000D01*
X162935223Y-89110597D01*
X163050785Y-89062729D01*
X163154789Y-88993236D01*
X163190825Y-88957200D01*
X168310623Y-88957200D01*
X173865000Y-94511578D01*
X173865000Y-94562542D01*
X173889403Y-94685223D01*
X173937271Y-94800785D01*
X174006764Y-94904789D01*
X174095211Y-94993236D01*
X174199215Y-95062729D01*
X174314777Y-95110597D01*
X174437458Y-95135000D01*
X174562542Y-95135000D01*
X174685223Y-95110597D01*
X174800785Y-95062729D01*
X174904789Y-94993236D01*
X174993236Y-94904789D01*
X175062729Y-94800785D01*
X175110597Y-94685223D01*
X175135000Y-94562542D01*
X175135000Y-94437458D01*
X175110597Y-94314777D01*
X175062729Y-94199215D01*
X174993236Y-94095211D01*
X174904789Y-94006764D01*
X174800785Y-93937271D01*
X174685223Y-93889403D01*
X174562542Y-93865000D01*
X174511578Y-93865000D01*
X168839174Y-88192597D01*
X168824853Y-88175147D01*
X168755236Y-88118013D01*
X168675809Y-88075559D01*
X168589627Y-88049415D01*
X168522460Y-88042800D01*
X168522450Y-88042800D01*
X168500000Y-88040589D01*
X168477550Y-88042800D01*
X163207200Y-88042800D01*
X163207200Y-77928003D01*
X166769000Y-77928003D01*
X166769000Y-78071997D01*
X166797092Y-78213225D01*
X166852196Y-78346258D01*
X166932195Y-78465985D01*
X166944001Y-78477791D01*
X166944000Y-85772210D01*
X166932195Y-85784015D01*
X166852196Y-85903742D01*
X166797092Y-86036775D01*
X166769000Y-86178003D01*
X166769000Y-86321997D01*
X166797092Y-86463225D01*
X166852196Y-86596258D01*
X166932195Y-86715985D01*
X167034015Y-86817805D01*
X167153742Y-86897804D01*
X167286775Y-86952908D01*
X167428003Y-86981000D01*
X167571997Y-86981000D01*
X167713225Y-86952908D01*
X167846258Y-86897804D01*
X167965985Y-86817805D01*
X168067805Y-86715985D01*
X168147804Y-86596258D01*
X168202908Y-86463225D01*
X168231000Y-86321997D01*
X168231000Y-86178003D01*
X168202908Y-86036775D01*
X168147804Y-85903742D01*
X168067805Y-85784015D01*
X168056000Y-85772210D01*
X168056000Y-81187458D01*
X170865000Y-81187458D01*
X170865000Y-81312542D01*
X170889403Y-81435223D01*
X170937271Y-81550785D01*
X171006764Y-81654789D01*
X171095211Y-81743236D01*
X171199215Y-81812729D01*
X171314777Y-81860597D01*
X171437458Y-81885000D01*
X171488423Y-81885000D01*
X171968423Y-82365000D01*
X171937458Y-82365000D01*
X171814777Y-82389403D01*
X171699215Y-82437271D01*
X171595211Y-82506764D01*
X171506764Y-82595211D01*
X171437271Y-82699215D01*
X171389403Y-82814777D01*
X171365000Y-82937458D01*
X171365000Y-83062542D01*
X171389403Y-83185223D01*
X171437271Y-83300785D01*
X171506764Y-83404789D01*
X171595211Y-83493236D01*
X171699215Y-83562729D01*
X171814777Y-83610597D01*
X171937458Y-83635000D01*
X171988423Y-83635000D01*
X184917603Y-96564181D01*
X184909102Y-96576903D01*
X184816307Y-96800931D01*
X184769000Y-97038757D01*
X184769000Y-97281243D01*
X184816307Y-97519069D01*
X184909102Y-97743097D01*
X185043820Y-97944717D01*
X185215283Y-98116180D01*
X185416903Y-98250898D01*
X185640931Y-98343693D01*
X185878757Y-98391000D01*
X186121243Y-98391000D01*
X186359069Y-98343693D01*
X186583097Y-98250898D01*
X186784717Y-98116180D01*
X186956180Y-97944717D01*
X187090898Y-97743097D01*
X187183693Y-97519069D01*
X187231000Y-97281243D01*
X187231000Y-97038757D01*
X187183693Y-96800931D01*
X187090898Y-96576903D01*
X186956180Y-96375283D01*
X186784717Y-96203820D01*
X186583097Y-96069102D01*
X186359069Y-95976307D01*
X186121243Y-95929000D01*
X185878757Y-95929000D01*
X185640931Y-95976307D01*
X185628170Y-95981593D01*
X185237810Y-95591232D01*
X185416903Y-95710898D01*
X185640931Y-95803693D01*
X185878757Y-95851000D01*
X186121243Y-95851000D01*
X186359069Y-95803693D01*
X186583097Y-95710898D01*
X186784717Y-95576180D01*
X186956180Y-95404717D01*
X187090898Y-95203097D01*
X187183693Y-94979069D01*
X187231000Y-94741243D01*
X187231000Y-94498757D01*
X187183693Y-94260931D01*
X187090898Y-94036903D01*
X186956180Y-93835283D01*
X186784717Y-93663820D01*
X186583097Y-93529102D01*
X186359069Y-93436307D01*
X186329123Y-93430350D01*
X186324853Y-93425147D01*
X186307409Y-93410831D01*
X186193254Y-93296676D01*
X186359069Y-93263693D01*
X186583097Y-93170898D01*
X186784717Y-93036180D01*
X186956180Y-92864717D01*
X187090898Y-92663097D01*
X187183693Y-92439069D01*
X187231000Y-92201243D01*
X187231000Y-91958757D01*
X187183693Y-91720931D01*
X187090898Y-91496903D01*
X186956180Y-91295283D01*
X186784717Y-91123820D01*
X186583097Y-90989102D01*
X186359069Y-90896307D01*
X186121243Y-90849000D01*
X185878757Y-90849000D01*
X185640931Y-90896307D01*
X185416903Y-90989102D01*
X185398186Y-91001608D01*
X180546578Y-86150000D01*
X184767157Y-86150000D01*
X184767157Y-87850000D01*
X184774513Y-87924689D01*
X184796299Y-87996508D01*
X184831678Y-88062696D01*
X184879289Y-88120711D01*
X184937304Y-88168322D01*
X185003492Y-88203701D01*
X185075311Y-88225487D01*
X185150000Y-88232843D01*
X186850000Y-88232843D01*
X186924689Y-88225487D01*
X186996508Y-88203701D01*
X187062696Y-88168322D01*
X187120711Y-88120711D01*
X187168322Y-88062696D01*
X187203701Y-87996508D01*
X187225487Y-87924689D01*
X187232843Y-87850000D01*
X187232843Y-86150000D01*
X187225487Y-86075311D01*
X187203701Y-86003492D01*
X187168322Y-85937304D01*
X187120711Y-85879289D01*
X187062696Y-85831678D01*
X186996508Y-85796299D01*
X186924689Y-85774513D01*
X186850000Y-85767157D01*
X185150000Y-85767157D01*
X185075311Y-85774513D01*
X185003492Y-85796299D01*
X184937304Y-85831678D01*
X184879289Y-85879289D01*
X184831678Y-85937304D01*
X184796299Y-86003492D01*
X184774513Y-86075311D01*
X184767157Y-86150000D01*
X180546578Y-86150000D01*
X178635000Y-84238423D01*
X178635000Y-84187458D01*
X178610597Y-84064777D01*
X178562729Y-83949215D01*
X178493236Y-83845211D01*
X178404789Y-83756764D01*
X178300785Y-83687271D01*
X178185223Y-83639403D01*
X178062542Y-83615000D01*
X177937458Y-83615000D01*
X177814777Y-83639403D01*
X177699215Y-83687271D01*
X177595211Y-83756764D01*
X177506764Y-83845211D01*
X177437271Y-83949215D01*
X177389403Y-84064777D01*
X177365000Y-84187458D01*
X177365000Y-84312542D01*
X177389403Y-84435223D01*
X177430135Y-84533558D01*
X172385000Y-79488423D01*
X172385000Y-79437458D01*
X172360597Y-79314777D01*
X172312729Y-79199215D01*
X172243236Y-79095211D01*
X172154789Y-79006764D01*
X172050785Y-78937271D01*
X171935223Y-78889403D01*
X171812542Y-78865000D01*
X171687458Y-78865000D01*
X171564777Y-78889403D01*
X171449215Y-78937271D01*
X171345211Y-79006764D01*
X171256764Y-79095211D01*
X171187271Y-79199215D01*
X171139403Y-79314777D01*
X171115000Y-79437458D01*
X171115000Y-79562542D01*
X171139403Y-79685223D01*
X171187271Y-79800785D01*
X171256764Y-79904789D01*
X171345211Y-79993236D01*
X171449215Y-80062729D01*
X171564777Y-80110597D01*
X171687458Y-80135000D01*
X171738423Y-80135000D01*
X185246430Y-93643008D01*
X185215283Y-93663820D01*
X185043820Y-93835283D01*
X184909102Y-94036903D01*
X184816307Y-94260931D01*
X184769000Y-94498757D01*
X184769000Y-94741243D01*
X184816307Y-94979069D01*
X184909102Y-95203097D01*
X185028768Y-95382190D01*
X174216442Y-84569865D01*
X174314777Y-84610597D01*
X174437458Y-84635000D01*
X174562542Y-84635000D01*
X174685223Y-84610597D01*
X174800785Y-84562729D01*
X174904789Y-84493236D01*
X174993236Y-84404789D01*
X175062729Y-84300785D01*
X175110597Y-84185223D01*
X175135000Y-84062542D01*
X175135000Y-83937458D01*
X175110597Y-83814777D01*
X175062729Y-83699215D01*
X174993236Y-83595211D01*
X174904789Y-83506764D01*
X174800785Y-83437271D01*
X174685223Y-83389403D01*
X174562542Y-83365000D01*
X174437458Y-83365000D01*
X174314777Y-83389403D01*
X174294415Y-83397837D01*
X172135000Y-81238423D01*
X172135000Y-81187458D01*
X172110597Y-81064777D01*
X172062729Y-80949215D01*
X171993236Y-80845211D01*
X171904789Y-80756764D01*
X171800785Y-80687271D01*
X171685223Y-80639403D01*
X171562542Y-80615000D01*
X171437458Y-80615000D01*
X171314777Y-80639403D01*
X171199215Y-80687271D01*
X171095211Y-80756764D01*
X171006764Y-80845211D01*
X170937271Y-80949215D01*
X170889403Y-81064777D01*
X170865000Y-81187458D01*
X168056000Y-81187458D01*
X168056000Y-78477790D01*
X168067805Y-78465985D01*
X168147804Y-78346258D01*
X168202908Y-78213225D01*
X168231000Y-78071997D01*
X168231000Y-77928003D01*
X168202908Y-77786775D01*
X168147804Y-77653742D01*
X168067805Y-77534015D01*
X167965985Y-77432195D01*
X167846258Y-77352196D01*
X167713225Y-77297092D01*
X167571997Y-77269000D01*
X167428003Y-77269000D01*
X167286775Y-77297092D01*
X167153742Y-77352196D01*
X167034015Y-77432195D01*
X166932195Y-77534015D01*
X166852196Y-77653742D01*
X166797092Y-77786775D01*
X166769000Y-77928003D01*
X163207200Y-77928003D01*
X163207200Y-77772450D01*
X163209411Y-77750000D01*
X163207200Y-77727550D01*
X163207200Y-77727540D01*
X163200585Y-77660373D01*
X163174441Y-77574191D01*
X163131987Y-77494764D01*
X163095730Y-77450585D01*
X163089170Y-77442592D01*
X163074853Y-77425147D01*
X163057408Y-77410830D01*
X159635000Y-73988423D01*
X159635000Y-73937458D01*
X159610597Y-73814777D01*
X159562729Y-73699215D01*
X159493236Y-73595211D01*
X159404789Y-73506764D01*
X159300785Y-73437271D01*
X159185223Y-73389403D01*
X159062542Y-73365000D01*
X158937458Y-73365000D01*
X158814777Y-73389403D01*
X158699215Y-73437271D01*
X158595211Y-73506764D01*
X158506764Y-73595211D01*
X158437271Y-73699215D01*
X158389403Y-73814777D01*
X158365000Y-73937458D01*
X157207200Y-73937458D01*
X157207200Y-71940825D01*
X157243236Y-71904789D01*
X157312729Y-71800785D01*
X157360597Y-71685223D01*
X157385000Y-71562542D01*
X157385000Y-71437458D01*
X157360597Y-71314777D01*
X157312729Y-71199215D01*
X157304874Y-71187458D01*
X173115000Y-71187458D01*
X173115000Y-71312542D01*
X173139403Y-71435223D01*
X173187271Y-71550785D01*
X173256764Y-71654789D01*
X173292801Y-71690826D01*
X173292800Y-79059175D01*
X173256764Y-79095211D01*
X173187271Y-79199215D01*
X173139403Y-79314777D01*
X173115000Y-79437458D01*
X173115000Y-79562542D01*
X173139403Y-79685223D01*
X173187271Y-79800785D01*
X173256764Y-79904789D01*
X173345211Y-79993236D01*
X173449215Y-80062729D01*
X173564777Y-80110597D01*
X173687458Y-80135000D01*
X173812542Y-80135000D01*
X173935223Y-80110597D01*
X174050785Y-80062729D01*
X174154789Y-79993236D01*
X174243236Y-79904789D01*
X174312729Y-79800785D01*
X174360597Y-79685223D01*
X174385000Y-79562542D01*
X174385000Y-79437458D01*
X174360597Y-79314777D01*
X174312729Y-79199215D01*
X174243236Y-79095211D01*
X174207200Y-79059175D01*
X174207200Y-76885000D01*
X174312542Y-76885000D01*
X174435223Y-76860597D01*
X174550785Y-76812729D01*
X174654789Y-76743236D01*
X174690825Y-76707200D01*
X185433963Y-76707200D01*
X185389403Y-76814777D01*
X185365000Y-76937458D01*
X185365000Y-77062542D01*
X185389403Y-77185223D01*
X185437271Y-77300785D01*
X185506764Y-77404789D01*
X185595211Y-77493236D01*
X185699215Y-77562729D01*
X185814777Y-77610597D01*
X185937458Y-77635000D01*
X186062542Y-77635000D01*
X186185223Y-77610597D01*
X186300785Y-77562729D01*
X186404789Y-77493236D01*
X186493236Y-77404789D01*
X186562729Y-77300785D01*
X186610597Y-77185223D01*
X186635000Y-77062542D01*
X186635000Y-76937458D01*
X186610597Y-76814777D01*
X186562729Y-76699215D01*
X186493236Y-76595211D01*
X186457200Y-76559175D01*
X186457200Y-76522449D01*
X186459411Y-76499999D01*
X186457200Y-76477549D01*
X186457200Y-76477540D01*
X186450585Y-76410373D01*
X186424441Y-76324191D01*
X186381987Y-76244764D01*
X186324853Y-76175147D01*
X186307404Y-76160827D01*
X186089174Y-75942597D01*
X186074853Y-75925147D01*
X186005236Y-75868013D01*
X185925809Y-75825559D01*
X185839627Y-75799415D01*
X185772460Y-75792800D01*
X185772450Y-75792800D01*
X185750000Y-75790589D01*
X185727550Y-75792800D01*
X174690825Y-75792800D01*
X174654789Y-75756764D01*
X174550785Y-75687271D01*
X174435223Y-75639403D01*
X174312542Y-75615000D01*
X174207200Y-75615000D01*
X174207200Y-71690825D01*
X174243236Y-71654789D01*
X174312729Y-71550785D01*
X174360597Y-71435223D01*
X174362033Y-71428003D01*
X175269000Y-71428003D01*
X175269000Y-71571997D01*
X175297092Y-71713225D01*
X175352196Y-71846258D01*
X175432195Y-71965985D01*
X175534015Y-72067805D01*
X175653742Y-72147804D01*
X175786775Y-72202908D01*
X175928003Y-72231000D01*
X175944699Y-72231000D01*
X178587540Y-74873843D01*
X178604947Y-74895053D01*
X178626157Y-74912460D01*
X178626161Y-74912464D01*
X178689608Y-74964534D01*
X178786198Y-75016162D01*
X178891005Y-75047955D01*
X178972688Y-75056000D01*
X178972695Y-75056000D01*
X179000000Y-75058689D01*
X179027305Y-75056000D01*
X180772210Y-75056000D01*
X180784015Y-75067805D01*
X180903742Y-75147804D01*
X181036775Y-75202908D01*
X181178003Y-75231000D01*
X181321997Y-75231000D01*
X181463225Y-75202908D01*
X181596258Y-75147804D01*
X181715985Y-75067805D01*
X181817805Y-74965985D01*
X181897804Y-74846258D01*
X181952908Y-74713225D01*
X181981000Y-74571997D01*
X181981000Y-74428003D01*
X181952908Y-74286775D01*
X181897804Y-74153742D01*
X181817805Y-74034015D01*
X181715985Y-73932195D01*
X181596258Y-73852196D01*
X181463225Y-73797092D01*
X181321997Y-73769000D01*
X181178003Y-73769000D01*
X181036775Y-73797092D01*
X180903742Y-73852196D01*
X180784015Y-73932195D01*
X180772210Y-73944000D01*
X179230303Y-73944000D01*
X176731000Y-71444699D01*
X176731000Y-71428003D01*
X176702908Y-71286775D01*
X176647804Y-71153742D01*
X176567805Y-71034015D01*
X176465985Y-70932195D01*
X176346258Y-70852196D01*
X176213225Y-70797092D01*
X176071997Y-70769000D01*
X175928003Y-70769000D01*
X175786775Y-70797092D01*
X175653742Y-70852196D01*
X175534015Y-70932195D01*
X175432195Y-71034015D01*
X175352196Y-71153742D01*
X175297092Y-71286775D01*
X175269000Y-71428003D01*
X174362033Y-71428003D01*
X174385000Y-71312542D01*
X174385000Y-71187458D01*
X174360597Y-71064777D01*
X174312729Y-70949215D01*
X174243236Y-70845211D01*
X174154789Y-70756764D01*
X174050785Y-70687271D01*
X173935223Y-70639403D01*
X173812542Y-70615000D01*
X173687458Y-70615000D01*
X173564777Y-70639403D01*
X173449215Y-70687271D01*
X173345211Y-70756764D01*
X173256764Y-70845211D01*
X173187271Y-70949215D01*
X173139403Y-71064777D01*
X173115000Y-71187458D01*
X157304874Y-71187458D01*
X157243236Y-71095211D01*
X157154789Y-71006764D01*
X157050785Y-70937271D01*
X156935223Y-70889403D01*
X156812542Y-70865000D01*
X156687458Y-70865000D01*
X156564777Y-70889403D01*
X156449215Y-70937271D01*
X156345211Y-71006764D01*
X156256764Y-71095211D01*
X156187271Y-71199215D01*
X156139403Y-71314777D01*
X156115000Y-71437458D01*
X156115000Y-71562542D01*
X156139403Y-71685223D01*
X156187271Y-71800785D01*
X156256764Y-71904789D01*
X156292801Y-71940826D01*
X156292800Y-86169389D01*
X156243236Y-86095211D01*
X156154789Y-86006764D01*
X156050785Y-85937271D01*
X155935223Y-85889403D01*
X155812542Y-85865000D01*
X155687458Y-85865000D01*
X155564777Y-85889403D01*
X155449215Y-85937271D01*
X155345211Y-86006764D01*
X155256764Y-86095211D01*
X155187271Y-86199215D01*
X155139403Y-86314777D01*
X155115000Y-86437458D01*
X155115000Y-86562542D01*
X155139403Y-86685223D01*
X155187271Y-86800785D01*
X155256764Y-86904789D01*
X155292801Y-86940826D01*
X155292800Y-97727550D01*
X155290589Y-97750000D01*
X155292800Y-97772450D01*
X155292800Y-97772459D01*
X155299415Y-97839626D01*
X155325559Y-97925808D01*
X155368013Y-98005235D01*
X155425147Y-98074853D01*
X155442597Y-98089174D01*
X159557219Y-102203797D01*
X159571537Y-102221243D01*
X159641154Y-102278377D01*
X159720581Y-102320831D01*
X159806763Y-102346975D01*
X159873930Y-102353590D01*
X159873940Y-102353590D01*
X159896390Y-102355801D01*
X159918840Y-102353590D01*
X172074607Y-102353590D01*
X172032471Y-102492492D01*
X172014496Y-102675000D01*
X172032471Y-102857508D01*
X172085707Y-103033002D01*
X172172157Y-103194738D01*
X172288499Y-103336501D01*
X172430262Y-103452843D01*
X172467601Y-103472801D01*
X158369379Y-103472801D01*
X149635000Y-94738423D01*
X149635000Y-94687458D01*
X149610597Y-94564777D01*
X149562729Y-94449215D01*
X149493236Y-94345211D01*
X149404789Y-94256764D01*
X149300785Y-94187271D01*
X149185223Y-94139403D01*
X149062542Y-94115000D01*
X148937458Y-94115000D01*
X148814777Y-94139403D01*
X148699215Y-94187271D01*
X148595211Y-94256764D01*
X148506764Y-94345211D01*
X148437271Y-94449215D01*
X148389403Y-94564777D01*
X148365000Y-94687458D01*
X139681000Y-94687458D01*
X139681000Y-86910000D01*
X143211928Y-86910000D01*
X143224188Y-87034482D01*
X143260498Y-87154180D01*
X143319463Y-87264494D01*
X143398815Y-87361185D01*
X143495506Y-87440537D01*
X143605820Y-87499502D01*
X143725518Y-87535812D01*
X143850000Y-87548072D01*
X144414250Y-87545000D01*
X144573000Y-87386250D01*
X144573000Y-86187000D01*
X144827000Y-86187000D01*
X144827000Y-87386250D01*
X144985750Y-87545000D01*
X145550000Y-87548072D01*
X145674482Y-87535812D01*
X145794180Y-87499502D01*
X145904494Y-87440537D01*
X146001185Y-87361185D01*
X146080537Y-87264494D01*
X146139502Y-87154180D01*
X146175812Y-87034482D01*
X146188072Y-86910000D01*
X146185000Y-86345750D01*
X146026250Y-86187000D01*
X144827000Y-86187000D01*
X144573000Y-86187000D01*
X143373750Y-86187000D01*
X143215000Y-86345750D01*
X143211928Y-86910000D01*
X139681000Y-86910000D01*
X139681000Y-85210000D01*
X143211928Y-85210000D01*
X143215000Y-85774250D01*
X143373750Y-85933000D01*
X144573000Y-85933000D01*
X144573000Y-85913000D01*
X144827000Y-85913000D01*
X144827000Y-85933000D01*
X146026250Y-85933000D01*
X146185000Y-85774250D01*
X146188072Y-85210000D01*
X146175812Y-85085518D01*
X146139502Y-84965820D01*
X146080537Y-84855506D01*
X146001185Y-84758815D01*
X145904494Y-84679463D01*
X145794180Y-84620498D01*
X145674482Y-84584188D01*
X145550000Y-84571928D01*
X145339706Y-84573073D01*
X145484717Y-84476180D01*
X145656180Y-84304717D01*
X145790898Y-84103097D01*
X145883693Y-83879069D01*
X145931000Y-83641243D01*
X145931000Y-83398757D01*
X145883693Y-83160931D01*
X145831544Y-83035033D01*
X148557409Y-80309169D01*
X148574853Y-80294853D01*
X148631987Y-80225236D01*
X148674441Y-80145809D01*
X148700585Y-80059627D01*
X148707200Y-79992460D01*
X148707200Y-79992451D01*
X148709411Y-79970001D01*
X148707200Y-79947551D01*
X148707200Y-77928003D01*
X149519000Y-77928003D01*
X149519000Y-78071997D01*
X149547092Y-78213225D01*
X149602196Y-78346258D01*
X149682195Y-78465985D01*
X149784015Y-78567805D01*
X149903742Y-78647804D01*
X150036775Y-78702908D01*
X150178003Y-78731000D01*
X150321997Y-78731000D01*
X150463225Y-78702908D01*
X150596258Y-78647804D01*
X150715985Y-78567805D01*
X150727790Y-78556000D01*
X154022210Y-78556000D01*
X154034015Y-78567805D01*
X154153742Y-78647804D01*
X154286775Y-78702908D01*
X154428003Y-78731000D01*
X154571997Y-78731000D01*
X154713225Y-78702908D01*
X154846258Y-78647804D01*
X154965985Y-78567805D01*
X155067805Y-78465985D01*
X155147804Y-78346258D01*
X155202908Y-78213225D01*
X155231000Y-78071997D01*
X155231000Y-77928003D01*
X155202908Y-77786775D01*
X155147804Y-77653742D01*
X155067805Y-77534015D01*
X154965985Y-77432195D01*
X154846258Y-77352196D01*
X154713225Y-77297092D01*
X154571997Y-77269000D01*
X154428003Y-77269000D01*
X154286775Y-77297092D01*
X154153742Y-77352196D01*
X154034015Y-77432195D01*
X154022210Y-77444000D01*
X150727790Y-77444000D01*
X150715985Y-77432195D01*
X150596258Y-77352196D01*
X150463225Y-77297092D01*
X150321997Y-77269000D01*
X150178003Y-77269000D01*
X150036775Y-77297092D01*
X149903742Y-77352196D01*
X149784015Y-77432195D01*
X149682195Y-77534015D01*
X149602196Y-77653742D01*
X149547092Y-77786775D01*
X149519000Y-77928003D01*
X148707200Y-77928003D01*
X148707200Y-69939377D01*
X149939378Y-68707200D01*
X156227550Y-68707200D01*
X156250000Y-68709411D01*
X156272450Y-68707200D01*
X156272460Y-68707200D01*
X156339627Y-68700585D01*
X156425809Y-68674441D01*
X156505236Y-68631987D01*
X156574853Y-68574853D01*
X156589174Y-68557403D01*
X156689377Y-68457200D01*
X166809175Y-68457200D01*
X166845211Y-68493236D01*
X166949215Y-68562729D01*
X167064777Y-68610597D01*
X167187458Y-68635000D01*
X167312542Y-68635000D01*
X167435223Y-68610597D01*
X167550785Y-68562729D01*
X167654789Y-68493236D01*
X167743236Y-68404789D01*
X167812729Y-68300785D01*
X167860597Y-68185223D01*
X167885000Y-68062542D01*
X167885000Y-67937458D01*
X167860597Y-67814777D01*
X167812729Y-67699215D01*
X167743236Y-67595211D01*
X167654789Y-67506764D01*
X167550785Y-67437271D01*
X167435223Y-67389403D01*
X167362815Y-67375000D01*
X167435223Y-67360597D01*
X167550785Y-67312729D01*
X167654789Y-67243236D01*
X167743236Y-67154789D01*
X167812729Y-67050785D01*
X167860597Y-66935223D01*
X167885000Y-66812542D01*
X167885000Y-66687458D01*
X167860597Y-66564777D01*
X167812729Y-66449215D01*
X167743236Y-66345211D01*
X167654789Y-66256764D01*
X167550785Y-66187271D01*
X167435223Y-66139403D01*
X167312542Y-66115000D01*
X167187458Y-66115000D01*
X167064777Y-66139403D01*
X166949215Y-66187271D01*
X166845211Y-66256764D01*
X166809175Y-66292800D01*
X156422712Y-66292800D01*
X160258313Y-62457200D01*
X166559175Y-62457200D01*
X166595211Y-62493236D01*
X166699215Y-62562729D01*
X166814777Y-62610597D01*
X166937458Y-62635000D01*
X167062542Y-62635000D01*
X167185223Y-62610597D01*
X167300785Y-62562729D01*
X167404789Y-62493236D01*
X167493236Y-62404789D01*
X167562729Y-62300785D01*
X167610597Y-62185223D01*
X167635000Y-62062542D01*
X167635000Y-61937458D01*
X167610597Y-61814777D01*
X167562729Y-61699215D01*
X167493236Y-61595211D01*
X167404789Y-61506764D01*
X167300785Y-61437271D01*
X167185223Y-61389403D01*
X167062542Y-61365000D01*
X166937458Y-61365000D01*
X166814777Y-61389403D01*
X166699215Y-61437271D01*
X166595211Y-61506764D01*
X166559175Y-61542800D01*
X160091386Y-61542800D01*
X160068934Y-61540589D01*
X160046482Y-61542800D01*
X160046474Y-61542800D01*
X159979307Y-61549415D01*
X159893124Y-61575559D01*
X159813698Y-61618013D01*
X159761526Y-61660829D01*
X159761520Y-61660835D01*
X159744081Y-61675147D01*
X159729769Y-61692586D01*
X154434367Y-66987990D01*
X147827259Y-66987990D01*
X147804809Y-66985779D01*
X147782359Y-66987990D01*
X147782350Y-66987990D01*
X147715183Y-66994605D01*
X147629001Y-67020749D01*
X147595710Y-67038543D01*
X147549573Y-67063203D01*
X147497402Y-67106020D01*
X147479957Y-67120337D01*
X147465640Y-67137782D01*
X146238423Y-68365000D01*
X146187458Y-68365000D01*
X146064777Y-68389403D01*
X145949215Y-68437271D01*
X145845211Y-68506764D01*
X145756764Y-68595211D01*
X145687271Y-68699215D01*
X145639403Y-68814777D01*
X145615000Y-68937458D01*
X145615000Y-69062542D01*
X145639403Y-69185223D01*
X145687271Y-69300785D01*
X145756764Y-69404789D01*
X145845211Y-69493236D01*
X145949215Y-69562729D01*
X146064777Y-69610597D01*
X146187458Y-69635000D01*
X146312542Y-69635000D01*
X146435223Y-69610597D01*
X146550785Y-69562729D01*
X146654789Y-69493236D01*
X146743236Y-69404789D01*
X146812729Y-69300785D01*
X146860597Y-69185223D01*
X146885000Y-69062542D01*
X146885000Y-69011577D01*
X147994188Y-67902390D01*
X148451032Y-67902390D01*
X147192592Y-69160830D01*
X147175148Y-69175147D01*
X147160831Y-69192592D01*
X147160830Y-69192593D01*
X147118013Y-69244765D01*
X147075560Y-69324191D01*
X147049416Y-69410374D01*
X147040589Y-69500000D01*
X147042801Y-69522460D01*
X147042800Y-77990622D01*
X145184967Y-79848456D01*
X145059069Y-79796307D01*
X144821243Y-79749000D01*
X144578757Y-79749000D01*
X144340931Y-79796307D01*
X144116903Y-79889102D01*
X143915283Y-80023820D01*
X143743820Y-80195283D01*
X143609102Y-80396903D01*
X143516307Y-80620931D01*
X143469000Y-80858757D01*
X143469000Y-81101243D01*
X143516307Y-81339069D01*
X143609102Y-81563097D01*
X143743820Y-81764717D01*
X143915283Y-81936180D01*
X144116903Y-82070898D01*
X144340931Y-82163693D01*
X144578757Y-82211000D01*
X144821243Y-82211000D01*
X145059069Y-82163693D01*
X145283097Y-82070898D01*
X145484717Y-81936180D01*
X145656180Y-81764717D01*
X145790898Y-81563097D01*
X145883693Y-81339069D01*
X145931000Y-81101243D01*
X145931000Y-80858757D01*
X145883693Y-80620931D01*
X145831544Y-80495033D01*
X147792800Y-78533778D01*
X147792800Y-79780622D01*
X145184967Y-82388456D01*
X145059069Y-82336307D01*
X144821243Y-82289000D01*
X144578757Y-82289000D01*
X144340931Y-82336307D01*
X144116903Y-82429102D01*
X143915283Y-82563820D01*
X143743820Y-82735283D01*
X143609102Y-82936903D01*
X143516307Y-83160931D01*
X143469000Y-83398757D01*
X143469000Y-83641243D01*
X143516307Y-83879069D01*
X143609102Y-84103097D01*
X143743820Y-84304717D01*
X143915283Y-84476180D01*
X144060294Y-84573073D01*
X143850000Y-84571928D01*
X143725518Y-84584188D01*
X143605820Y-84620498D01*
X143495506Y-84679463D01*
X143398815Y-84758815D01*
X143319463Y-84855506D01*
X143260498Y-84965820D01*
X143224188Y-85085518D01*
X143211928Y-85210000D01*
X139681000Y-85210000D01*
X139681000Y-78318757D01*
X143469000Y-78318757D01*
X143469000Y-78561243D01*
X143516307Y-78799069D01*
X143609102Y-79023097D01*
X143743820Y-79224717D01*
X143915283Y-79396180D01*
X144116903Y-79530898D01*
X144340931Y-79623693D01*
X144578757Y-79671000D01*
X144821243Y-79671000D01*
X145059069Y-79623693D01*
X145283097Y-79530898D01*
X145484717Y-79396180D01*
X145656180Y-79224717D01*
X145790898Y-79023097D01*
X145883693Y-78799069D01*
X145931000Y-78561243D01*
X145931000Y-78318757D01*
X145883693Y-78080931D01*
X145790898Y-77856903D01*
X145656180Y-77655283D01*
X145484717Y-77483820D01*
X145283097Y-77349102D01*
X145059069Y-77256307D01*
X144821243Y-77209000D01*
X144578757Y-77209000D01*
X144340931Y-77256307D01*
X144116903Y-77349102D01*
X143915283Y-77483820D01*
X143743820Y-77655283D01*
X143609102Y-77856903D01*
X143516307Y-78080931D01*
X143469000Y-78318757D01*
X139681000Y-78318757D01*
X139681000Y-68187458D01*
X142365000Y-68187458D01*
X142365000Y-68312542D01*
X142389403Y-68435223D01*
X142437271Y-68550785D01*
X142506764Y-68654789D01*
X142542801Y-68690826D01*
X142542800Y-75727550D01*
X142540589Y-75750000D01*
X142542800Y-75772450D01*
X142542800Y-75772459D01*
X142549415Y-75839626D01*
X142575559Y-75925808D01*
X142618013Y-76005235D01*
X142675147Y-76074853D01*
X142692597Y-76089174D01*
X142810826Y-76207403D01*
X142825147Y-76224853D01*
X142894764Y-76281987D01*
X142974191Y-76324441D01*
X143060373Y-76350585D01*
X143127540Y-76357200D01*
X143127549Y-76357200D01*
X143149999Y-76359411D01*
X143172449Y-76357200D01*
X143556954Y-76357200D01*
X143609102Y-76483097D01*
X143743820Y-76684717D01*
X143915283Y-76856180D01*
X144116903Y-76990898D01*
X144340931Y-77083693D01*
X144578757Y-77131000D01*
X144821243Y-77131000D01*
X145059069Y-77083693D01*
X145283097Y-76990898D01*
X145484717Y-76856180D01*
X145656180Y-76684717D01*
X145790898Y-76483097D01*
X145883693Y-76259069D01*
X145931000Y-76021243D01*
X145931000Y-75778757D01*
X145883693Y-75540931D01*
X145790898Y-75316903D01*
X145656180Y-75115283D01*
X145484717Y-74943820D01*
X145283097Y-74809102D01*
X145059069Y-74716307D01*
X144821243Y-74669000D01*
X144578757Y-74669000D01*
X144340931Y-74716307D01*
X144116903Y-74809102D01*
X143915283Y-74943820D01*
X143743820Y-75115283D01*
X143609102Y-75316903D01*
X143556954Y-75442800D01*
X143457200Y-75442800D01*
X143457200Y-73238757D01*
X143469000Y-73238757D01*
X143469000Y-73481243D01*
X143516307Y-73719069D01*
X143609102Y-73943097D01*
X143743820Y-74144717D01*
X143915283Y-74316180D01*
X144116903Y-74450898D01*
X144340931Y-74543693D01*
X144578757Y-74591000D01*
X144821243Y-74591000D01*
X145059069Y-74543693D01*
X145283097Y-74450898D01*
X145484717Y-74316180D01*
X145656180Y-74144717D01*
X145790898Y-73943097D01*
X145883693Y-73719069D01*
X145931000Y-73481243D01*
X145931000Y-73238757D01*
X145883693Y-73000931D01*
X145790898Y-72776903D01*
X145656180Y-72575283D01*
X145484717Y-72403820D01*
X145283097Y-72269102D01*
X145157200Y-72216954D01*
X145157200Y-68239377D01*
X149261579Y-64135000D01*
X149312542Y-64135000D01*
X149435223Y-64110597D01*
X149550785Y-64062729D01*
X149654789Y-63993236D01*
X149743236Y-63904789D01*
X149812729Y-63800785D01*
X149860597Y-63685223D01*
X149885000Y-63562542D01*
X149885000Y-63437458D01*
X149860597Y-63314777D01*
X149812729Y-63199215D01*
X149743236Y-63095211D01*
X149654789Y-63006764D01*
X149550785Y-62937271D01*
X149435223Y-62889403D01*
X149312542Y-62865000D01*
X149187458Y-62865000D01*
X149064777Y-62889403D01*
X148949215Y-62937271D01*
X148845211Y-63006764D01*
X148756764Y-63095211D01*
X148687271Y-63199215D01*
X148639403Y-63314777D01*
X148615000Y-63437458D01*
X148615000Y-63488421D01*
X144392593Y-67710830D01*
X144375148Y-67725147D01*
X144360831Y-67742592D01*
X144360830Y-67742593D01*
X144318013Y-67794765D01*
X144291050Y-67845211D01*
X144275560Y-67874191D01*
X144256368Y-67937458D01*
X144249416Y-67960374D01*
X144240589Y-68050000D01*
X144242801Y-68072460D01*
X144242800Y-72216954D01*
X144116903Y-72269102D01*
X143915283Y-72403820D01*
X143743820Y-72575283D01*
X143609102Y-72776903D01*
X143516307Y-73000931D01*
X143469000Y-73238757D01*
X143457200Y-73238757D01*
X143457200Y-68690825D01*
X143493236Y-68654789D01*
X143562729Y-68550785D01*
X143610597Y-68435223D01*
X143635000Y-68312542D01*
X143635000Y-68187458D01*
X143610597Y-68064777D01*
X143562729Y-67949215D01*
X143493236Y-67845211D01*
X143404789Y-67756764D01*
X143300785Y-67687271D01*
X143185223Y-67639403D01*
X143062542Y-67615000D01*
X142937458Y-67615000D01*
X142814777Y-67639403D01*
X142699215Y-67687271D01*
X142595211Y-67756764D01*
X142506764Y-67845211D01*
X142437271Y-67949215D01*
X142389403Y-68064777D01*
X142365000Y-68187458D01*
X139681000Y-68187458D01*
X139681000Y-60021076D01*
X139684341Y-59987000D01*
X139688116Y-59974496D01*
X139694251Y-59962958D01*
X139702505Y-59952838D01*
X139712573Y-59944509D01*
X139724064Y-59938296D01*
X139736540Y-59934434D01*
X139769211Y-59931000D01*
X172978924Y-59931000D01*
X173013000Y-59934341D01*
G04 #@! TA.AperFunction,Conductor*
D19*
G36*
X173013000Y-59934341D02*
G01*
X173025504Y-59938116D01*
X173037042Y-59944251D01*
X173047162Y-59952505D01*
X173055491Y-59962573D01*
X173061704Y-59974064D01*
X173065566Y-59986540D01*
X173069440Y-60023396D01*
X173071367Y-60103079D01*
X173071904Y-60109697D01*
X173072786Y-60129117D01*
X173190307Y-61513401D01*
X173191368Y-61520854D01*
X173191841Y-61528365D01*
X173197195Y-61561781D01*
X173470665Y-62923863D01*
X173472562Y-62931145D01*
X173473883Y-62938558D01*
X173482985Y-62971153D01*
X173908889Y-64293521D01*
X173911602Y-64300550D01*
X173913751Y-64307758D01*
X173926484Y-64339113D01*
X174499347Y-65604766D01*
X174502837Y-65611442D01*
X174505789Y-65618361D01*
X174521990Y-65648073D01*
X175234446Y-66840741D01*
X175238667Y-66846975D01*
X175242385Y-66853519D01*
X175261828Y-66881180D01*
X175261846Y-66881207D01*
X175261853Y-66881215D01*
X176104737Y-67985555D01*
X176109635Y-67991269D01*
X176114072Y-67997353D01*
X176136541Y-68022659D01*
X177099029Y-69024491D01*
X177104547Y-69029618D01*
X177109640Y-69035156D01*
X177134829Y-69057756D01*
X178204540Y-69944191D01*
X178210604Y-69948661D01*
X178216290Y-69953586D01*
X178243876Y-69973189D01*
X179407060Y-70732831D01*
X179413585Y-70736583D01*
X179419796Y-70740835D01*
X179449407Y-70757179D01*
X179449426Y-70757190D01*
X179449433Y-70757193D01*
X180691123Y-71380273D01*
X180698033Y-71383263D01*
X180704686Y-71386785D01*
X180735975Y-71399680D01*
X182040228Y-71878193D01*
X182047431Y-71880381D01*
X182054439Y-71883127D01*
X182086987Y-71892397D01*
X183437024Y-72220189D01*
X183444429Y-72221548D01*
X183451704Y-72223483D01*
X183485091Y-72229009D01*
X184863559Y-72401866D01*
X184871079Y-72402378D01*
X184878516Y-72403476D01*
X184912315Y-72405187D01*
X186280941Y-72420653D01*
X186281550Y-72420718D01*
X187477102Y-72430821D01*
X187513000Y-72434341D01*
X187525504Y-72438116D01*
X187537042Y-72444251D01*
X187547162Y-72452505D01*
X187555491Y-72462573D01*
X187561704Y-72474064D01*
X187565566Y-72486540D01*
X187569001Y-72519221D01*
X187569000Y-106978923D01*
X187565659Y-107013001D01*
X187561884Y-107025503D01*
X187555749Y-107037042D01*
X187547496Y-107047161D01*
X187537424Y-107055493D01*
X187525939Y-107061703D01*
X187513459Y-107065566D01*
X187480790Y-107069000D01*
X139771077Y-107069000D01*
X139736999Y-107065659D01*
X139724497Y-107061884D01*
X139712958Y-107055749D01*
X139702839Y-107047496D01*
X139694507Y-107037424D01*
X139688297Y-107025939D01*
X139684434Y-107013459D01*
X139681000Y-106980790D01*
X139681000Y-94687458D01*
X148365000Y-94687458D01*
X148365000Y-94812542D01*
X148389403Y-94935223D01*
X148437271Y-95050785D01*
X148506764Y-95154789D01*
X148595211Y-95243236D01*
X148699215Y-95312729D01*
X148814777Y-95360597D01*
X148937458Y-95385000D01*
X148988423Y-95385000D01*
X157840830Y-104237408D01*
X157855148Y-104254854D01*
X157924765Y-104311988D01*
X158004192Y-104354442D01*
X158090374Y-104380586D01*
X158157541Y-104387201D01*
X158157551Y-104387201D01*
X158180001Y-104389412D01*
X158202451Y-104387201D01*
X169528360Y-104387201D01*
X169485707Y-104466998D01*
X169432471Y-104642492D01*
X169414496Y-104825000D01*
X169432471Y-105007508D01*
X169485707Y-105183002D01*
X169572157Y-105344738D01*
X169688499Y-105486501D01*
X169830262Y-105602843D01*
X169991998Y-105689293D01*
X170167492Y-105742529D01*
X170304269Y-105756000D01*
X171095731Y-105756000D01*
X171232508Y-105742529D01*
X171408002Y-105689293D01*
X171569738Y-105602843D01*
X171711501Y-105486501D01*
X171827843Y-105344738D01*
X171914293Y-105183002D01*
X171967529Y-105007508D01*
X171985504Y-104825000D01*
X171967529Y-104642492D01*
X171914293Y-104466998D01*
X171871640Y-104387201D01*
X175128360Y-104387201D01*
X175085707Y-104466998D01*
X175032471Y-104642492D01*
X175014496Y-104825000D01*
X175032471Y-105007508D01*
X175085707Y-105183002D01*
X175172157Y-105344738D01*
X175288499Y-105486501D01*
X175430262Y-105602843D01*
X175591998Y-105689293D01*
X175767492Y-105742529D01*
X175904269Y-105756000D01*
X176695731Y-105756000D01*
X176832508Y-105742529D01*
X177008002Y-105689293D01*
X177169738Y-105602843D01*
X177311501Y-105486501D01*
X177427843Y-105344738D01*
X177514293Y-105183002D01*
X177567529Y-105007508D01*
X177585504Y-104825000D01*
X177567529Y-104642492D01*
X177514293Y-104466998D01*
X177471640Y-104387201D01*
X184830278Y-104387201D01*
X184816307Y-104420931D01*
X184769000Y-104658757D01*
X184769000Y-104901243D01*
X184816307Y-105139069D01*
X184909102Y-105363097D01*
X185043820Y-105564717D01*
X185215283Y-105736180D01*
X185416903Y-105870898D01*
X185640931Y-105963693D01*
X185878757Y-106011000D01*
X186121243Y-106011000D01*
X186359069Y-105963693D01*
X186583097Y-105870898D01*
X186784717Y-105736180D01*
X186956180Y-105564717D01*
X187090898Y-105363097D01*
X187183693Y-105139069D01*
X187231000Y-104901243D01*
X187231000Y-104658757D01*
X187183693Y-104420931D01*
X187090898Y-104196903D01*
X186956180Y-103995283D01*
X186784717Y-103823820D01*
X186583097Y-103689102D01*
X186359069Y-103596307D01*
X186121243Y-103549000D01*
X185878757Y-103549000D01*
X185640931Y-103596307D01*
X185515033Y-103648456D01*
X185489175Y-103622598D01*
X185474854Y-103605148D01*
X185405237Y-103548014D01*
X185325810Y-103505560D01*
X185239628Y-103479416D01*
X185172461Y-103472801D01*
X185172451Y-103472801D01*
X185150001Y-103470590D01*
X185127551Y-103472801D01*
X174532399Y-103472801D01*
X174569738Y-103452843D01*
X174711501Y-103336501D01*
X174827843Y-103194738D01*
X174914293Y-103033002D01*
X174967529Y-102857508D01*
X174985504Y-102675000D01*
X174967529Y-102492492D01*
X174925393Y-102353590D01*
X184769000Y-102353590D01*
X184769000Y-102361243D01*
X184816307Y-102599069D01*
X184909102Y-102823097D01*
X185043820Y-103024717D01*
X185215283Y-103196180D01*
X185416903Y-103330898D01*
X185640931Y-103423693D01*
X185878757Y-103471000D01*
X186121243Y-103471000D01*
X186359069Y-103423693D01*
X186583097Y-103330898D01*
X186784717Y-103196180D01*
X186956180Y-103024717D01*
X187090898Y-102823097D01*
X187183693Y-102599069D01*
X187231000Y-102361243D01*
X187231000Y-102118757D01*
X187183693Y-101880931D01*
X187090898Y-101656903D01*
X186956180Y-101455283D01*
X186784717Y-101283820D01*
X186583097Y-101149102D01*
X186359069Y-101056307D01*
X186121243Y-101009000D01*
X185878757Y-101009000D01*
X185640931Y-101056307D01*
X185416903Y-101149102D01*
X185215283Y-101283820D01*
X185059913Y-101439190D01*
X160085768Y-101439190D01*
X157618356Y-98971779D01*
X157713225Y-98952908D01*
X157846258Y-98897804D01*
X157965985Y-98817805D01*
X158067805Y-98715985D01*
X158147804Y-98596258D01*
X158202908Y-98463225D01*
X158231000Y-98321997D01*
X158231000Y-98305301D01*
X160230302Y-96306000D01*
X166522210Y-96306000D01*
X166534015Y-96317805D01*
X166653742Y-96397804D01*
X166786775Y-96452908D01*
X166928003Y-96481000D01*
X167071997Y-96481000D01*
X167213225Y-96452908D01*
X167346258Y-96397804D01*
X167465985Y-96317805D01*
X167567805Y-96215985D01*
X167647804Y-96096258D01*
X167702908Y-95963225D01*
X167731000Y-95821997D01*
X167731000Y-95678003D01*
X167702908Y-95536775D01*
X167647804Y-95403742D01*
X167567805Y-95284015D01*
X167465985Y-95182195D01*
X167346258Y-95102196D01*
X167213225Y-95047092D01*
X167071997Y-95019000D01*
X166928003Y-95019000D01*
X166786775Y-95047092D01*
X166653742Y-95102196D01*
X166534015Y-95182195D01*
X166522210Y-95194000D01*
X160027304Y-95194000D01*
X160000000Y-95191311D01*
X159972695Y-95194000D01*
X159972688Y-95194000D01*
X159891005Y-95202045D01*
X159786199Y-95233838D01*
X159689608Y-95285466D01*
X159604947Y-95354947D01*
X159587535Y-95376163D01*
X157444699Y-97519000D01*
X157428003Y-97519000D01*
X157286775Y-97547092D01*
X157153742Y-97602196D01*
X157034015Y-97682195D01*
X156932195Y-97784015D01*
X156852196Y-97903742D01*
X156797092Y-98036775D01*
X156778221Y-98131644D01*
X156207200Y-97560623D01*
X156207200Y-90437458D01*
X156365000Y-90437458D01*
X156365000Y-90562542D01*
X156389403Y-90685223D01*
X156437271Y-90800785D01*
X156506764Y-90904789D01*
X156595211Y-90993236D01*
X156699215Y-91062729D01*
X156814777Y-91110597D01*
X156937458Y-91135000D01*
X157062542Y-91135000D01*
X157185223Y-91110597D01*
X157300785Y-91062729D01*
X157404789Y-90993236D01*
X157440825Y-90957200D01*
X166560623Y-90957200D01*
X175610830Y-100007408D01*
X175625147Y-100024853D01*
X175642592Y-100039170D01*
X175694764Y-100081987D01*
X175774190Y-100124441D01*
X175794249Y-100130526D01*
X175860373Y-100150585D01*
X175927540Y-100157200D01*
X175927550Y-100157200D01*
X175950000Y-100159411D01*
X175972450Y-100157200D01*
X184856954Y-100157200D01*
X184909102Y-100283097D01*
X185043820Y-100484717D01*
X185215283Y-100656180D01*
X185416903Y-100790898D01*
X185640931Y-100883693D01*
X185878757Y-100931000D01*
X186121243Y-100931000D01*
X186359069Y-100883693D01*
X186583097Y-100790898D01*
X186784717Y-100656180D01*
X186956180Y-100484717D01*
X187090898Y-100283097D01*
X187183693Y-100059069D01*
X187231000Y-99821243D01*
X187231000Y-99578757D01*
X187183693Y-99340931D01*
X187090898Y-99116903D01*
X186956180Y-98915283D01*
X186784717Y-98743820D01*
X186583097Y-98609102D01*
X186359069Y-98516307D01*
X186121243Y-98469000D01*
X185878757Y-98469000D01*
X185640931Y-98516307D01*
X185416903Y-98609102D01*
X185215283Y-98743820D01*
X185043820Y-98915283D01*
X184909102Y-99116903D01*
X184856954Y-99242800D01*
X176139378Y-99242800D01*
X167089174Y-90192597D01*
X167074853Y-90175147D01*
X167005236Y-90118013D01*
X166925809Y-90075559D01*
X166839627Y-90049415D01*
X166772460Y-90042800D01*
X166772450Y-90042800D01*
X166750000Y-90040589D01*
X166727550Y-90042800D01*
X157440825Y-90042800D01*
X157404789Y-90006764D01*
X157300785Y-89937271D01*
X157185223Y-89889403D01*
X157062542Y-89865000D01*
X156937458Y-89865000D01*
X156814777Y-89889403D01*
X156699215Y-89937271D01*
X156595211Y-90006764D01*
X156506764Y-90095211D01*
X156437271Y-90199215D01*
X156389403Y-90314777D01*
X156365000Y-90437458D01*
X156207200Y-90437458D01*
X156207200Y-86940825D01*
X156243236Y-86904789D01*
X156297791Y-86823141D01*
X156299415Y-86839626D01*
X156325559Y-86925808D01*
X156368013Y-87005235D01*
X156425147Y-87074853D01*
X156442597Y-87089174D01*
X158365000Y-89011579D01*
X158365000Y-89062542D01*
X158389403Y-89185223D01*
X158437271Y-89300785D01*
X158506764Y-89404789D01*
X158595211Y-89493236D01*
X158699215Y-89562729D01*
X158814777Y-89610597D01*
X158937458Y-89635000D01*
X159062542Y-89635000D01*
X159185223Y-89610597D01*
X159300785Y-89562729D01*
X159404789Y-89493236D01*
X159493236Y-89404789D01*
X159562729Y-89300785D01*
X159610597Y-89185223D01*
X159635000Y-89062542D01*
X159635000Y-88937458D01*
X159610597Y-88814777D01*
X159562729Y-88699215D01*
X159493236Y-88595211D01*
X159404789Y-88506764D01*
X159300785Y-88437271D01*
X159185223Y-88389403D01*
X159062542Y-88365000D01*
X159011579Y-88365000D01*
X157207200Y-86560623D01*
X157207200Y-73937458D01*
X158365000Y-73937458D01*
X158365000Y-74062542D01*
X158389403Y-74185223D01*
X158437271Y-74300785D01*
X158506764Y-74404789D01*
X158595211Y-74493236D01*
X158699215Y-74562729D01*
X158814777Y-74610597D01*
X158937458Y-74635000D01*
X158988423Y-74635000D01*
X162292801Y-77939379D01*
X162292800Y-88059175D01*
X162256764Y-88095211D01*
X162187271Y-88199215D01*
X162139403Y-88314777D01*
X162115000Y-88437458D01*
X162115000Y-88562542D01*
X162139403Y-88685223D01*
X162187271Y-88800785D01*
X162256764Y-88904789D01*
X162345211Y-88993236D01*
X162449215Y-89062729D01*
X162564777Y-89110597D01*
X162687458Y-89135000D01*
X162812542Y-89135000D01*
X162935223Y-89110597D01*
X163050785Y-89062729D01*
X163154789Y-88993236D01*
X163190825Y-88957200D01*
X168310623Y-88957200D01*
X173865000Y-94511578D01*
X173865000Y-94562542D01*
X173889403Y-94685223D01*
X173937271Y-94800785D01*
X174006764Y-94904789D01*
X174095211Y-94993236D01*
X174199215Y-95062729D01*
X174314777Y-95110597D01*
X174437458Y-95135000D01*
X174562542Y-95135000D01*
X174685223Y-95110597D01*
X174800785Y-95062729D01*
X174904789Y-94993236D01*
X174993236Y-94904789D01*
X175062729Y-94800785D01*
X175110597Y-94685223D01*
X175135000Y-94562542D01*
X175135000Y-94437458D01*
X175110597Y-94314777D01*
X175062729Y-94199215D01*
X174993236Y-94095211D01*
X174904789Y-94006764D01*
X174800785Y-93937271D01*
X174685223Y-93889403D01*
X174562542Y-93865000D01*
X174511578Y-93865000D01*
X168839174Y-88192597D01*
X168824853Y-88175147D01*
X168755236Y-88118013D01*
X168675809Y-88075559D01*
X168589627Y-88049415D01*
X168522460Y-88042800D01*
X168522450Y-88042800D01*
X168500000Y-88040589D01*
X168477550Y-88042800D01*
X163207200Y-88042800D01*
X163207200Y-77928003D01*
X166769000Y-77928003D01*
X166769000Y-78071997D01*
X166797092Y-78213225D01*
X166852196Y-78346258D01*
X166932195Y-78465985D01*
X166944001Y-78477791D01*
X166944000Y-85772210D01*
X166932195Y-85784015D01*
X166852196Y-85903742D01*
X166797092Y-86036775D01*
X166769000Y-86178003D01*
X166769000Y-86321997D01*
X166797092Y-86463225D01*
X166852196Y-86596258D01*
X166932195Y-86715985D01*
X167034015Y-86817805D01*
X167153742Y-86897804D01*
X167286775Y-86952908D01*
X167428003Y-86981000D01*
X167571997Y-86981000D01*
X167713225Y-86952908D01*
X167846258Y-86897804D01*
X167965985Y-86817805D01*
X168067805Y-86715985D01*
X168147804Y-86596258D01*
X168202908Y-86463225D01*
X168231000Y-86321997D01*
X168231000Y-86178003D01*
X168202908Y-86036775D01*
X168147804Y-85903742D01*
X168067805Y-85784015D01*
X168056000Y-85772210D01*
X168056000Y-81187458D01*
X170865000Y-81187458D01*
X170865000Y-81312542D01*
X170889403Y-81435223D01*
X170937271Y-81550785D01*
X171006764Y-81654789D01*
X171095211Y-81743236D01*
X171199215Y-81812729D01*
X171314777Y-81860597D01*
X171437458Y-81885000D01*
X171488423Y-81885000D01*
X171968423Y-82365000D01*
X171937458Y-82365000D01*
X171814777Y-82389403D01*
X171699215Y-82437271D01*
X171595211Y-82506764D01*
X171506764Y-82595211D01*
X171437271Y-82699215D01*
X171389403Y-82814777D01*
X171365000Y-82937458D01*
X171365000Y-83062542D01*
X171389403Y-83185223D01*
X171437271Y-83300785D01*
X171506764Y-83404789D01*
X171595211Y-83493236D01*
X171699215Y-83562729D01*
X171814777Y-83610597D01*
X171937458Y-83635000D01*
X171988423Y-83635000D01*
X184917603Y-96564181D01*
X184909102Y-96576903D01*
X184816307Y-96800931D01*
X184769000Y-97038757D01*
X184769000Y-97281243D01*
X184816307Y-97519069D01*
X184909102Y-97743097D01*
X185043820Y-97944717D01*
X185215283Y-98116180D01*
X185416903Y-98250898D01*
X185640931Y-98343693D01*
X185878757Y-98391000D01*
X186121243Y-98391000D01*
X186359069Y-98343693D01*
X186583097Y-98250898D01*
X186784717Y-98116180D01*
X186956180Y-97944717D01*
X187090898Y-97743097D01*
X187183693Y-97519069D01*
X187231000Y-97281243D01*
X187231000Y-97038757D01*
X187183693Y-96800931D01*
X187090898Y-96576903D01*
X186956180Y-96375283D01*
X186784717Y-96203820D01*
X186583097Y-96069102D01*
X186359069Y-95976307D01*
X186121243Y-95929000D01*
X185878757Y-95929000D01*
X185640931Y-95976307D01*
X185628170Y-95981593D01*
X185237810Y-95591232D01*
X185416903Y-95710898D01*
X185640931Y-95803693D01*
X185878757Y-95851000D01*
X186121243Y-95851000D01*
X186359069Y-95803693D01*
X186583097Y-95710898D01*
X186784717Y-95576180D01*
X186956180Y-95404717D01*
X187090898Y-95203097D01*
X187183693Y-94979069D01*
X187231000Y-94741243D01*
X187231000Y-94498757D01*
X187183693Y-94260931D01*
X187090898Y-94036903D01*
X186956180Y-93835283D01*
X186784717Y-93663820D01*
X186583097Y-93529102D01*
X186359069Y-93436307D01*
X186329123Y-93430350D01*
X186324853Y-93425147D01*
X186307409Y-93410831D01*
X186193254Y-93296676D01*
X186359069Y-93263693D01*
X186583097Y-93170898D01*
X186784717Y-93036180D01*
X186956180Y-92864717D01*
X187090898Y-92663097D01*
X187183693Y-92439069D01*
X187231000Y-92201243D01*
X187231000Y-91958757D01*
X187183693Y-91720931D01*
X187090898Y-91496903D01*
X186956180Y-91295283D01*
X186784717Y-91123820D01*
X186583097Y-90989102D01*
X186359069Y-90896307D01*
X186121243Y-90849000D01*
X185878757Y-90849000D01*
X185640931Y-90896307D01*
X185416903Y-90989102D01*
X185398186Y-91001608D01*
X180546578Y-86150000D01*
X184767157Y-86150000D01*
X184767157Y-87850000D01*
X184774513Y-87924689D01*
X184796299Y-87996508D01*
X184831678Y-88062696D01*
X184879289Y-88120711D01*
X184937304Y-88168322D01*
X185003492Y-88203701D01*
X185075311Y-88225487D01*
X185150000Y-88232843D01*
X186850000Y-88232843D01*
X186924689Y-88225487D01*
X186996508Y-88203701D01*
X187062696Y-88168322D01*
X187120711Y-88120711D01*
X187168322Y-88062696D01*
X187203701Y-87996508D01*
X187225487Y-87924689D01*
X187232843Y-87850000D01*
X187232843Y-86150000D01*
X187225487Y-86075311D01*
X187203701Y-86003492D01*
X187168322Y-85937304D01*
X187120711Y-85879289D01*
X187062696Y-85831678D01*
X186996508Y-85796299D01*
X186924689Y-85774513D01*
X186850000Y-85767157D01*
X185150000Y-85767157D01*
X185075311Y-85774513D01*
X185003492Y-85796299D01*
X184937304Y-85831678D01*
X184879289Y-85879289D01*
X184831678Y-85937304D01*
X184796299Y-86003492D01*
X184774513Y-86075311D01*
X184767157Y-86150000D01*
X180546578Y-86150000D01*
X178635000Y-84238423D01*
X178635000Y-84187458D01*
X178610597Y-84064777D01*
X178562729Y-83949215D01*
X178493236Y-83845211D01*
X178404789Y-83756764D01*
X178300785Y-83687271D01*
X178185223Y-83639403D01*
X178062542Y-83615000D01*
X177937458Y-83615000D01*
X177814777Y-83639403D01*
X177699215Y-83687271D01*
X177595211Y-83756764D01*
X177506764Y-83845211D01*
X177437271Y-83949215D01*
X177389403Y-84064777D01*
X177365000Y-84187458D01*
X177365000Y-84312542D01*
X177389403Y-84435223D01*
X177430135Y-84533558D01*
X172385000Y-79488423D01*
X172385000Y-79437458D01*
X172360597Y-79314777D01*
X172312729Y-79199215D01*
X172243236Y-79095211D01*
X172154789Y-79006764D01*
X172050785Y-78937271D01*
X171935223Y-78889403D01*
X171812542Y-78865000D01*
X171687458Y-78865000D01*
X171564777Y-78889403D01*
X171449215Y-78937271D01*
X171345211Y-79006764D01*
X171256764Y-79095211D01*
X171187271Y-79199215D01*
X171139403Y-79314777D01*
X171115000Y-79437458D01*
X171115000Y-79562542D01*
X171139403Y-79685223D01*
X171187271Y-79800785D01*
X171256764Y-79904789D01*
X171345211Y-79993236D01*
X171449215Y-80062729D01*
X171564777Y-80110597D01*
X171687458Y-80135000D01*
X171738423Y-80135000D01*
X185246430Y-93643008D01*
X185215283Y-93663820D01*
X185043820Y-93835283D01*
X184909102Y-94036903D01*
X184816307Y-94260931D01*
X184769000Y-94498757D01*
X184769000Y-94741243D01*
X184816307Y-94979069D01*
X184909102Y-95203097D01*
X185028768Y-95382190D01*
X174216442Y-84569865D01*
X174314777Y-84610597D01*
X174437458Y-84635000D01*
X174562542Y-84635000D01*
X174685223Y-84610597D01*
X174800785Y-84562729D01*
X174904789Y-84493236D01*
X174993236Y-84404789D01*
X175062729Y-84300785D01*
X175110597Y-84185223D01*
X175135000Y-84062542D01*
X175135000Y-83937458D01*
X175110597Y-83814777D01*
X175062729Y-83699215D01*
X174993236Y-83595211D01*
X174904789Y-83506764D01*
X174800785Y-83437271D01*
X174685223Y-83389403D01*
X174562542Y-83365000D01*
X174437458Y-83365000D01*
X174314777Y-83389403D01*
X174294415Y-83397837D01*
X172135000Y-81238423D01*
X172135000Y-81187458D01*
X172110597Y-81064777D01*
X172062729Y-80949215D01*
X171993236Y-80845211D01*
X171904789Y-80756764D01*
X171800785Y-80687271D01*
X171685223Y-80639403D01*
X171562542Y-80615000D01*
X171437458Y-80615000D01*
X171314777Y-80639403D01*
X171199215Y-80687271D01*
X171095211Y-80756764D01*
X171006764Y-80845211D01*
X170937271Y-80949215D01*
X170889403Y-81064777D01*
X170865000Y-81187458D01*
X168056000Y-81187458D01*
X168056000Y-78477790D01*
X168067805Y-78465985D01*
X168147804Y-78346258D01*
X168202908Y-78213225D01*
X168231000Y-78071997D01*
X168231000Y-77928003D01*
X168202908Y-77786775D01*
X168147804Y-77653742D01*
X168067805Y-77534015D01*
X167965985Y-77432195D01*
X167846258Y-77352196D01*
X167713225Y-77297092D01*
X167571997Y-77269000D01*
X167428003Y-77269000D01*
X167286775Y-77297092D01*
X167153742Y-77352196D01*
X167034015Y-77432195D01*
X166932195Y-77534015D01*
X166852196Y-77653742D01*
X166797092Y-77786775D01*
X166769000Y-77928003D01*
X163207200Y-77928003D01*
X163207200Y-77772450D01*
X163209411Y-77750000D01*
X163207200Y-77727550D01*
X163207200Y-77727540D01*
X163200585Y-77660373D01*
X163174441Y-77574191D01*
X163131987Y-77494764D01*
X163095730Y-77450585D01*
X163089170Y-77442592D01*
X163074853Y-77425147D01*
X163057408Y-77410830D01*
X159635000Y-73988423D01*
X159635000Y-73937458D01*
X159610597Y-73814777D01*
X159562729Y-73699215D01*
X159493236Y-73595211D01*
X159404789Y-73506764D01*
X159300785Y-73437271D01*
X159185223Y-73389403D01*
X159062542Y-73365000D01*
X158937458Y-73365000D01*
X158814777Y-73389403D01*
X158699215Y-73437271D01*
X158595211Y-73506764D01*
X158506764Y-73595211D01*
X158437271Y-73699215D01*
X158389403Y-73814777D01*
X158365000Y-73937458D01*
X157207200Y-73937458D01*
X157207200Y-71940825D01*
X157243236Y-71904789D01*
X157312729Y-71800785D01*
X157360597Y-71685223D01*
X157385000Y-71562542D01*
X157385000Y-71437458D01*
X157360597Y-71314777D01*
X157312729Y-71199215D01*
X157304874Y-71187458D01*
X173115000Y-71187458D01*
X173115000Y-71312542D01*
X173139403Y-71435223D01*
X173187271Y-71550785D01*
X173256764Y-71654789D01*
X173292801Y-71690826D01*
X173292800Y-79059175D01*
X173256764Y-79095211D01*
X173187271Y-79199215D01*
X173139403Y-79314777D01*
X173115000Y-79437458D01*
X173115000Y-79562542D01*
X173139403Y-79685223D01*
X173187271Y-79800785D01*
X173256764Y-79904789D01*
X173345211Y-79993236D01*
X173449215Y-80062729D01*
X173564777Y-80110597D01*
X173687458Y-80135000D01*
X173812542Y-80135000D01*
X173935223Y-80110597D01*
X174050785Y-80062729D01*
X174154789Y-79993236D01*
X174243236Y-79904789D01*
X174312729Y-79800785D01*
X174360597Y-79685223D01*
X174385000Y-79562542D01*
X174385000Y-79437458D01*
X174360597Y-79314777D01*
X174312729Y-79199215D01*
X174243236Y-79095211D01*
X174207200Y-79059175D01*
X174207200Y-76885000D01*
X174312542Y-76885000D01*
X174435223Y-76860597D01*
X174550785Y-76812729D01*
X174654789Y-76743236D01*
X174690825Y-76707200D01*
X185433963Y-76707200D01*
X185389403Y-76814777D01*
X185365000Y-76937458D01*
X185365000Y-77062542D01*
X185389403Y-77185223D01*
X185437271Y-77300785D01*
X185506764Y-77404789D01*
X185595211Y-77493236D01*
X185699215Y-77562729D01*
X185814777Y-77610597D01*
X185937458Y-77635000D01*
X186062542Y-77635000D01*
X186185223Y-77610597D01*
X186300785Y-77562729D01*
X186404789Y-77493236D01*
X186493236Y-77404789D01*
X186562729Y-77300785D01*
X186610597Y-77185223D01*
X186635000Y-77062542D01*
X186635000Y-76937458D01*
X186610597Y-76814777D01*
X186562729Y-76699215D01*
X186493236Y-76595211D01*
X186457200Y-76559175D01*
X186457200Y-76522449D01*
X186459411Y-76499999D01*
X186457200Y-76477549D01*
X186457200Y-76477540D01*
X186450585Y-76410373D01*
X186424441Y-76324191D01*
X186381987Y-76244764D01*
X186324853Y-76175147D01*
X186307404Y-76160827D01*
X186089174Y-75942597D01*
X186074853Y-75925147D01*
X186005236Y-75868013D01*
X185925809Y-75825559D01*
X185839627Y-75799415D01*
X185772460Y-75792800D01*
X185772450Y-75792800D01*
X185750000Y-75790589D01*
X185727550Y-75792800D01*
X174690825Y-75792800D01*
X174654789Y-75756764D01*
X174550785Y-75687271D01*
X174435223Y-75639403D01*
X174312542Y-75615000D01*
X174207200Y-75615000D01*
X174207200Y-71690825D01*
X174243236Y-71654789D01*
X174312729Y-71550785D01*
X174360597Y-71435223D01*
X174362033Y-71428003D01*
X175269000Y-71428003D01*
X175269000Y-71571997D01*
X175297092Y-71713225D01*
X175352196Y-71846258D01*
X175432195Y-71965985D01*
X175534015Y-72067805D01*
X175653742Y-72147804D01*
X175786775Y-72202908D01*
X175928003Y-72231000D01*
X175944699Y-72231000D01*
X178587540Y-74873843D01*
X178604947Y-74895053D01*
X178626157Y-74912460D01*
X178626161Y-74912464D01*
X178689608Y-74964534D01*
X178786198Y-75016162D01*
X178891005Y-75047955D01*
X178972688Y-75056000D01*
X178972695Y-75056000D01*
X179000000Y-75058689D01*
X179027305Y-75056000D01*
X180772210Y-75056000D01*
X180784015Y-75067805D01*
X180903742Y-75147804D01*
X181036775Y-75202908D01*
X181178003Y-75231000D01*
X181321997Y-75231000D01*
X181463225Y-75202908D01*
X181596258Y-75147804D01*
X181715985Y-75067805D01*
X181817805Y-74965985D01*
X181897804Y-74846258D01*
X181952908Y-74713225D01*
X181981000Y-74571997D01*
X181981000Y-74428003D01*
X181952908Y-74286775D01*
X181897804Y-74153742D01*
X181817805Y-74034015D01*
X181715985Y-73932195D01*
X181596258Y-73852196D01*
X181463225Y-73797092D01*
X181321997Y-73769000D01*
X181178003Y-73769000D01*
X181036775Y-73797092D01*
X180903742Y-73852196D01*
X180784015Y-73932195D01*
X180772210Y-73944000D01*
X179230303Y-73944000D01*
X176731000Y-71444699D01*
X176731000Y-71428003D01*
X176702908Y-71286775D01*
X176647804Y-71153742D01*
X176567805Y-71034015D01*
X176465985Y-70932195D01*
X176346258Y-70852196D01*
X176213225Y-70797092D01*
X176071997Y-70769000D01*
X175928003Y-70769000D01*
X175786775Y-70797092D01*
X175653742Y-70852196D01*
X175534015Y-70932195D01*
X175432195Y-71034015D01*
X175352196Y-71153742D01*
X175297092Y-71286775D01*
X175269000Y-71428003D01*
X174362033Y-71428003D01*
X174385000Y-71312542D01*
X174385000Y-71187458D01*
X174360597Y-71064777D01*
X174312729Y-70949215D01*
X174243236Y-70845211D01*
X174154789Y-70756764D01*
X174050785Y-70687271D01*
X173935223Y-70639403D01*
X173812542Y-70615000D01*
X173687458Y-70615000D01*
X173564777Y-70639403D01*
X173449215Y-70687271D01*
X173345211Y-70756764D01*
X173256764Y-70845211D01*
X173187271Y-70949215D01*
X173139403Y-71064777D01*
X173115000Y-71187458D01*
X157304874Y-71187458D01*
X157243236Y-71095211D01*
X157154789Y-71006764D01*
X157050785Y-70937271D01*
X156935223Y-70889403D01*
X156812542Y-70865000D01*
X156687458Y-70865000D01*
X156564777Y-70889403D01*
X156449215Y-70937271D01*
X156345211Y-71006764D01*
X156256764Y-71095211D01*
X156187271Y-71199215D01*
X156139403Y-71314777D01*
X156115000Y-71437458D01*
X156115000Y-71562542D01*
X156139403Y-71685223D01*
X156187271Y-71800785D01*
X156256764Y-71904789D01*
X156292801Y-71940826D01*
X156292800Y-86169389D01*
X156243236Y-86095211D01*
X156154789Y-86006764D01*
X156050785Y-85937271D01*
X155935223Y-85889403D01*
X155812542Y-85865000D01*
X155687458Y-85865000D01*
X155564777Y-85889403D01*
X155449215Y-85937271D01*
X155345211Y-86006764D01*
X155256764Y-86095211D01*
X155187271Y-86199215D01*
X155139403Y-86314777D01*
X155115000Y-86437458D01*
X155115000Y-86562542D01*
X155139403Y-86685223D01*
X155187271Y-86800785D01*
X155256764Y-86904789D01*
X155292801Y-86940826D01*
X155292800Y-97727550D01*
X155290589Y-97750000D01*
X155292800Y-97772450D01*
X155292800Y-97772459D01*
X155299415Y-97839626D01*
X155325559Y-97925808D01*
X155368013Y-98005235D01*
X155425147Y-98074853D01*
X155442597Y-98089174D01*
X159557219Y-102203797D01*
X159571537Y-102221243D01*
X159641154Y-102278377D01*
X159720581Y-102320831D01*
X159806763Y-102346975D01*
X159873930Y-102353590D01*
X159873940Y-102353590D01*
X159896390Y-102355801D01*
X159918840Y-102353590D01*
X172074607Y-102353590D01*
X172032471Y-102492492D01*
X172014496Y-102675000D01*
X172032471Y-102857508D01*
X172085707Y-103033002D01*
X172172157Y-103194738D01*
X172288499Y-103336501D01*
X172430262Y-103452843D01*
X172467601Y-103472801D01*
X158369379Y-103472801D01*
X149635000Y-94738423D01*
X149635000Y-94687458D01*
X149610597Y-94564777D01*
X149562729Y-94449215D01*
X149493236Y-94345211D01*
X149404789Y-94256764D01*
X149300785Y-94187271D01*
X149185223Y-94139403D01*
X149062542Y-94115000D01*
X148937458Y-94115000D01*
X148814777Y-94139403D01*
X148699215Y-94187271D01*
X148595211Y-94256764D01*
X148506764Y-94345211D01*
X148437271Y-94449215D01*
X148389403Y-94564777D01*
X148365000Y-94687458D01*
X139681000Y-94687458D01*
X139681000Y-86910000D01*
X143211928Y-86910000D01*
X143224188Y-87034482D01*
X143260498Y-87154180D01*
X143319463Y-87264494D01*
X143398815Y-87361185D01*
X143495506Y-87440537D01*
X143605820Y-87499502D01*
X143725518Y-87535812D01*
X143850000Y-87548072D01*
X144414250Y-87545000D01*
X144573000Y-87386250D01*
X144573000Y-86187000D01*
X144827000Y-86187000D01*
X144827000Y-87386250D01*
X144985750Y-87545000D01*
X145550000Y-87548072D01*
X145674482Y-87535812D01*
X145794180Y-87499502D01*
X145904494Y-87440537D01*
X146001185Y-87361185D01*
X146080537Y-87264494D01*
X146139502Y-87154180D01*
X146175812Y-87034482D01*
X146188072Y-86910000D01*
X146185000Y-86345750D01*
X146026250Y-86187000D01*
X144827000Y-86187000D01*
X144573000Y-86187000D01*
X143373750Y-86187000D01*
X143215000Y-86345750D01*
X143211928Y-86910000D01*
X139681000Y-86910000D01*
X139681000Y-85210000D01*
X143211928Y-85210000D01*
X143215000Y-85774250D01*
X143373750Y-85933000D01*
X144573000Y-85933000D01*
X144573000Y-85913000D01*
X144827000Y-85913000D01*
X144827000Y-85933000D01*
X146026250Y-85933000D01*
X146185000Y-85774250D01*
X146188072Y-85210000D01*
X146175812Y-85085518D01*
X146139502Y-84965820D01*
X146080537Y-84855506D01*
X146001185Y-84758815D01*
X145904494Y-84679463D01*
X145794180Y-84620498D01*
X145674482Y-84584188D01*
X145550000Y-84571928D01*
X145339706Y-84573073D01*
X145484717Y-84476180D01*
X145656180Y-84304717D01*
X145790898Y-84103097D01*
X145883693Y-83879069D01*
X145931000Y-83641243D01*
X145931000Y-83398757D01*
X145883693Y-83160931D01*
X145831544Y-83035033D01*
X148557409Y-80309169D01*
X148574853Y-80294853D01*
X148631987Y-80225236D01*
X148674441Y-80145809D01*
X148700585Y-80059627D01*
X148707200Y-79992460D01*
X148707200Y-79992451D01*
X148709411Y-79970001D01*
X148707200Y-79947551D01*
X148707200Y-77928003D01*
X149519000Y-77928003D01*
X149519000Y-78071997D01*
X149547092Y-78213225D01*
X149602196Y-78346258D01*
X149682195Y-78465985D01*
X149784015Y-78567805D01*
X149903742Y-78647804D01*
X150036775Y-78702908D01*
X150178003Y-78731000D01*
X150321997Y-78731000D01*
X150463225Y-78702908D01*
X150596258Y-78647804D01*
X150715985Y-78567805D01*
X150727790Y-78556000D01*
X154022210Y-78556000D01*
X154034015Y-78567805D01*
X154153742Y-78647804D01*
X154286775Y-78702908D01*
X154428003Y-78731000D01*
X154571997Y-78731000D01*
X154713225Y-78702908D01*
X154846258Y-78647804D01*
X154965985Y-78567805D01*
X155067805Y-78465985D01*
X155147804Y-78346258D01*
X155202908Y-78213225D01*
X155231000Y-78071997D01*
X155231000Y-77928003D01*
X155202908Y-77786775D01*
X155147804Y-77653742D01*
X155067805Y-77534015D01*
X154965985Y-77432195D01*
X154846258Y-77352196D01*
X154713225Y-77297092D01*
X154571997Y-77269000D01*
X154428003Y-77269000D01*
X154286775Y-77297092D01*
X154153742Y-77352196D01*
X154034015Y-77432195D01*
X154022210Y-77444000D01*
X150727790Y-77444000D01*
X150715985Y-77432195D01*
X150596258Y-77352196D01*
X150463225Y-77297092D01*
X150321997Y-77269000D01*
X150178003Y-77269000D01*
X150036775Y-77297092D01*
X149903742Y-77352196D01*
X149784015Y-77432195D01*
X149682195Y-77534015D01*
X149602196Y-77653742D01*
X149547092Y-77786775D01*
X149519000Y-77928003D01*
X148707200Y-77928003D01*
X148707200Y-69939377D01*
X149939378Y-68707200D01*
X156227550Y-68707200D01*
X156250000Y-68709411D01*
X156272450Y-68707200D01*
X156272460Y-68707200D01*
X156339627Y-68700585D01*
X156425809Y-68674441D01*
X156505236Y-68631987D01*
X156574853Y-68574853D01*
X156589174Y-68557403D01*
X156689377Y-68457200D01*
X166809175Y-68457200D01*
X166845211Y-68493236D01*
X166949215Y-68562729D01*
X167064777Y-68610597D01*
X167187458Y-68635000D01*
X167312542Y-68635000D01*
X167435223Y-68610597D01*
X167550785Y-68562729D01*
X167654789Y-68493236D01*
X167743236Y-68404789D01*
X167812729Y-68300785D01*
X167860597Y-68185223D01*
X167885000Y-68062542D01*
X167885000Y-67937458D01*
X167860597Y-67814777D01*
X167812729Y-67699215D01*
X167743236Y-67595211D01*
X167654789Y-67506764D01*
X167550785Y-67437271D01*
X167435223Y-67389403D01*
X167362815Y-67375000D01*
X167435223Y-67360597D01*
X167550785Y-67312729D01*
X167654789Y-67243236D01*
X167743236Y-67154789D01*
X167812729Y-67050785D01*
X167860597Y-66935223D01*
X167885000Y-66812542D01*
X167885000Y-66687458D01*
X167860597Y-66564777D01*
X167812729Y-66449215D01*
X167743236Y-66345211D01*
X167654789Y-66256764D01*
X167550785Y-66187271D01*
X167435223Y-66139403D01*
X167312542Y-66115000D01*
X167187458Y-66115000D01*
X167064777Y-66139403D01*
X166949215Y-66187271D01*
X166845211Y-66256764D01*
X166809175Y-66292800D01*
X156422712Y-66292800D01*
X160258313Y-62457200D01*
X166559175Y-62457200D01*
X166595211Y-62493236D01*
X166699215Y-62562729D01*
X166814777Y-62610597D01*
X166937458Y-62635000D01*
X167062542Y-62635000D01*
X167185223Y-62610597D01*
X167300785Y-62562729D01*
X167404789Y-62493236D01*
X167493236Y-62404789D01*
X167562729Y-62300785D01*
X167610597Y-62185223D01*
X167635000Y-62062542D01*
X167635000Y-61937458D01*
X167610597Y-61814777D01*
X167562729Y-61699215D01*
X167493236Y-61595211D01*
X167404789Y-61506764D01*
X167300785Y-61437271D01*
X167185223Y-61389403D01*
X167062542Y-61365000D01*
X166937458Y-61365000D01*
X166814777Y-61389403D01*
X166699215Y-61437271D01*
X166595211Y-61506764D01*
X166559175Y-61542800D01*
X160091386Y-61542800D01*
X160068934Y-61540589D01*
X160046482Y-61542800D01*
X160046474Y-61542800D01*
X159979307Y-61549415D01*
X159893124Y-61575559D01*
X159813698Y-61618013D01*
X159761526Y-61660829D01*
X159761520Y-61660835D01*
X159744081Y-61675147D01*
X159729769Y-61692586D01*
X154434367Y-66987990D01*
X147827259Y-66987990D01*
X147804809Y-66985779D01*
X147782359Y-66987990D01*
X147782350Y-66987990D01*
X147715183Y-66994605D01*
X147629001Y-67020749D01*
X147595710Y-67038543D01*
X147549573Y-67063203D01*
X147497402Y-67106020D01*
X147479957Y-67120337D01*
X147465640Y-67137782D01*
X146238423Y-68365000D01*
X146187458Y-68365000D01*
X146064777Y-68389403D01*
X145949215Y-68437271D01*
X145845211Y-68506764D01*
X145756764Y-68595211D01*
X145687271Y-68699215D01*
X145639403Y-68814777D01*
X145615000Y-68937458D01*
X145615000Y-69062542D01*
X145639403Y-69185223D01*
X145687271Y-69300785D01*
X145756764Y-69404789D01*
X145845211Y-69493236D01*
X145949215Y-69562729D01*
X146064777Y-69610597D01*
X146187458Y-69635000D01*
X146312542Y-69635000D01*
X146435223Y-69610597D01*
X146550785Y-69562729D01*
X146654789Y-69493236D01*
X146743236Y-69404789D01*
X146812729Y-69300785D01*
X146860597Y-69185223D01*
X146885000Y-69062542D01*
X146885000Y-69011577D01*
X147994188Y-67902390D01*
X148451032Y-67902390D01*
X147192592Y-69160830D01*
X147175148Y-69175147D01*
X147160831Y-69192592D01*
X147160830Y-69192593D01*
X147118013Y-69244765D01*
X147075560Y-69324191D01*
X147049416Y-69410374D01*
X147040589Y-69500000D01*
X147042801Y-69522460D01*
X147042800Y-77990622D01*
X145184967Y-79848456D01*
X145059069Y-79796307D01*
X144821243Y-79749000D01*
X144578757Y-79749000D01*
X144340931Y-79796307D01*
X144116903Y-79889102D01*
X143915283Y-80023820D01*
X143743820Y-80195283D01*
X143609102Y-80396903D01*
X143516307Y-80620931D01*
X143469000Y-80858757D01*
X143469000Y-81101243D01*
X143516307Y-81339069D01*
X143609102Y-81563097D01*
X143743820Y-81764717D01*
X143915283Y-81936180D01*
X144116903Y-82070898D01*
X144340931Y-82163693D01*
X144578757Y-82211000D01*
X144821243Y-82211000D01*
X145059069Y-82163693D01*
X145283097Y-82070898D01*
X145484717Y-81936180D01*
X145656180Y-81764717D01*
X145790898Y-81563097D01*
X145883693Y-81339069D01*
X145931000Y-81101243D01*
X145931000Y-80858757D01*
X145883693Y-80620931D01*
X145831544Y-80495033D01*
X147792800Y-78533778D01*
X147792800Y-79780622D01*
X145184967Y-82388456D01*
X145059069Y-82336307D01*
X144821243Y-82289000D01*
X144578757Y-82289000D01*
X144340931Y-82336307D01*
X144116903Y-82429102D01*
X143915283Y-82563820D01*
X143743820Y-82735283D01*
X143609102Y-82936903D01*
X143516307Y-83160931D01*
X143469000Y-83398757D01*
X143469000Y-83641243D01*
X143516307Y-83879069D01*
X143609102Y-84103097D01*
X143743820Y-84304717D01*
X143915283Y-84476180D01*
X144060294Y-84573073D01*
X143850000Y-84571928D01*
X143725518Y-84584188D01*
X143605820Y-84620498D01*
X143495506Y-84679463D01*
X143398815Y-84758815D01*
X143319463Y-84855506D01*
X143260498Y-84965820D01*
X143224188Y-85085518D01*
X143211928Y-85210000D01*
X139681000Y-85210000D01*
X139681000Y-78318757D01*
X143469000Y-78318757D01*
X143469000Y-78561243D01*
X143516307Y-78799069D01*
X143609102Y-79023097D01*
X143743820Y-79224717D01*
X143915283Y-79396180D01*
X144116903Y-79530898D01*
X144340931Y-79623693D01*
X144578757Y-79671000D01*
X144821243Y-79671000D01*
X145059069Y-79623693D01*
X145283097Y-79530898D01*
X145484717Y-79396180D01*
X145656180Y-79224717D01*
X145790898Y-79023097D01*
X145883693Y-78799069D01*
X145931000Y-78561243D01*
X145931000Y-78318757D01*
X145883693Y-78080931D01*
X145790898Y-77856903D01*
X145656180Y-77655283D01*
X145484717Y-77483820D01*
X145283097Y-77349102D01*
X145059069Y-77256307D01*
X144821243Y-77209000D01*
X144578757Y-77209000D01*
X144340931Y-77256307D01*
X144116903Y-77349102D01*
X143915283Y-77483820D01*
X143743820Y-77655283D01*
X143609102Y-77856903D01*
X143516307Y-78080931D01*
X143469000Y-78318757D01*
X139681000Y-78318757D01*
X139681000Y-68187458D01*
X142365000Y-68187458D01*
X142365000Y-68312542D01*
X142389403Y-68435223D01*
X142437271Y-68550785D01*
X142506764Y-68654789D01*
X142542801Y-68690826D01*
X142542800Y-75727550D01*
X142540589Y-75750000D01*
X142542800Y-75772450D01*
X142542800Y-75772459D01*
X142549415Y-75839626D01*
X142575559Y-75925808D01*
X142618013Y-76005235D01*
X142675147Y-76074853D01*
X142692597Y-76089174D01*
X142810826Y-76207403D01*
X142825147Y-76224853D01*
X142894764Y-76281987D01*
X142974191Y-76324441D01*
X143060373Y-76350585D01*
X143127540Y-76357200D01*
X143127549Y-76357200D01*
X143149999Y-76359411D01*
X143172449Y-76357200D01*
X143556954Y-76357200D01*
X143609102Y-76483097D01*
X143743820Y-76684717D01*
X143915283Y-76856180D01*
X144116903Y-76990898D01*
X144340931Y-77083693D01*
X144578757Y-77131000D01*
X144821243Y-77131000D01*
X145059069Y-77083693D01*
X145283097Y-76990898D01*
X145484717Y-76856180D01*
X145656180Y-76684717D01*
X145790898Y-76483097D01*
X145883693Y-76259069D01*
X145931000Y-76021243D01*
X145931000Y-75778757D01*
X145883693Y-75540931D01*
X145790898Y-75316903D01*
X145656180Y-75115283D01*
X145484717Y-74943820D01*
X145283097Y-74809102D01*
X145059069Y-74716307D01*
X144821243Y-74669000D01*
X144578757Y-74669000D01*
X144340931Y-74716307D01*
X144116903Y-74809102D01*
X143915283Y-74943820D01*
X143743820Y-75115283D01*
X143609102Y-75316903D01*
X143556954Y-75442800D01*
X143457200Y-75442800D01*
X143457200Y-73238757D01*
X143469000Y-73238757D01*
X143469000Y-73481243D01*
X143516307Y-73719069D01*
X143609102Y-73943097D01*
X143743820Y-74144717D01*
X143915283Y-74316180D01*
X144116903Y-74450898D01*
X144340931Y-74543693D01*
X144578757Y-74591000D01*
X144821243Y-74591000D01*
X145059069Y-74543693D01*
X145283097Y-74450898D01*
X145484717Y-74316180D01*
X145656180Y-74144717D01*
X145790898Y-73943097D01*
X145883693Y-73719069D01*
X145931000Y-73481243D01*
X145931000Y-73238757D01*
X145883693Y-73000931D01*
X145790898Y-72776903D01*
X145656180Y-72575283D01*
X145484717Y-72403820D01*
X145283097Y-72269102D01*
X145157200Y-72216954D01*
X145157200Y-68239377D01*
X149261579Y-64135000D01*
X149312542Y-64135000D01*
X149435223Y-64110597D01*
X149550785Y-64062729D01*
X149654789Y-63993236D01*
X149743236Y-63904789D01*
X149812729Y-63800785D01*
X149860597Y-63685223D01*
X149885000Y-63562542D01*
X149885000Y-63437458D01*
X149860597Y-63314777D01*
X149812729Y-63199215D01*
X149743236Y-63095211D01*
X149654789Y-63006764D01*
X149550785Y-62937271D01*
X149435223Y-62889403D01*
X149312542Y-62865000D01*
X149187458Y-62865000D01*
X149064777Y-62889403D01*
X148949215Y-62937271D01*
X148845211Y-63006764D01*
X148756764Y-63095211D01*
X148687271Y-63199215D01*
X148639403Y-63314777D01*
X148615000Y-63437458D01*
X148615000Y-63488421D01*
X144392593Y-67710830D01*
X144375148Y-67725147D01*
X144360831Y-67742592D01*
X144360830Y-67742593D01*
X144318013Y-67794765D01*
X144291050Y-67845211D01*
X144275560Y-67874191D01*
X144256368Y-67937458D01*
X144249416Y-67960374D01*
X144240589Y-68050000D01*
X144242801Y-68072460D01*
X144242800Y-72216954D01*
X144116903Y-72269102D01*
X143915283Y-72403820D01*
X143743820Y-72575283D01*
X143609102Y-72776903D01*
X143516307Y-73000931D01*
X143469000Y-73238757D01*
X143457200Y-73238757D01*
X143457200Y-68690825D01*
X143493236Y-68654789D01*
X143562729Y-68550785D01*
X143610597Y-68435223D01*
X143635000Y-68312542D01*
X143635000Y-68187458D01*
X143610597Y-68064777D01*
X143562729Y-67949215D01*
X143493236Y-67845211D01*
X143404789Y-67756764D01*
X143300785Y-67687271D01*
X143185223Y-67639403D01*
X143062542Y-67615000D01*
X142937458Y-67615000D01*
X142814777Y-67639403D01*
X142699215Y-67687271D01*
X142595211Y-67756764D01*
X142506764Y-67845211D01*
X142437271Y-67949215D01*
X142389403Y-68064777D01*
X142365000Y-68187458D01*
X139681000Y-68187458D01*
X139681000Y-60021076D01*
X139684341Y-59987000D01*
X139688116Y-59974496D01*
X139694251Y-59962958D01*
X139702505Y-59952838D01*
X139712573Y-59944509D01*
X139724064Y-59938296D01*
X139736540Y-59934434D01*
X139769211Y-59931000D01*
X172978924Y-59931000D01*
X173013000Y-59934341D01*
G37*
G04 #@! TD.AperFunction*
M02*
