M48
; DRILL file {KiCad (5.1.0)-1} date 4/15/2019 9:45:40 PM
; FORMAT={-:-/ absolute / inch / decimal}
; #@! TF.CreationDate,2019-04-15T21:45:40-04:00
; #@! TF.GenerationSoftware,Kicad,Pcbnew,(5.1.0)-1
; #@! TF.FileFunction,Plated,1,2,PTH
FMAT,2
INCH
T1C0.0118
T2C0.0157
T3C0.0256
T4C0.0276
T5C0.0394
%
G90
G05
T1
X4.374Y-2.6654
X4.378Y-2.3819
X4.5433Y-2.374
X4.5512Y-2.6102
X5.0827Y-3.5433
X5.3189Y-3.4843
X5.5413Y-2.8248
X5.5512Y-3.0217
X5.5906Y-2.8937
X5.6398Y-2.7559
X5.748Y-2.8543
X5.876Y-3.2283
X6.1024Y-2.815
X6.1024Y-3.002
X6.1063Y-2.8898
X6.1063Y-2.9331
X6.1516Y-2.7461
X6.1811Y-3.248
X6.3976Y-2.9331
X6.4272Y-3.5138
X6.5059Y-3.1791
X6.5846Y-2.6378
X6.6142Y-3.1791
X6.6535Y-3.6417
X6.7421Y-3.7795
X6.752Y-3.0315
X6.752Y-3.3858
X6.7717Y-2.5591
X6.7717Y-2.9823
X6.7913Y-2.9331
X6.811Y-2.8839
X6.8307Y-2.8346
X6.8307Y-3.4449
X6.9685Y-2.9528
T2
X4.7835Y-2.6378
X4.9311Y-2.874
X5.2264Y-3.435
X5.2362Y-2.5689
X5.2953Y-3.3071
X5.4429Y-3.1299
X5.5807Y-2.4016
X5.7185Y-2.4114
X5.7579Y-2.7854
X5.7677Y-2.9724
X5.8465Y-3.7697
X5.8661Y-2.5295
X6.063Y-3.6811
X6.0728Y-3.2283
X6.1811Y-3.563
X6.5059Y-3.937
X6.5256Y-2.4508
X6.6831Y-3.5138
X6.7323Y-3.4547
X6.7323Y-3.5925
X6.8307Y-4.1831
X6.8406Y-3.5039
X6.8504Y-2.7854
X6.8996Y-3.8287
X6.9783Y-4.1535
X7.0571Y-3.7205
X7.126Y-4.0846
T5
X4.7146Y-3.002
X4.7146Y-3.102
X4.7146Y-3.202
X4.7146Y-3.302
X7.3228Y-3.4252
X7.3228Y-3.5252
X7.3228Y-3.6252
X7.3228Y-3.7252
X7.3228Y-3.8252
X7.3228Y-3.9252
X7.3228Y-4.0252
X7.3228Y-4.1252
T3
G00X7.202Y-2.9937
M15
G01X7.1862Y-2.9937
M16
G05
G00X7.202Y-3.1843
M15
G01X7.1862Y-3.1843
M16
G05
T4
G00X7.322Y-2.9815
M15
G01X7.3024Y-2.9815
M16
G05
G00X7.322Y-3.1965
M15
G01X7.3024Y-3.1965
M16
G05
T0
M30
