G04 #@! TF.GenerationSoftware,KiCad,Pcbnew,(5.1.9)-1*
G04 #@! TF.CreationDate,2021-01-25T13:58:14-05:00*
G04 #@! TF.ProjectId,eWeatherStation,65576561-7468-4657-9253-746174696f6e,rev?*
G04 #@! TF.SameCoordinates,Original*
G04 #@! TF.FileFunction,Soldermask,Top*
G04 #@! TF.FilePolarity,Negative*
%FSLAX46Y46*%
G04 Gerber Fmt 4.6, Leading zero omitted, Abs format (unit mm)*
G04 Created by KiCad (PCBNEW (5.1.9)-1) date 2021-01-25 13:58:14*
%MOMM*%
%LPD*%
G01*
G04 APERTURE LIST*
%ADD10O,2.301600X1.201600*%
%ADD11O,1.901600X1.201600*%
%ADD12O,1.801600X1.801600*%
%ADD13C,0.100000*%
G04 APERTURE END LIST*
D10*
X173500000Y-102675000D03*
D11*
X170700000Y-104825000D03*
X176300000Y-104825000D03*
G36*
G01*
X175075800Y-103825000D02*
X175075800Y-105325000D01*
G75*
G02*
X175025000Y-105375800I-50800J0D01*
G01*
X174575000Y-105375800D01*
G75*
G02*
X174524200Y-105325000I0J50800D01*
G01*
X174524200Y-103825000D01*
G75*
G02*
X174575000Y-103774200I50800J0D01*
G01*
X175025000Y-103774200D01*
G75*
G02*
X175075800Y-103825000I0J-50800D01*
G01*
G37*
G36*
G01*
X172475800Y-103825000D02*
X172475800Y-105325000D01*
G75*
G02*
X172425000Y-105375800I-50800J0D01*
G01*
X171975000Y-105375800D01*
G75*
G02*
X171924200Y-105325000I0J50800D01*
G01*
X171924200Y-103825000D01*
G75*
G02*
X171975000Y-103774200I50800J0D01*
G01*
X172425000Y-103774200D01*
G75*
G02*
X172475800Y-103825000I0J-50800D01*
G01*
G37*
G36*
G01*
X174425800Y-103825000D02*
X174425800Y-105325000D01*
G75*
G02*
X174375000Y-105375800I-50800J0D01*
G01*
X173925000Y-105375800D01*
G75*
G02*
X173874200Y-105325000I0J50800D01*
G01*
X173874200Y-103825000D01*
G75*
G02*
X173925000Y-103774200I50800J0D01*
G01*
X174375000Y-103774200D01*
G75*
G02*
X174425800Y-103825000I0J-50800D01*
G01*
G37*
G36*
G01*
X173125800Y-103825000D02*
X173125800Y-105325000D01*
G75*
G02*
X173075000Y-105375800I-50800J0D01*
G01*
X172625000Y-105375800D01*
G75*
G02*
X172574200Y-105325000I0J50800D01*
G01*
X172574200Y-103825000D01*
G75*
G02*
X172625000Y-103774200I50800J0D01*
G01*
X173075000Y-103774200D01*
G75*
G02*
X173125800Y-103825000I0J-50800D01*
G01*
G37*
G36*
G01*
X173775800Y-103825000D02*
X173775800Y-105325000D01*
G75*
G02*
X173725000Y-105375800I-50800J0D01*
G01*
X173275000Y-105375800D01*
G75*
G02*
X173224200Y-105325000I0J50800D01*
G01*
X173224200Y-103825000D01*
G75*
G02*
X173275000Y-103774200I50800J0D01*
G01*
X173725000Y-103774200D01*
G75*
G02*
X173775800Y-103825000I0J-50800D01*
G01*
G37*
G36*
G01*
X151634200Y-60923000D02*
X151634200Y-60023000D01*
G75*
G02*
X151685000Y-59972200I50800J0D01*
G01*
X153185000Y-59972200D01*
G75*
G02*
X153235800Y-60023000I0J-50800D01*
G01*
X153235800Y-60923000D01*
G75*
G02*
X153185000Y-60973800I-50800J0D01*
G01*
X151685000Y-60973800D01*
G75*
G02*
X151634200Y-60923000I0J50800D01*
G01*
G37*
G36*
G01*
X153235800Y-81023000D02*
X153235800Y-81923000D01*
G75*
G02*
X153185000Y-81973800I-50800J0D01*
G01*
X151685000Y-81973800D01*
G75*
G02*
X151634200Y-81923000I0J50800D01*
G01*
X151634200Y-81023000D01*
G75*
G02*
X151685000Y-80972200I50800J0D01*
G01*
X153185000Y-80972200D01*
G75*
G02*
X153235800Y-81023000I0J-50800D01*
G01*
G37*
G36*
G01*
X153235800Y-82523000D02*
X153235800Y-83423000D01*
G75*
G02*
X153185000Y-83473800I-50800J0D01*
G01*
X151685000Y-83473800D01*
G75*
G02*
X151634200Y-83423000I0J50800D01*
G01*
X151634200Y-82523000D01*
G75*
G02*
X151685000Y-82472200I50800J0D01*
G01*
X153185000Y-82472200D01*
G75*
G02*
X153235800Y-82523000I0J-50800D01*
G01*
G37*
G36*
G01*
X153809200Y-84473000D02*
X153809200Y-82973000D01*
G75*
G02*
X153860000Y-82922200I50800J0D01*
G01*
X154760000Y-82922200D01*
G75*
G02*
X154810800Y-82973000I0J-50800D01*
G01*
X154810800Y-84473000D01*
G75*
G02*
X154760000Y-84523800I-50800J0D01*
G01*
X153860000Y-84523800D01*
G75*
G02*
X153809200Y-84473000I0J50800D01*
G01*
G37*
G36*
G01*
X155309200Y-84473000D02*
X155309200Y-82973000D01*
G75*
G02*
X155360000Y-82922200I50800J0D01*
G01*
X156260000Y-82922200D01*
G75*
G02*
X156310800Y-82973000I0J-50800D01*
G01*
X156310800Y-84473000D01*
G75*
G02*
X156260000Y-84523800I-50800J0D01*
G01*
X155360000Y-84523800D01*
G75*
G02*
X155309200Y-84473000I0J50800D01*
G01*
G37*
G36*
G01*
X156809200Y-84473000D02*
X156809200Y-82973000D01*
G75*
G02*
X156860000Y-82922200I50800J0D01*
G01*
X157760000Y-82922200D01*
G75*
G02*
X157810800Y-82973000I0J-50800D01*
G01*
X157810800Y-84473000D01*
G75*
G02*
X157760000Y-84523800I-50800J0D01*
G01*
X156860000Y-84523800D01*
G75*
G02*
X156809200Y-84473000I0J50800D01*
G01*
G37*
G36*
G01*
X158309200Y-84473000D02*
X158309200Y-82973000D01*
G75*
G02*
X158360000Y-82922200I50800J0D01*
G01*
X159260000Y-82922200D01*
G75*
G02*
X159310800Y-82973000I0J-50800D01*
G01*
X159310800Y-84473000D01*
G75*
G02*
X159260000Y-84523800I-50800J0D01*
G01*
X158360000Y-84523800D01*
G75*
G02*
X158309200Y-84473000I0J50800D01*
G01*
G37*
G36*
G01*
X159809200Y-84473000D02*
X159809200Y-82973000D01*
G75*
G02*
X159860000Y-82922200I50800J0D01*
G01*
X160760000Y-82922200D01*
G75*
G02*
X160810800Y-82973000I0J-50800D01*
G01*
X160810800Y-84473000D01*
G75*
G02*
X160760000Y-84523800I-50800J0D01*
G01*
X159860000Y-84523800D01*
G75*
G02*
X159809200Y-84473000I0J50800D01*
G01*
G37*
G36*
G01*
X161309200Y-84473000D02*
X161309200Y-82973000D01*
G75*
G02*
X161360000Y-82922200I50800J0D01*
G01*
X162260000Y-82922200D01*
G75*
G02*
X162310800Y-82973000I0J-50800D01*
G01*
X162310800Y-84473000D01*
G75*
G02*
X162260000Y-84523800I-50800J0D01*
G01*
X161360000Y-84523800D01*
G75*
G02*
X161309200Y-84473000I0J50800D01*
G01*
G37*
G36*
G01*
X162809200Y-84473000D02*
X162809200Y-82973000D01*
G75*
G02*
X162860000Y-82922200I50800J0D01*
G01*
X163760000Y-82922200D01*
G75*
G02*
X163810800Y-82973000I0J-50800D01*
G01*
X163810800Y-84473000D01*
G75*
G02*
X163760000Y-84523800I-50800J0D01*
G01*
X162860000Y-84523800D01*
G75*
G02*
X162809200Y-84473000I0J50800D01*
G01*
G37*
G36*
G01*
X164309200Y-84473000D02*
X164309200Y-82973000D01*
G75*
G02*
X164360000Y-82922200I50800J0D01*
G01*
X165260000Y-82922200D01*
G75*
G02*
X165310800Y-82973000I0J-50800D01*
G01*
X165310800Y-84473000D01*
G75*
G02*
X165260000Y-84523800I-50800J0D01*
G01*
X164360000Y-84523800D01*
G75*
G02*
X164309200Y-84473000I0J50800D01*
G01*
G37*
G36*
G01*
X151634200Y-62423000D02*
X151634200Y-61523000D01*
G75*
G02*
X151685000Y-61472200I50800J0D01*
G01*
X153185000Y-61472200D01*
G75*
G02*
X153235800Y-61523000I0J-50800D01*
G01*
X153235800Y-62423000D01*
G75*
G02*
X153185000Y-62473800I-50800J0D01*
G01*
X151685000Y-62473800D01*
G75*
G02*
X151634200Y-62423000I0J50800D01*
G01*
G37*
G36*
G01*
X151634200Y-63923000D02*
X151634200Y-63023000D01*
G75*
G02*
X151685000Y-62972200I50800J0D01*
G01*
X153185000Y-62972200D01*
G75*
G02*
X153235800Y-63023000I0J-50800D01*
G01*
X153235800Y-63923000D01*
G75*
G02*
X153185000Y-63973800I-50800J0D01*
G01*
X151685000Y-63973800D01*
G75*
G02*
X151634200Y-63923000I0J50800D01*
G01*
G37*
G36*
G01*
X151634200Y-65423000D02*
X151634200Y-64523000D01*
G75*
G02*
X151685000Y-64472200I50800J0D01*
G01*
X153185000Y-64472200D01*
G75*
G02*
X153235800Y-64523000I0J-50800D01*
G01*
X153235800Y-65423000D01*
G75*
G02*
X153185000Y-65473800I-50800J0D01*
G01*
X151685000Y-65473800D01*
G75*
G02*
X151634200Y-65423000I0J50800D01*
G01*
G37*
G36*
G01*
X151634200Y-66923000D02*
X151634200Y-66023000D01*
G75*
G02*
X151685000Y-65972200I50800J0D01*
G01*
X153185000Y-65972200D01*
G75*
G02*
X153235800Y-66023000I0J-50800D01*
G01*
X153235800Y-66923000D01*
G75*
G02*
X153185000Y-66973800I-50800J0D01*
G01*
X151685000Y-66973800D01*
G75*
G02*
X151634200Y-66923000I0J50800D01*
G01*
G37*
G36*
G01*
X151634200Y-68423000D02*
X151634200Y-67523000D01*
G75*
G02*
X151685000Y-67472200I50800J0D01*
G01*
X153185000Y-67472200D01*
G75*
G02*
X153235800Y-67523000I0J-50800D01*
G01*
X153235800Y-68423000D01*
G75*
G02*
X153185000Y-68473800I-50800J0D01*
G01*
X151685000Y-68473800D01*
G75*
G02*
X151634200Y-68423000I0J50800D01*
G01*
G37*
G36*
G01*
X151634200Y-69923000D02*
X151634200Y-69023000D01*
G75*
G02*
X151685000Y-68972200I50800J0D01*
G01*
X153185000Y-68972200D01*
G75*
G02*
X153235800Y-69023000I0J-50800D01*
G01*
X153235800Y-69923000D01*
G75*
G02*
X153185000Y-69973800I-50800J0D01*
G01*
X151685000Y-69973800D01*
G75*
G02*
X151634200Y-69923000I0J50800D01*
G01*
G37*
G36*
G01*
X151634200Y-71423000D02*
X151634200Y-70523000D01*
G75*
G02*
X151685000Y-70472200I50800J0D01*
G01*
X153185000Y-70472200D01*
G75*
G02*
X153235800Y-70523000I0J-50800D01*
G01*
X153235800Y-71423000D01*
G75*
G02*
X153185000Y-71473800I-50800J0D01*
G01*
X151685000Y-71473800D01*
G75*
G02*
X151634200Y-71423000I0J50800D01*
G01*
G37*
G36*
G01*
X151634200Y-72923000D02*
X151634200Y-72023000D01*
G75*
G02*
X151685000Y-71972200I50800J0D01*
G01*
X153185000Y-71972200D01*
G75*
G02*
X153235800Y-72023000I0J-50800D01*
G01*
X153235800Y-72923000D01*
G75*
G02*
X153185000Y-72973800I-50800J0D01*
G01*
X151685000Y-72973800D01*
G75*
G02*
X151634200Y-72923000I0J50800D01*
G01*
G37*
G36*
G01*
X151634200Y-74423000D02*
X151634200Y-73523000D01*
G75*
G02*
X151685000Y-73472200I50800J0D01*
G01*
X153185000Y-73472200D01*
G75*
G02*
X153235800Y-73523000I0J-50800D01*
G01*
X153235800Y-74423000D01*
G75*
G02*
X153185000Y-74473800I-50800J0D01*
G01*
X151685000Y-74473800D01*
G75*
G02*
X151634200Y-74423000I0J50800D01*
G01*
G37*
G36*
G01*
X151634200Y-75923000D02*
X151634200Y-75023000D01*
G75*
G02*
X151685000Y-74972200I50800J0D01*
G01*
X153185000Y-74972200D01*
G75*
G02*
X153235800Y-75023000I0J-50800D01*
G01*
X153235800Y-75923000D01*
G75*
G02*
X153185000Y-75973800I-50800J0D01*
G01*
X151685000Y-75973800D01*
G75*
G02*
X151634200Y-75923000I0J50800D01*
G01*
G37*
G36*
G01*
X151634200Y-77423000D02*
X151634200Y-76523000D01*
G75*
G02*
X151685000Y-76472200I50800J0D01*
G01*
X153185000Y-76472200D01*
G75*
G02*
X153235800Y-76523000I0J-50800D01*
G01*
X153235800Y-77423000D01*
G75*
G02*
X153185000Y-77473800I-50800J0D01*
G01*
X151685000Y-77473800D01*
G75*
G02*
X151634200Y-77423000I0J50800D01*
G01*
G37*
G36*
G01*
X151634200Y-78923000D02*
X151634200Y-78023000D01*
G75*
G02*
X151685000Y-77972200I50800J0D01*
G01*
X153185000Y-77972200D01*
G75*
G02*
X153235800Y-78023000I0J-50800D01*
G01*
X153235800Y-78923000D01*
G75*
G02*
X153185000Y-78973800I-50800J0D01*
G01*
X151685000Y-78973800D01*
G75*
G02*
X151634200Y-78923000I0J50800D01*
G01*
G37*
G36*
G01*
X151634200Y-80423000D02*
X151634200Y-79523000D01*
G75*
G02*
X151685000Y-79472200I50800J0D01*
G01*
X153185000Y-79472200D01*
G75*
G02*
X153235800Y-79523000I0J-50800D01*
G01*
X153235800Y-80423000D01*
G75*
G02*
X153185000Y-80473800I-50800J0D01*
G01*
X151685000Y-80473800D01*
G75*
G02*
X151634200Y-80423000I0J50800D01*
G01*
G37*
G36*
G01*
X168884200Y-67023000D02*
X168884200Y-66123000D01*
G75*
G02*
X168935000Y-66072200I50800J0D01*
G01*
X170435000Y-66072200D01*
G75*
G02*
X170485800Y-66123000I0J-50800D01*
G01*
X170485800Y-67023000D01*
G75*
G02*
X170435000Y-67073800I-50800J0D01*
G01*
X168935000Y-67073800D01*
G75*
G02*
X168884200Y-67023000I0J50800D01*
G01*
G37*
G36*
G01*
X168884200Y-68523000D02*
X168884200Y-67623000D01*
G75*
G02*
X168935000Y-67572200I50800J0D01*
G01*
X170435000Y-67572200D01*
G75*
G02*
X170485800Y-67623000I0J-50800D01*
G01*
X170485800Y-68523000D01*
G75*
G02*
X170435000Y-68573800I-50800J0D01*
G01*
X168935000Y-68573800D01*
G75*
G02*
X168884200Y-68523000I0J50800D01*
G01*
G37*
G36*
G01*
X168884200Y-70023000D02*
X168884200Y-69123000D01*
G75*
G02*
X168935000Y-69072200I50800J0D01*
G01*
X170435000Y-69072200D01*
G75*
G02*
X170485800Y-69123000I0J-50800D01*
G01*
X170485800Y-70023000D01*
G75*
G02*
X170435000Y-70073800I-50800J0D01*
G01*
X168935000Y-70073800D01*
G75*
G02*
X168884200Y-70023000I0J50800D01*
G01*
G37*
G36*
G01*
X168884200Y-71523000D02*
X168884200Y-70623000D01*
G75*
G02*
X168935000Y-70572200I50800J0D01*
G01*
X170435000Y-70572200D01*
G75*
G02*
X170485800Y-70623000I0J-50800D01*
G01*
X170485800Y-71523000D01*
G75*
G02*
X170435000Y-71573800I-50800J0D01*
G01*
X168935000Y-71573800D01*
G75*
G02*
X168884200Y-71523000I0J50800D01*
G01*
G37*
G36*
G01*
X168884200Y-73023000D02*
X168884200Y-72123000D01*
G75*
G02*
X168935000Y-72072200I50800J0D01*
G01*
X170435000Y-72072200D01*
G75*
G02*
X170485800Y-72123000I0J-50800D01*
G01*
X170485800Y-73023000D01*
G75*
G02*
X170435000Y-73073800I-50800J0D01*
G01*
X168935000Y-73073800D01*
G75*
G02*
X168884200Y-73023000I0J50800D01*
G01*
G37*
G36*
G01*
X168884200Y-74523000D02*
X168884200Y-73623000D01*
G75*
G02*
X168935000Y-73572200I50800J0D01*
G01*
X170435000Y-73572200D01*
G75*
G02*
X170485800Y-73623000I0J-50800D01*
G01*
X170485800Y-74523000D01*
G75*
G02*
X170435000Y-74573800I-50800J0D01*
G01*
X168935000Y-74573800D01*
G75*
G02*
X168884200Y-74523000I0J50800D01*
G01*
G37*
G36*
G01*
X168884200Y-76023000D02*
X168884200Y-75123000D01*
G75*
G02*
X168935000Y-75072200I50800J0D01*
G01*
X170435000Y-75072200D01*
G75*
G02*
X170485800Y-75123000I0J-50800D01*
G01*
X170485800Y-76023000D01*
G75*
G02*
X170435000Y-76073800I-50800J0D01*
G01*
X168935000Y-76073800D01*
G75*
G02*
X168884200Y-76023000I0J50800D01*
G01*
G37*
G36*
G01*
X168884200Y-77523000D02*
X168884200Y-76623000D01*
G75*
G02*
X168935000Y-76572200I50800J0D01*
G01*
X170435000Y-76572200D01*
G75*
G02*
X170485800Y-76623000I0J-50800D01*
G01*
X170485800Y-77523000D01*
G75*
G02*
X170435000Y-77573800I-50800J0D01*
G01*
X168935000Y-77573800D01*
G75*
G02*
X168884200Y-77523000I0J50800D01*
G01*
G37*
G36*
G01*
X168884200Y-79023000D02*
X168884200Y-78123000D01*
G75*
G02*
X168935000Y-78072200I50800J0D01*
G01*
X170435000Y-78072200D01*
G75*
G02*
X170485800Y-78123000I0J-50800D01*
G01*
X170485800Y-79023000D01*
G75*
G02*
X170435000Y-79073800I-50800J0D01*
G01*
X168935000Y-79073800D01*
G75*
G02*
X168884200Y-79023000I0J50800D01*
G01*
G37*
G36*
G01*
X168884200Y-80523000D02*
X168884200Y-79623000D01*
G75*
G02*
X168935000Y-79572200I50800J0D01*
G01*
X170435000Y-79572200D01*
G75*
G02*
X170485800Y-79623000I0J-50800D01*
G01*
X170485800Y-80523000D01*
G75*
G02*
X170435000Y-80573800I-50800J0D01*
G01*
X168935000Y-80573800D01*
G75*
G02*
X168884200Y-80523000I0J50800D01*
G01*
G37*
G36*
G01*
X168884200Y-82023000D02*
X168884200Y-81123000D01*
G75*
G02*
X168935000Y-81072200I50800J0D01*
G01*
X170435000Y-81072200D01*
G75*
G02*
X170485800Y-81123000I0J-50800D01*
G01*
X170485800Y-82023000D01*
G75*
G02*
X170435000Y-82073800I-50800J0D01*
G01*
X168935000Y-82073800D01*
G75*
G02*
X168884200Y-82023000I0J50800D01*
G01*
G37*
G36*
G01*
X168884200Y-83523000D02*
X168884200Y-82623000D01*
G75*
G02*
X168935000Y-82572200I50800J0D01*
G01*
X170435000Y-82572200D01*
G75*
G02*
X170485800Y-82623000I0J-50800D01*
G01*
X170485800Y-83523000D01*
G75*
G02*
X170435000Y-83573800I-50800J0D01*
G01*
X168935000Y-83573800D01*
G75*
G02*
X168884200Y-83523000I0J50800D01*
G01*
G37*
G36*
G01*
X167309200Y-84473000D02*
X167309200Y-82973000D01*
G75*
G02*
X167360000Y-82922200I50800J0D01*
G01*
X168260000Y-82922200D01*
G75*
G02*
X168310800Y-82973000I0J-50800D01*
G01*
X168310800Y-84473000D01*
G75*
G02*
X168260000Y-84523800I-50800J0D01*
G01*
X167360000Y-84523800D01*
G75*
G02*
X167309200Y-84473000I0J50800D01*
G01*
G37*
G36*
G01*
X165809200Y-84473000D02*
X165809200Y-82973000D01*
G75*
G02*
X165860000Y-82922200I50800J0D01*
G01*
X166760000Y-82922200D01*
G75*
G02*
X166810800Y-82973000I0J-50800D01*
G01*
X166810800Y-84473000D01*
G75*
G02*
X166760000Y-84523800I-50800J0D01*
G01*
X165860000Y-84523800D01*
G75*
G02*
X165809200Y-84473000I0J50800D01*
G01*
G37*
G36*
G01*
X168884200Y-65523000D02*
X168884200Y-64623000D01*
G75*
G02*
X168935000Y-64572200I50800J0D01*
G01*
X170435000Y-64572200D01*
G75*
G02*
X170485800Y-64623000I0J-50800D01*
G01*
X170485800Y-65523000D01*
G75*
G02*
X170435000Y-65573800I-50800J0D01*
G01*
X168935000Y-65573800D01*
G75*
G02*
X168884200Y-65523000I0J50800D01*
G01*
G37*
G36*
G01*
X168884200Y-63923000D02*
X168884200Y-63023000D01*
G75*
G02*
X168935000Y-62972200I50800J0D01*
G01*
X170435000Y-62972200D01*
G75*
G02*
X170485800Y-63023000I0J-50800D01*
G01*
X170485800Y-63923000D01*
G75*
G02*
X170435000Y-63973800I-50800J0D01*
G01*
X168935000Y-63973800D01*
G75*
G02*
X168884200Y-63923000I0J50800D01*
G01*
G37*
G36*
G01*
X168884200Y-62423000D02*
X168884200Y-61523000D01*
G75*
G02*
X168935000Y-61472200I50800J0D01*
G01*
X170435000Y-61472200D01*
G75*
G02*
X170485800Y-61523000I0J-50800D01*
G01*
X170485800Y-62423000D01*
G75*
G02*
X170435000Y-62473800I-50800J0D01*
G01*
X168935000Y-62473800D01*
G75*
G02*
X168884200Y-62423000I0J50800D01*
G01*
G37*
G36*
G01*
X168884200Y-61023000D02*
X168884200Y-60123000D01*
G75*
G02*
X168935000Y-60072200I50800J0D01*
G01*
X170435000Y-60072200D01*
G75*
G02*
X170485800Y-60123000I0J-50800D01*
G01*
X170485800Y-61023000D01*
G75*
G02*
X170435000Y-61073800I-50800J0D01*
G01*
X168935000Y-61073800D01*
G75*
G02*
X168884200Y-61023000I0J50800D01*
G01*
G37*
G36*
G01*
X157769200Y-70563000D02*
X157769200Y-66463000D01*
G75*
G02*
X157820000Y-66412200I50800J0D01*
G01*
X161920000Y-66412200D01*
G75*
G02*
X161970800Y-66463000I0J-50800D01*
G01*
X161970800Y-70563000D01*
G75*
G02*
X161920000Y-70613800I-50800J0D01*
G01*
X157820000Y-70613800D01*
G75*
G02*
X157769200Y-70563000I0J50800D01*
G01*
G37*
D12*
X144700000Y-73360000D03*
X144700000Y-75900000D03*
X144700000Y-78440000D03*
X144700000Y-80980000D03*
X144700000Y-83520000D03*
G36*
G01*
X145600800Y-85210000D02*
X145600800Y-86910000D01*
G75*
G02*
X145550000Y-86960800I-50800J0D01*
G01*
X143850000Y-86960800D01*
G75*
G02*
X143799200Y-86910000I0J50800D01*
G01*
X143799200Y-85210000D01*
G75*
G02*
X143850000Y-85159200I50800J0D01*
G01*
X145550000Y-85159200D01*
G75*
G02*
X145600800Y-85210000I0J-50800D01*
G01*
G37*
G36*
G01*
X176350800Y-77625000D02*
X176350800Y-78275000D01*
G75*
G02*
X176300000Y-78325800I-50800J0D01*
G01*
X175080000Y-78325800D01*
G75*
G02*
X175029200Y-78275000I0J50800D01*
G01*
X175029200Y-77625000D01*
G75*
G02*
X175080000Y-77574200I50800J0D01*
G01*
X176300000Y-77574200D01*
G75*
G02*
X176350800Y-77625000I0J-50800D01*
G01*
G37*
G36*
G01*
X176350800Y-76675000D02*
X176350800Y-77325000D01*
G75*
G02*
X176300000Y-77375800I-50800J0D01*
G01*
X175080000Y-77375800D01*
G75*
G02*
X175029200Y-77325000I0J50800D01*
G01*
X175029200Y-76675000D01*
G75*
G02*
X175080000Y-76624200I50800J0D01*
G01*
X176300000Y-76624200D01*
G75*
G02*
X176350800Y-76675000I0J-50800D01*
G01*
G37*
G36*
G01*
X176350800Y-75725000D02*
X176350800Y-76375000D01*
G75*
G02*
X176300000Y-76425800I-50800J0D01*
G01*
X175080000Y-76425800D01*
G75*
G02*
X175029200Y-76375000I0J50800D01*
G01*
X175029200Y-75725000D01*
G75*
G02*
X175080000Y-75674200I50800J0D01*
G01*
X176300000Y-75674200D01*
G75*
G02*
X176350800Y-75725000I0J-50800D01*
G01*
G37*
G36*
G01*
X178970800Y-75725000D02*
X178970800Y-76375000D01*
G75*
G02*
X178920000Y-76425800I-50800J0D01*
G01*
X177700000Y-76425800D01*
G75*
G02*
X177649200Y-76375000I0J50800D01*
G01*
X177649200Y-75725000D01*
G75*
G02*
X177700000Y-75674200I50800J0D01*
G01*
X178920000Y-75674200D01*
G75*
G02*
X178970800Y-75725000I0J-50800D01*
G01*
G37*
G36*
G01*
X178970800Y-76675000D02*
X178970800Y-77325000D01*
G75*
G02*
X178920000Y-77375800I-50800J0D01*
G01*
X177700000Y-77375800D01*
G75*
G02*
X177649200Y-77325000I0J50800D01*
G01*
X177649200Y-76675000D01*
G75*
G02*
X177700000Y-76624200I50800J0D01*
G01*
X178920000Y-76624200D01*
G75*
G02*
X178970800Y-76675000I0J-50800D01*
G01*
G37*
G36*
G01*
X178970800Y-77625000D02*
X178970800Y-78275000D01*
G75*
G02*
X178920000Y-78325800I-50800J0D01*
G01*
X177700000Y-78325800D01*
G75*
G02*
X177649200Y-78275000I0J50800D01*
G01*
X177649200Y-77625000D01*
G75*
G02*
X177700000Y-77574200I50800J0D01*
G01*
X178920000Y-77574200D01*
G75*
G02*
X178970800Y-77625000I0J-50800D01*
G01*
G37*
G36*
G01*
X176275800Y-80844520D02*
X176275800Y-82155480D01*
G75*
G02*
X176005480Y-82425800I-270320J0D01*
G01*
X175194520Y-82425800D01*
G75*
G02*
X174924200Y-82155480I0J270320D01*
G01*
X174924200Y-80844520D01*
G75*
G02*
X175194520Y-80574200I270320J0D01*
G01*
X176005480Y-80574200D01*
G75*
G02*
X176275800Y-80844520I0J-270320D01*
G01*
G37*
G36*
G01*
X179075800Y-80844520D02*
X179075800Y-82155480D01*
G75*
G02*
X178805480Y-82425800I-270320J0D01*
G01*
X177994520Y-82425800D01*
G75*
G02*
X177724200Y-82155480I0J270320D01*
G01*
X177724200Y-80844520D01*
G75*
G02*
X177994520Y-80574200I270320J0D01*
G01*
X178805480Y-80574200D01*
G75*
G02*
X179075800Y-80844520I0J-270320D01*
G01*
G37*
G36*
G01*
X177724200Y-74155480D02*
X177724200Y-72844520D01*
G75*
G02*
X177994520Y-72574200I270320J0D01*
G01*
X178805480Y-72574200D01*
G75*
G02*
X179075800Y-72844520I0J-270320D01*
G01*
X179075800Y-74155480D01*
G75*
G02*
X178805480Y-74425800I-270320J0D01*
G01*
X177994520Y-74425800D01*
G75*
G02*
X177724200Y-74155480I0J270320D01*
G01*
G37*
G36*
G01*
X174924200Y-74155480D02*
X174924200Y-72844520D01*
G75*
G02*
X175194520Y-72574200I270320J0D01*
G01*
X176005480Y-72574200D01*
G75*
G02*
X176275800Y-72844520I0J-270320D01*
G01*
X176275800Y-74155480D01*
G75*
G02*
X176005480Y-74425800I-270320J0D01*
G01*
X175194520Y-74425800D01*
G75*
G02*
X174924200Y-74155480I0J270320D01*
G01*
G37*
G36*
G01*
X181655480Y-106075800D02*
X180344520Y-106075800D01*
G75*
G02*
X180074200Y-105805480I0J270320D01*
G01*
X180074200Y-104994520D01*
G75*
G02*
X180344520Y-104724200I270320J0D01*
G01*
X181655480Y-104724200D01*
G75*
G02*
X181925800Y-104994520I0J-270320D01*
G01*
X181925800Y-105805480D01*
G75*
G02*
X181655480Y-106075800I-270320J0D01*
G01*
G37*
G36*
G01*
X181655480Y-103275800D02*
X180344520Y-103275800D01*
G75*
G02*
X180074200Y-103005480I0J270320D01*
G01*
X180074200Y-102194520D01*
G75*
G02*
X180344520Y-101924200I270320J0D01*
G01*
X181655480Y-101924200D01*
G75*
G02*
X181925800Y-102194520I0J-270320D01*
G01*
X181925800Y-103005480D01*
G75*
G02*
X181655480Y-103275800I-270320J0D01*
G01*
G37*
G36*
G01*
X176125000Y-90180800D02*
X175475000Y-90180800D01*
G75*
G02*
X175424200Y-90130000I0J50800D01*
G01*
X175424200Y-89070000D01*
G75*
G02*
X175475000Y-89019200I50800J0D01*
G01*
X176125000Y-89019200D01*
G75*
G02*
X176175800Y-89070000I0J-50800D01*
G01*
X176175800Y-90130000D01*
G75*
G02*
X176125000Y-90180800I-50800J0D01*
G01*
G37*
G36*
G01*
X177075000Y-90180800D02*
X176425000Y-90180800D01*
G75*
G02*
X176374200Y-90130000I0J50800D01*
G01*
X176374200Y-89070000D01*
G75*
G02*
X176425000Y-89019200I50800J0D01*
G01*
X177075000Y-89019200D01*
G75*
G02*
X177125800Y-89070000I0J-50800D01*
G01*
X177125800Y-90130000D01*
G75*
G02*
X177075000Y-90180800I-50800J0D01*
G01*
G37*
G36*
G01*
X178025000Y-90180800D02*
X177375000Y-90180800D01*
G75*
G02*
X177324200Y-90130000I0J50800D01*
G01*
X177324200Y-89070000D01*
G75*
G02*
X177375000Y-89019200I50800J0D01*
G01*
X178025000Y-89019200D01*
G75*
G02*
X178075800Y-89070000I0J-50800D01*
G01*
X178075800Y-90130000D01*
G75*
G02*
X178025000Y-90180800I-50800J0D01*
G01*
G37*
G36*
G01*
X178025000Y-87980800D02*
X177375000Y-87980800D01*
G75*
G02*
X177324200Y-87930000I0J50800D01*
G01*
X177324200Y-86870000D01*
G75*
G02*
X177375000Y-86819200I50800J0D01*
G01*
X178025000Y-86819200D01*
G75*
G02*
X178075800Y-86870000I0J-50800D01*
G01*
X178075800Y-87930000D01*
G75*
G02*
X178025000Y-87980800I-50800J0D01*
G01*
G37*
G36*
G01*
X176125000Y-87980800D02*
X175475000Y-87980800D01*
G75*
G02*
X175424200Y-87930000I0J50800D01*
G01*
X175424200Y-86870000D01*
G75*
G02*
X175475000Y-86819200I50800J0D01*
G01*
X176125000Y-86819200D01*
G75*
G02*
X176175800Y-86870000I0J-50800D01*
G01*
X176175800Y-87930000D01*
G75*
G02*
X176125000Y-87980800I-50800J0D01*
G01*
G37*
G36*
G01*
X171344520Y-89224200D02*
X172655480Y-89224200D01*
G75*
G02*
X172925800Y-89494520I0J-270320D01*
G01*
X172925800Y-90305480D01*
G75*
G02*
X172655480Y-90575800I-270320J0D01*
G01*
X171344520Y-90575800D01*
G75*
G02*
X171074200Y-90305480I0J270320D01*
G01*
X171074200Y-89494520D01*
G75*
G02*
X171344520Y-89224200I270320J0D01*
G01*
G37*
G36*
G01*
X171344520Y-86424200D02*
X172655480Y-86424200D01*
G75*
G02*
X172925800Y-86694520I0J-270320D01*
G01*
X172925800Y-87505480D01*
G75*
G02*
X172655480Y-87775800I-270320J0D01*
G01*
X171344520Y-87775800D01*
G75*
G02*
X171074200Y-87505480I0J270320D01*
G01*
X171074200Y-86694520D01*
G75*
G02*
X171344520Y-86424200I270320J0D01*
G01*
G37*
G36*
G01*
X177594520Y-94924200D02*
X178905480Y-94924200D01*
G75*
G02*
X179175800Y-95194520I0J-270320D01*
G01*
X179175800Y-96005480D01*
G75*
G02*
X178905480Y-96275800I-270320J0D01*
G01*
X177594520Y-96275800D01*
G75*
G02*
X177324200Y-96005480I0J270320D01*
G01*
X177324200Y-95194520D01*
G75*
G02*
X177594520Y-94924200I270320J0D01*
G01*
G37*
G36*
G01*
X177594520Y-97724200D02*
X178905480Y-97724200D01*
G75*
G02*
X179175800Y-97994520I0J-270320D01*
G01*
X179175800Y-98805480D01*
G75*
G02*
X178905480Y-99075800I-270320J0D01*
G01*
X177594520Y-99075800D01*
G75*
G02*
X177324200Y-98805480I0J270320D01*
G01*
X177324200Y-97994520D01*
G75*
G02*
X177594520Y-97724200I270320J0D01*
G01*
G37*
G36*
G01*
X185099200Y-87850000D02*
X185099200Y-86150000D01*
G75*
G02*
X185150000Y-86099200I50800J0D01*
G01*
X186850000Y-86099200D01*
G75*
G02*
X186900800Y-86150000I0J-50800D01*
G01*
X186900800Y-87850000D01*
G75*
G02*
X186850000Y-87900800I-50800J0D01*
G01*
X185150000Y-87900800D01*
G75*
G02*
X185099200Y-87850000I0J50800D01*
G01*
G37*
X186000000Y-89540000D03*
X186000000Y-92080000D03*
X186000000Y-94620000D03*
X186000000Y-97160000D03*
X186000000Y-99700000D03*
X186000000Y-102240000D03*
X186000000Y-104780000D03*
G36*
G01*
X181094520Y-89224200D02*
X182405480Y-89224200D01*
G75*
G02*
X182675800Y-89494520I0J-270320D01*
G01*
X182675800Y-90305480D01*
G75*
G02*
X182405480Y-90575800I-270320J0D01*
G01*
X181094520Y-90575800D01*
G75*
G02*
X180824200Y-90305480I0J270320D01*
G01*
X180824200Y-89494520D01*
G75*
G02*
X181094520Y-89224200I270320J0D01*
G01*
G37*
G36*
G01*
X181094520Y-86424200D02*
X182405480Y-86424200D01*
G75*
G02*
X182675800Y-86694520I0J-270320D01*
G01*
X182675800Y-87505480D01*
G75*
G02*
X182405480Y-87775800I-270320J0D01*
G01*
X181094520Y-87775800D01*
G75*
G02*
X180824200Y-87505480I0J270320D01*
G01*
X180824200Y-86694520D01*
G75*
G02*
X181094520Y-86424200I270320J0D01*
G01*
G37*
G36*
G01*
X158674200Y-97405480D02*
X158674200Y-96094520D01*
G75*
G02*
X158944520Y-95824200I270320J0D01*
G01*
X159755480Y-95824200D01*
G75*
G02*
X160025800Y-96094520I0J-270320D01*
G01*
X160025800Y-97405480D01*
G75*
G02*
X159755480Y-97675800I-270320J0D01*
G01*
X158944520Y-97675800D01*
G75*
G02*
X158674200Y-97405480I0J270320D01*
G01*
G37*
G36*
G01*
X161474200Y-97405480D02*
X161474200Y-96094520D01*
G75*
G02*
X161744520Y-95824200I270320J0D01*
G01*
X162555480Y-95824200D01*
G75*
G02*
X162825800Y-96094520I0J-270320D01*
G01*
X162825800Y-97405480D01*
G75*
G02*
X162555480Y-97675800I-270320J0D01*
G01*
X161744520Y-97675800D01*
G75*
G02*
X161474200Y-97405480I0J270320D01*
G01*
G37*
G36*
G01*
X147655480Y-67325800D02*
X146344520Y-67325800D01*
G75*
G02*
X146074200Y-67055480I0J270320D01*
G01*
X146074200Y-66244520D01*
G75*
G02*
X146344520Y-65974200I270320J0D01*
G01*
X147655480Y-65974200D01*
G75*
G02*
X147925800Y-66244520I0J-270320D01*
G01*
X147925800Y-67055480D01*
G75*
G02*
X147655480Y-67325800I-270320J0D01*
G01*
G37*
G36*
G01*
X147655480Y-64525800D02*
X146344520Y-64525800D01*
G75*
G02*
X146074200Y-64255480I0J270320D01*
G01*
X146074200Y-63444520D01*
G75*
G02*
X146344520Y-63174200I270320J0D01*
G01*
X147655480Y-63174200D01*
G75*
G02*
X147925800Y-63444520I0J-270320D01*
G01*
X147925800Y-64255480D01*
G75*
G02*
X147655480Y-64525800I-270320J0D01*
G01*
G37*
G36*
G01*
X169655480Y-99075800D02*
X168344520Y-99075800D01*
G75*
G02*
X168074200Y-98805480I0J270320D01*
G01*
X168074200Y-97994520D01*
G75*
G02*
X168344520Y-97724200I270320J0D01*
G01*
X169655480Y-97724200D01*
G75*
G02*
X169925800Y-97994520I0J-270320D01*
G01*
X169925800Y-98805480D01*
G75*
G02*
X169655480Y-99075800I-270320J0D01*
G01*
G37*
G36*
G01*
X169655480Y-96275800D02*
X168344520Y-96275800D01*
G75*
G02*
X168074200Y-96005480I0J270320D01*
G01*
X168074200Y-95194520D01*
G75*
G02*
X168344520Y-94924200I270320J0D01*
G01*
X169655480Y-94924200D01*
G75*
G02*
X169925800Y-95194520I0J-270320D01*
G01*
X169925800Y-96005480D01*
G75*
G02*
X169655480Y-96275800I-270320J0D01*
G01*
G37*
G36*
G01*
X158674200Y-94405480D02*
X158674200Y-93094520D01*
G75*
G02*
X158944520Y-92824200I270320J0D01*
G01*
X159755480Y-92824200D01*
G75*
G02*
X160025800Y-93094520I0J-270320D01*
G01*
X160025800Y-94405480D01*
G75*
G02*
X159755480Y-94675800I-270320J0D01*
G01*
X158944520Y-94675800D01*
G75*
G02*
X158674200Y-94405480I0J270320D01*
G01*
G37*
G36*
G01*
X161474200Y-94405480D02*
X161474200Y-93094520D01*
G75*
G02*
X161744520Y-92824200I270320J0D01*
G01*
X162555480Y-92824200D01*
G75*
G02*
X162825800Y-93094520I0J-270320D01*
G01*
X162825800Y-94405480D01*
G75*
G02*
X162555480Y-94675800I-270320J0D01*
G01*
X161744520Y-94675800D01*
G75*
G02*
X161474200Y-94405480I0J270320D01*
G01*
G37*
G36*
G01*
X162825800Y-99094520D02*
X162825800Y-100405480D01*
G75*
G02*
X162555480Y-100675800I-270320J0D01*
G01*
X161744520Y-100675800D01*
G75*
G02*
X161474200Y-100405480I0J270320D01*
G01*
X161474200Y-99094520D01*
G75*
G02*
X161744520Y-98824200I270320J0D01*
G01*
X162555480Y-98824200D01*
G75*
G02*
X162825800Y-99094520I0J-270320D01*
G01*
G37*
G36*
G01*
X160025800Y-99094520D02*
X160025800Y-100405480D01*
G75*
G02*
X159755480Y-100675800I-270320J0D01*
G01*
X158944520Y-100675800D01*
G75*
G02*
X158674200Y-100405480I0J270320D01*
G01*
X158674200Y-99094520D01*
G75*
G02*
X158944520Y-98824200I270320J0D01*
G01*
X159755480Y-98824200D01*
G75*
G02*
X160025800Y-99094520I0J-270320D01*
G01*
G37*
G36*
G01*
X160025800Y-102094520D02*
X160025800Y-103405480D01*
G75*
G02*
X159755480Y-103675800I-270320J0D01*
G01*
X158944520Y-103675800D01*
G75*
G02*
X158674200Y-103405480I0J270320D01*
G01*
X158674200Y-102094520D01*
G75*
G02*
X158944520Y-101824200I270320J0D01*
G01*
X159755480Y-101824200D01*
G75*
G02*
X160025800Y-102094520I0J-270320D01*
G01*
G37*
G36*
G01*
X162825800Y-102094520D02*
X162825800Y-103405480D01*
G75*
G02*
X162555480Y-103675800I-270320J0D01*
G01*
X161744520Y-103675800D01*
G75*
G02*
X161474200Y-103405480I0J270320D01*
G01*
X161474200Y-102094520D01*
G75*
G02*
X161744520Y-101824200I270320J0D01*
G01*
X162555480Y-101824200D01*
G75*
G02*
X162825800Y-102094520I0J-270320D01*
G01*
G37*
G36*
G01*
X143780480Y-64525800D02*
X142469520Y-64525800D01*
G75*
G02*
X142199200Y-64255480I0J270320D01*
G01*
X142199200Y-63444520D01*
G75*
G02*
X142469520Y-63174200I270320J0D01*
G01*
X143780480Y-63174200D01*
G75*
G02*
X144050800Y-63444520I0J-270320D01*
G01*
X144050800Y-64255480D01*
G75*
G02*
X143780480Y-64525800I-270320J0D01*
G01*
G37*
G36*
G01*
X143780480Y-67325800D02*
X142469520Y-67325800D01*
G75*
G02*
X142199200Y-67055480I0J270320D01*
G01*
X142199200Y-66244520D01*
G75*
G02*
X142469520Y-65974200I270320J0D01*
G01*
X143780480Y-65974200D01*
G75*
G02*
X144050800Y-66244520I0J-270320D01*
G01*
X144050800Y-67055480D01*
G75*
G02*
X143780480Y-67325800I-270320J0D01*
G01*
G37*
G36*
G01*
X166724200Y-89155480D02*
X166724200Y-87844520D01*
G75*
G02*
X166994520Y-87574200I270320J0D01*
G01*
X167805480Y-87574200D01*
G75*
G02*
X168075800Y-87844520I0J-270320D01*
G01*
X168075800Y-89155480D01*
G75*
G02*
X167805480Y-89425800I-270320J0D01*
G01*
X166994520Y-89425800D01*
G75*
G02*
X166724200Y-89155480I0J270320D01*
G01*
G37*
G36*
G01*
X163924200Y-89155480D02*
X163924200Y-87844520D01*
G75*
G02*
X164194520Y-87574200I270320J0D01*
G01*
X165005480Y-87574200D01*
G75*
G02*
X165275800Y-87844520I0J-270320D01*
G01*
X165275800Y-89155480D01*
G75*
G02*
X165005480Y-89425800I-270320J0D01*
G01*
X164194520Y-89425800D01*
G75*
G02*
X163924200Y-89155480I0J270320D01*
G01*
G37*
G36*
G01*
X174125000Y-95319200D02*
X174775000Y-95319200D01*
G75*
G02*
X174825800Y-95370000I0J-50800D01*
G01*
X174825800Y-96430000D01*
G75*
G02*
X174775000Y-96480800I-50800J0D01*
G01*
X174125000Y-96480800D01*
G75*
G02*
X174074200Y-96430000I0J50800D01*
G01*
X174074200Y-95370000D01*
G75*
G02*
X174125000Y-95319200I50800J0D01*
G01*
G37*
G36*
G01*
X173175000Y-95319200D02*
X173825000Y-95319200D01*
G75*
G02*
X173875800Y-95370000I0J-50800D01*
G01*
X173875800Y-96430000D01*
G75*
G02*
X173825000Y-96480800I-50800J0D01*
G01*
X173175000Y-96480800D01*
G75*
G02*
X173124200Y-96430000I0J50800D01*
G01*
X173124200Y-95370000D01*
G75*
G02*
X173175000Y-95319200I50800J0D01*
G01*
G37*
G36*
G01*
X172225000Y-95319200D02*
X172875000Y-95319200D01*
G75*
G02*
X172925800Y-95370000I0J-50800D01*
G01*
X172925800Y-96430000D01*
G75*
G02*
X172875000Y-96480800I-50800J0D01*
G01*
X172225000Y-96480800D01*
G75*
G02*
X172174200Y-96430000I0J50800D01*
G01*
X172174200Y-95370000D01*
G75*
G02*
X172225000Y-95319200I50800J0D01*
G01*
G37*
G36*
G01*
X172225000Y-97519200D02*
X172875000Y-97519200D01*
G75*
G02*
X172925800Y-97570000I0J-50800D01*
G01*
X172925800Y-98630000D01*
G75*
G02*
X172875000Y-98680800I-50800J0D01*
G01*
X172225000Y-98680800D01*
G75*
G02*
X172174200Y-98630000I0J50800D01*
G01*
X172174200Y-97570000D01*
G75*
G02*
X172225000Y-97519200I50800J0D01*
G01*
G37*
G36*
G01*
X174125000Y-97519200D02*
X174775000Y-97519200D01*
G75*
G02*
X174825800Y-97570000I0J-50800D01*
G01*
X174825800Y-98630000D01*
G75*
G02*
X174775000Y-98680800I-50800J0D01*
G01*
X174125000Y-98680800D01*
G75*
G02*
X174074200Y-98630000I0J50800D01*
G01*
X174074200Y-97570000D01*
G75*
G02*
X174125000Y-97519200I50800J0D01*
G01*
G37*
G36*
G01*
X152049200Y-106633867D02*
X152049200Y-103666133D01*
G75*
G02*
X152316133Y-103399200I266933J0D01*
G01*
X153383867Y-103399200D01*
G75*
G02*
X153650800Y-103666133I0J-266933D01*
G01*
X153650800Y-106633867D01*
G75*
G02*
X153383867Y-106900800I-266933J0D01*
G01*
X152316133Y-106900800D01*
G75*
G02*
X152049200Y-106633867I0J266933D01*
G01*
G37*
G36*
G01*
X145349200Y-106633867D02*
X145349200Y-103666133D01*
G75*
G02*
X145616133Y-103399200I266933J0D01*
G01*
X146683867Y-103399200D01*
G75*
G02*
X146950800Y-103666133I0J-266933D01*
G01*
X146950800Y-106633867D01*
G75*
G02*
X146683867Y-106900800I-266933J0D01*
G01*
X145616133Y-106900800D01*
G75*
G02*
X145349200Y-106633867I0J266933D01*
G01*
G37*
G36*
G01*
X149949200Y-100925400D02*
X149949200Y-97874600D01*
G75*
G02*
X150224600Y-97599200I275400J0D01*
G01*
X150775400Y-97599200D01*
G75*
G02*
X151050800Y-97874600I0J-275400D01*
G01*
X151050800Y-100925400D01*
G75*
G02*
X150775400Y-101200800I-275400J0D01*
G01*
X150224600Y-101200800D01*
G75*
G02*
X149949200Y-100925400I0J275400D01*
G01*
G37*
G36*
G01*
X147949200Y-100925400D02*
X147949200Y-97874600D01*
G75*
G02*
X148224600Y-97599200I275400J0D01*
G01*
X148775400Y-97599200D01*
G75*
G02*
X149050800Y-97874600I0J-275400D01*
G01*
X149050800Y-100925400D01*
G75*
G02*
X148775400Y-101200800I-275400J0D01*
G01*
X148224600Y-101200800D01*
G75*
G02*
X147949200Y-100925400I0J275400D01*
G01*
G37*
D13*
G36*
X174525932Y-103773200D02*
G01*
X174526200Y-103774200D01*
X174526200Y-105375800D01*
X174525200Y-105377532D01*
X174524200Y-105377800D01*
X174425800Y-105377800D01*
X174424068Y-105376800D01*
X174423800Y-105375800D01*
X174423800Y-103774200D01*
X174424800Y-103772468D01*
X174425800Y-103772200D01*
X174524200Y-103772200D01*
X174525932Y-103773200D01*
G37*
G36*
X173875932Y-103773200D02*
G01*
X173876200Y-103774200D01*
X173876200Y-105375800D01*
X173875200Y-105377532D01*
X173874200Y-105377800D01*
X173775800Y-105377800D01*
X173774068Y-105376800D01*
X173773800Y-105375800D01*
X173773800Y-103774200D01*
X173774800Y-103772468D01*
X173775800Y-103772200D01*
X173874200Y-103772200D01*
X173875932Y-103773200D01*
G37*
G36*
X172575932Y-103773200D02*
G01*
X172576200Y-103774200D01*
X172576200Y-105375800D01*
X172575200Y-105377532D01*
X172574200Y-105377800D01*
X172475800Y-105377800D01*
X172474068Y-105376800D01*
X172473800Y-105375800D01*
X172473800Y-103774200D01*
X172474800Y-103772468D01*
X172475800Y-103772200D01*
X172574200Y-103772200D01*
X172575932Y-103773200D01*
G37*
G36*
X173225932Y-103773200D02*
G01*
X173226200Y-103774200D01*
X173226200Y-105375800D01*
X173225200Y-105377532D01*
X173224200Y-105377800D01*
X173125800Y-105377800D01*
X173124068Y-105376800D01*
X173123800Y-105375800D01*
X173123800Y-103774200D01*
X173124800Y-103772468D01*
X173125800Y-103772200D01*
X173224200Y-103772200D01*
X173225932Y-103773200D01*
G37*
G36*
X174075932Y-95318200D02*
G01*
X174076200Y-95319200D01*
X174076200Y-96480800D01*
X174075200Y-96482532D01*
X174074200Y-96482800D01*
X173875800Y-96482800D01*
X173874068Y-96481800D01*
X173873800Y-96480800D01*
X173873800Y-95319200D01*
X173874800Y-95317468D01*
X173875800Y-95317200D01*
X174074200Y-95317200D01*
X174075932Y-95318200D01*
G37*
G36*
X173125932Y-95318200D02*
G01*
X173126200Y-95319200D01*
X173126200Y-96480800D01*
X173125200Y-96482532D01*
X173124200Y-96482800D01*
X172925800Y-96482800D01*
X172924068Y-96481800D01*
X172923800Y-96480800D01*
X172923800Y-95319200D01*
X172924800Y-95317468D01*
X172925800Y-95317200D01*
X173124200Y-95317200D01*
X173125932Y-95318200D01*
G37*
G36*
X176375932Y-89018200D02*
G01*
X176376200Y-89019200D01*
X176376200Y-90180800D01*
X176375200Y-90182532D01*
X176374200Y-90182800D01*
X176175800Y-90182800D01*
X176174068Y-90181800D01*
X176173800Y-90180800D01*
X176173800Y-89019200D01*
X176174800Y-89017468D01*
X176175800Y-89017200D01*
X176374200Y-89017200D01*
X176375932Y-89018200D01*
G37*
G36*
X177325932Y-89018200D02*
G01*
X177326200Y-89019200D01*
X177326200Y-90180800D01*
X177325200Y-90182532D01*
X177324200Y-90182800D01*
X177125800Y-90182800D01*
X177124068Y-90181800D01*
X177123800Y-90180800D01*
X177123800Y-89019200D01*
X177124800Y-89017468D01*
X177125800Y-89017200D01*
X177324200Y-89017200D01*
X177325932Y-89018200D01*
G37*
G36*
X176352532Y-77374800D02*
G01*
X176352800Y-77375800D01*
X176352800Y-77574200D01*
X176351800Y-77575932D01*
X176350800Y-77576200D01*
X175029200Y-77576200D01*
X175027468Y-77575200D01*
X175027200Y-77574200D01*
X175027200Y-77375800D01*
X175028200Y-77374068D01*
X175029200Y-77373800D01*
X176350800Y-77373800D01*
X176352532Y-77374800D01*
G37*
G36*
X178972532Y-77374800D02*
G01*
X178972800Y-77375800D01*
X178972800Y-77574200D01*
X178971800Y-77575932D01*
X178970800Y-77576200D01*
X177649200Y-77576200D01*
X177647468Y-77575200D01*
X177647200Y-77574200D01*
X177647200Y-77375800D01*
X177648200Y-77374068D01*
X177649200Y-77373800D01*
X178970800Y-77373800D01*
X178972532Y-77374800D01*
G37*
G36*
X178972532Y-76424800D02*
G01*
X178972800Y-76425800D01*
X178972800Y-76624200D01*
X178971800Y-76625932D01*
X178970800Y-76626200D01*
X177649200Y-76626200D01*
X177647468Y-76625200D01*
X177647200Y-76624200D01*
X177647200Y-76425800D01*
X177648200Y-76424068D01*
X177649200Y-76423800D01*
X178970800Y-76423800D01*
X178972532Y-76424800D01*
G37*
G36*
X176352532Y-76424800D02*
G01*
X176352800Y-76425800D01*
X176352800Y-76624200D01*
X176351800Y-76625932D01*
X176350800Y-76626200D01*
X175029200Y-76626200D01*
X175027468Y-76625200D01*
X175027200Y-76624200D01*
X175027200Y-76425800D01*
X175028200Y-76424068D01*
X175029200Y-76423800D01*
X176350800Y-76423800D01*
X176352532Y-76424800D01*
G37*
M02*
