M48
; DRILL file {KiCad (5.1.9)-1} date 01/25/21 13:58:17
; FORMAT={-:-/ absolute / inch / decimal}
; #@! TF.CreationDate,2021-01-25T13:58:17-05:00
; #@! TF.GenerationSoftware,Kicad,Pcbnew,(5.1.9)-1
; #@! TF.FileFunction,Plated,1,2,PTH
FMAT,2
INCH
T1C0.0118
T2C0.0157
T3C0.0197
T4C0.0394
%
G90
G05
T1
X5.6299Y-2.687
X5.7579Y-2.7165
X5.7579Y-2.7756
X5.7677Y-3.6811
X5.8169Y-3.3169
X5.8661Y-3.7303
X5.876Y-2.5
X5.8858Y-4.1043
X5.9941Y-3.563
X6.1319Y-3.4055
X6.1614Y-4.1535
X6.1713Y-2.815
X6.1811Y-3.563
X6.2598Y-2.9134
X6.2598Y-3.5039
X6.2992Y-3.4055
X6.4075Y-3.4843
X6.5354Y-3.6811
X6.5453Y-3.9567
X6.5453Y-4.0551
X6.5453Y-4.1535
X6.5748Y-2.4409
X6.5846Y-2.628
X6.5846Y-2.6772
X6.6732Y-3.376
X6.752Y-3.1988
X6.7618Y-3.1299
X6.7717Y-3.2677
X6.8406Y-2.8051
X6.8406Y-3.1299
X6.8602Y-3.002
X6.8701Y-3.3071
X6.8701Y-3.7205
X7.0079Y-3.3169
X7.0374Y-4.0551
X7.0472Y-4.1831
X7.0866Y-3.6713
X7.2047Y-3.9665
X7.2047Y-4.0551
X7.2047Y-4.1535
X7.2146Y-3.1693
X7.2146Y-3.2776
X7.2244Y-2.9035
X7.3228Y-3.0315
T2
X5.9154Y-2.3917
X5.9154Y-2.6181
X5.9154Y-3.0709
X6.0827Y-3.0709
X6.2008Y-3.8681
X6.5748Y-3.7697
X6.5945Y-3.0709
X6.5945Y-3.3957
X6.9291Y-2.815
X6.9587Y-3.6024
X7.1358Y-2.9331
T4
X5.6969Y-2.8882
X5.6969Y-2.9882
X5.6969Y-3.0882
X5.6969Y-3.1882
X5.6969Y-3.2882
X5.6969Y-3.3882
X7.3228Y-3.4252
X7.3228Y-3.5252
X7.3228Y-3.6252
X7.3228Y-3.7252
X7.3228Y-3.8252
X7.3228Y-3.9252
X7.3228Y-4.0252
X7.3228Y-4.1252
T3
G00X6.7343Y-4.127
M15
G01X6.7067Y-4.127
M16
G05
G00X6.8524Y-4.0423
M15
G01X6.8091Y-4.0423
M16
G05
G00X6.9547Y-4.127
M15
G01X6.9272Y-4.127
M16
G05
T0
M30
