G04 #@! TF.GenerationSoftware,KiCad,Pcbnew,(5.1.0)-1*
G04 #@! TF.CreationDate,2019-04-15T21:45:38-04:00*
G04 #@! TF.ProjectId,eWeatherStation,65576561-7468-4657-9253-746174696f6e,rev?*
G04 #@! TF.SameCoordinates,Original*
G04 #@! TF.FileFunction,Paste,Top*
G04 #@! TF.FilePolarity,Positive*
%FSLAX46Y46*%
G04 Gerber Fmt 4.6, Leading zero omitted, Abs format (unit mm)*
G04 Created by KiCad (PCBNEW (5.1.0)-1) date 2019-04-15 21:45:38*
%MOMM*%
%LPD*%
G04 APERTURE LIST*
%ADD10C,0.100000*%
%ADD11R,1.220000X0.650000*%
%ADD12R,5.000000X5.000000*%
%ADD13R,2.000000X0.900000*%
%ADD14R,0.900000X2.000000*%
%ADD15C,1.250000*%
%ADD16R,0.650000X1.060000*%
%ADD17R,1.270000X3.180000*%
%ADD18R,1.000000X2.500000*%
%ADD19R,2.000000X4.000000*%
%ADD20C,0.750000*%
%ADD21R,1.060000X0.650000*%
%ADD22R,2.000000X1.350000*%
%ADD23R,0.700000X1.825000*%
%ADD24R,1.500000X2.000000*%
%ADD25R,1.650000X0.400000*%
%ADD26R,2.500000X1.430000*%
%ADD27R,1.050000X0.650000*%
%ADD28C,0.600000*%
%ADD29C,0.400000*%
%ADD30C,1.000000*%
%ADD31C,1.500000*%
G04 APERTURE END LIST*
D10*
G36*
X129805000Y-95840000D02*
G01*
X128535000Y-95840000D01*
X128535000Y-92660000D01*
X129805000Y-92660000D01*
X129805000Y-95840000D01*
G37*
G36*
X132345000Y-95840000D02*
G01*
X131075000Y-95840000D01*
X131075000Y-92660000D01*
X132345000Y-92660000D01*
X132345000Y-95840000D01*
G37*
G36*
X134885000Y-95840000D02*
G01*
X133615000Y-95840000D01*
X133615000Y-92660000D01*
X134885000Y-92660000D01*
X134885000Y-95840000D01*
G37*
D11*
X175690000Y-77950000D03*
X175690000Y-77000000D03*
X175690000Y-76050000D03*
X178310000Y-76050000D03*
X178310000Y-77000000D03*
X178310000Y-77950000D03*
D12*
X160000000Y-68145000D03*
D13*
X152500000Y-60645000D03*
X152500000Y-61915000D03*
X152500000Y-63185000D03*
X152500000Y-64455000D03*
X152500000Y-65725000D03*
X152500000Y-66995000D03*
X152500000Y-68265000D03*
X152500000Y-69535000D03*
X152500000Y-70805000D03*
X152500000Y-72075000D03*
X152500000Y-73345000D03*
X152500000Y-74615000D03*
X152500000Y-75885000D03*
X152500000Y-77155000D03*
D14*
X155285000Y-78155000D03*
X156555000Y-78155000D03*
X157825000Y-78155000D03*
X159095000Y-78155000D03*
X160365000Y-78155000D03*
X161635000Y-78155000D03*
X162905000Y-78155000D03*
X164175000Y-78155000D03*
X165445000Y-78155000D03*
X166715000Y-78155000D03*
D13*
X169500000Y-77155000D03*
X169500000Y-75885000D03*
X169500000Y-74615000D03*
X169500000Y-73345000D03*
X169500000Y-72075000D03*
X169500000Y-70805000D03*
X169500000Y-69535000D03*
X169500000Y-68265000D03*
X169500000Y-66995000D03*
X169500000Y-65725000D03*
X169500000Y-64455000D03*
X169500000Y-63185000D03*
X169500000Y-61915000D03*
X169500000Y-60645000D03*
D10*
G36*
X175999504Y-80626204D02*
G01*
X176023773Y-80629804D01*
X176047571Y-80635765D01*
X176070671Y-80644030D01*
X176092849Y-80654520D01*
X176113893Y-80667133D01*
X176133598Y-80681747D01*
X176151777Y-80698223D01*
X176168253Y-80716402D01*
X176182867Y-80736107D01*
X176195480Y-80757151D01*
X176205970Y-80779329D01*
X176214235Y-80802429D01*
X176220196Y-80826227D01*
X176223796Y-80850496D01*
X176225000Y-80875000D01*
X176225000Y-82125000D01*
X176223796Y-82149504D01*
X176220196Y-82173773D01*
X176214235Y-82197571D01*
X176205970Y-82220671D01*
X176195480Y-82242849D01*
X176182867Y-82263893D01*
X176168253Y-82283598D01*
X176151777Y-82301777D01*
X176133598Y-82318253D01*
X176113893Y-82332867D01*
X176092849Y-82345480D01*
X176070671Y-82355970D01*
X176047571Y-82364235D01*
X176023773Y-82370196D01*
X175999504Y-82373796D01*
X175975000Y-82375000D01*
X175225000Y-82375000D01*
X175200496Y-82373796D01*
X175176227Y-82370196D01*
X175152429Y-82364235D01*
X175129329Y-82355970D01*
X175107151Y-82345480D01*
X175086107Y-82332867D01*
X175066402Y-82318253D01*
X175048223Y-82301777D01*
X175031747Y-82283598D01*
X175017133Y-82263893D01*
X175004520Y-82242849D01*
X174994030Y-82220671D01*
X174985765Y-82197571D01*
X174979804Y-82173773D01*
X174976204Y-82149504D01*
X174975000Y-82125000D01*
X174975000Y-80875000D01*
X174976204Y-80850496D01*
X174979804Y-80826227D01*
X174985765Y-80802429D01*
X174994030Y-80779329D01*
X175004520Y-80757151D01*
X175017133Y-80736107D01*
X175031747Y-80716402D01*
X175048223Y-80698223D01*
X175066402Y-80681747D01*
X175086107Y-80667133D01*
X175107151Y-80654520D01*
X175129329Y-80644030D01*
X175152429Y-80635765D01*
X175176227Y-80629804D01*
X175200496Y-80626204D01*
X175225000Y-80625000D01*
X175975000Y-80625000D01*
X175999504Y-80626204D01*
X175999504Y-80626204D01*
G37*
D15*
X175600000Y-81500000D03*
D10*
G36*
X178799504Y-80626204D02*
G01*
X178823773Y-80629804D01*
X178847571Y-80635765D01*
X178870671Y-80644030D01*
X178892849Y-80654520D01*
X178913893Y-80667133D01*
X178933598Y-80681747D01*
X178951777Y-80698223D01*
X178968253Y-80716402D01*
X178982867Y-80736107D01*
X178995480Y-80757151D01*
X179005970Y-80779329D01*
X179014235Y-80802429D01*
X179020196Y-80826227D01*
X179023796Y-80850496D01*
X179025000Y-80875000D01*
X179025000Y-82125000D01*
X179023796Y-82149504D01*
X179020196Y-82173773D01*
X179014235Y-82197571D01*
X179005970Y-82220671D01*
X178995480Y-82242849D01*
X178982867Y-82263893D01*
X178968253Y-82283598D01*
X178951777Y-82301777D01*
X178933598Y-82318253D01*
X178913893Y-82332867D01*
X178892849Y-82345480D01*
X178870671Y-82355970D01*
X178847571Y-82364235D01*
X178823773Y-82370196D01*
X178799504Y-82373796D01*
X178775000Y-82375000D01*
X178025000Y-82375000D01*
X178000496Y-82373796D01*
X177976227Y-82370196D01*
X177952429Y-82364235D01*
X177929329Y-82355970D01*
X177907151Y-82345480D01*
X177886107Y-82332867D01*
X177866402Y-82318253D01*
X177848223Y-82301777D01*
X177831747Y-82283598D01*
X177817133Y-82263893D01*
X177804520Y-82242849D01*
X177794030Y-82220671D01*
X177785765Y-82197571D01*
X177779804Y-82173773D01*
X177776204Y-82149504D01*
X177775000Y-82125000D01*
X177775000Y-80875000D01*
X177776204Y-80850496D01*
X177779804Y-80826227D01*
X177785765Y-80802429D01*
X177794030Y-80779329D01*
X177804520Y-80757151D01*
X177817133Y-80736107D01*
X177831747Y-80716402D01*
X177848223Y-80698223D01*
X177866402Y-80681747D01*
X177886107Y-80667133D01*
X177907151Y-80654520D01*
X177929329Y-80644030D01*
X177952429Y-80635765D01*
X177976227Y-80629804D01*
X178000496Y-80626204D01*
X178025000Y-80625000D01*
X178775000Y-80625000D01*
X178799504Y-80626204D01*
X178799504Y-80626204D01*
G37*
D15*
X178400000Y-81500000D03*
D10*
G36*
X178799504Y-72626204D02*
G01*
X178823773Y-72629804D01*
X178847571Y-72635765D01*
X178870671Y-72644030D01*
X178892849Y-72654520D01*
X178913893Y-72667133D01*
X178933598Y-72681747D01*
X178951777Y-72698223D01*
X178968253Y-72716402D01*
X178982867Y-72736107D01*
X178995480Y-72757151D01*
X179005970Y-72779329D01*
X179014235Y-72802429D01*
X179020196Y-72826227D01*
X179023796Y-72850496D01*
X179025000Y-72875000D01*
X179025000Y-74125000D01*
X179023796Y-74149504D01*
X179020196Y-74173773D01*
X179014235Y-74197571D01*
X179005970Y-74220671D01*
X178995480Y-74242849D01*
X178982867Y-74263893D01*
X178968253Y-74283598D01*
X178951777Y-74301777D01*
X178933598Y-74318253D01*
X178913893Y-74332867D01*
X178892849Y-74345480D01*
X178870671Y-74355970D01*
X178847571Y-74364235D01*
X178823773Y-74370196D01*
X178799504Y-74373796D01*
X178775000Y-74375000D01*
X178025000Y-74375000D01*
X178000496Y-74373796D01*
X177976227Y-74370196D01*
X177952429Y-74364235D01*
X177929329Y-74355970D01*
X177907151Y-74345480D01*
X177886107Y-74332867D01*
X177866402Y-74318253D01*
X177848223Y-74301777D01*
X177831747Y-74283598D01*
X177817133Y-74263893D01*
X177804520Y-74242849D01*
X177794030Y-74220671D01*
X177785765Y-74197571D01*
X177779804Y-74173773D01*
X177776204Y-74149504D01*
X177775000Y-74125000D01*
X177775000Y-72875000D01*
X177776204Y-72850496D01*
X177779804Y-72826227D01*
X177785765Y-72802429D01*
X177794030Y-72779329D01*
X177804520Y-72757151D01*
X177817133Y-72736107D01*
X177831747Y-72716402D01*
X177848223Y-72698223D01*
X177866402Y-72681747D01*
X177886107Y-72667133D01*
X177907151Y-72654520D01*
X177929329Y-72644030D01*
X177952429Y-72635765D01*
X177976227Y-72629804D01*
X178000496Y-72626204D01*
X178025000Y-72625000D01*
X178775000Y-72625000D01*
X178799504Y-72626204D01*
X178799504Y-72626204D01*
G37*
D15*
X178400000Y-73500000D03*
D10*
G36*
X175999504Y-72626204D02*
G01*
X176023773Y-72629804D01*
X176047571Y-72635765D01*
X176070671Y-72644030D01*
X176092849Y-72654520D01*
X176113893Y-72667133D01*
X176133598Y-72681747D01*
X176151777Y-72698223D01*
X176168253Y-72716402D01*
X176182867Y-72736107D01*
X176195480Y-72757151D01*
X176205970Y-72779329D01*
X176214235Y-72802429D01*
X176220196Y-72826227D01*
X176223796Y-72850496D01*
X176225000Y-72875000D01*
X176225000Y-74125000D01*
X176223796Y-74149504D01*
X176220196Y-74173773D01*
X176214235Y-74197571D01*
X176205970Y-74220671D01*
X176195480Y-74242849D01*
X176182867Y-74263893D01*
X176168253Y-74283598D01*
X176151777Y-74301777D01*
X176133598Y-74318253D01*
X176113893Y-74332867D01*
X176092849Y-74345480D01*
X176070671Y-74355970D01*
X176047571Y-74364235D01*
X176023773Y-74370196D01*
X175999504Y-74373796D01*
X175975000Y-74375000D01*
X175225000Y-74375000D01*
X175200496Y-74373796D01*
X175176227Y-74370196D01*
X175152429Y-74364235D01*
X175129329Y-74355970D01*
X175107151Y-74345480D01*
X175086107Y-74332867D01*
X175066402Y-74318253D01*
X175048223Y-74301777D01*
X175031747Y-74283598D01*
X175017133Y-74263893D01*
X175004520Y-74242849D01*
X174994030Y-74220671D01*
X174985765Y-74197571D01*
X174979804Y-74173773D01*
X174976204Y-74149504D01*
X174975000Y-74125000D01*
X174975000Y-72875000D01*
X174976204Y-72850496D01*
X174979804Y-72826227D01*
X174985765Y-72802429D01*
X174994030Y-72779329D01*
X175004520Y-72757151D01*
X175017133Y-72736107D01*
X175031747Y-72716402D01*
X175048223Y-72698223D01*
X175066402Y-72681747D01*
X175086107Y-72667133D01*
X175107151Y-72654520D01*
X175129329Y-72644030D01*
X175152429Y-72635765D01*
X175176227Y-72629804D01*
X175200496Y-72626204D01*
X175225000Y-72625000D01*
X175975000Y-72625000D01*
X175999504Y-72626204D01*
X175999504Y-72626204D01*
G37*
D15*
X175600000Y-73500000D03*
D10*
G36*
X177899504Y-98526204D02*
G01*
X177923773Y-98529804D01*
X177947571Y-98535765D01*
X177970671Y-98544030D01*
X177992849Y-98554520D01*
X178013893Y-98567133D01*
X178033598Y-98581747D01*
X178051777Y-98598223D01*
X178068253Y-98616402D01*
X178082867Y-98636107D01*
X178095480Y-98657151D01*
X178105970Y-98679329D01*
X178114235Y-98702429D01*
X178120196Y-98726227D01*
X178123796Y-98750496D01*
X178125000Y-98775000D01*
X178125000Y-99525000D01*
X178123796Y-99549504D01*
X178120196Y-99573773D01*
X178114235Y-99597571D01*
X178105970Y-99620671D01*
X178095480Y-99642849D01*
X178082867Y-99663893D01*
X178068253Y-99683598D01*
X178051777Y-99701777D01*
X178033598Y-99718253D01*
X178013893Y-99732867D01*
X177992849Y-99745480D01*
X177970671Y-99755970D01*
X177947571Y-99764235D01*
X177923773Y-99770196D01*
X177899504Y-99773796D01*
X177875000Y-99775000D01*
X176625000Y-99775000D01*
X176600496Y-99773796D01*
X176576227Y-99770196D01*
X176552429Y-99764235D01*
X176529329Y-99755970D01*
X176507151Y-99745480D01*
X176486107Y-99732867D01*
X176466402Y-99718253D01*
X176448223Y-99701777D01*
X176431747Y-99683598D01*
X176417133Y-99663893D01*
X176404520Y-99642849D01*
X176394030Y-99620671D01*
X176385765Y-99597571D01*
X176379804Y-99573773D01*
X176376204Y-99549504D01*
X176375000Y-99525000D01*
X176375000Y-98775000D01*
X176376204Y-98750496D01*
X176379804Y-98726227D01*
X176385765Y-98702429D01*
X176394030Y-98679329D01*
X176404520Y-98657151D01*
X176417133Y-98636107D01*
X176431747Y-98616402D01*
X176448223Y-98598223D01*
X176466402Y-98581747D01*
X176486107Y-98567133D01*
X176507151Y-98554520D01*
X176529329Y-98544030D01*
X176552429Y-98535765D01*
X176576227Y-98529804D01*
X176600496Y-98526204D01*
X176625000Y-98525000D01*
X177875000Y-98525000D01*
X177899504Y-98526204D01*
X177899504Y-98526204D01*
G37*
D15*
X177250000Y-99150000D03*
D10*
G36*
X177899504Y-95726204D02*
G01*
X177923773Y-95729804D01*
X177947571Y-95735765D01*
X177970671Y-95744030D01*
X177992849Y-95754520D01*
X178013893Y-95767133D01*
X178033598Y-95781747D01*
X178051777Y-95798223D01*
X178068253Y-95816402D01*
X178082867Y-95836107D01*
X178095480Y-95857151D01*
X178105970Y-95879329D01*
X178114235Y-95902429D01*
X178120196Y-95926227D01*
X178123796Y-95950496D01*
X178125000Y-95975000D01*
X178125000Y-96725000D01*
X178123796Y-96749504D01*
X178120196Y-96773773D01*
X178114235Y-96797571D01*
X178105970Y-96820671D01*
X178095480Y-96842849D01*
X178082867Y-96863893D01*
X178068253Y-96883598D01*
X178051777Y-96901777D01*
X178033598Y-96918253D01*
X178013893Y-96932867D01*
X177992849Y-96945480D01*
X177970671Y-96955970D01*
X177947571Y-96964235D01*
X177923773Y-96970196D01*
X177899504Y-96973796D01*
X177875000Y-96975000D01*
X176625000Y-96975000D01*
X176600496Y-96973796D01*
X176576227Y-96970196D01*
X176552429Y-96964235D01*
X176529329Y-96955970D01*
X176507151Y-96945480D01*
X176486107Y-96932867D01*
X176466402Y-96918253D01*
X176448223Y-96901777D01*
X176431747Y-96883598D01*
X176417133Y-96863893D01*
X176404520Y-96842849D01*
X176394030Y-96820671D01*
X176385765Y-96797571D01*
X176379804Y-96773773D01*
X176376204Y-96749504D01*
X176375000Y-96725000D01*
X176375000Y-95975000D01*
X176376204Y-95950496D01*
X176379804Y-95926227D01*
X176385765Y-95902429D01*
X176394030Y-95879329D01*
X176404520Y-95857151D01*
X176417133Y-95836107D01*
X176431747Y-95816402D01*
X176448223Y-95798223D01*
X176466402Y-95781747D01*
X176486107Y-95767133D01*
X176507151Y-95754520D01*
X176529329Y-95744030D01*
X176552429Y-95735765D01*
X176576227Y-95729804D01*
X176600496Y-95726204D01*
X176625000Y-95725000D01*
X177875000Y-95725000D01*
X177899504Y-95726204D01*
X177899504Y-95726204D01*
G37*
D15*
X177250000Y-96350000D03*
D16*
X173550000Y-101900000D03*
X175450000Y-101900000D03*
X175450000Y-104100000D03*
X174500000Y-104100000D03*
X173550000Y-104100000D03*
D17*
X129170000Y-94250000D03*
X131710000Y-94250000D03*
X134250000Y-94250000D03*
D10*
G36*
X173899504Y-95726204D02*
G01*
X173923773Y-95729804D01*
X173947571Y-95735765D01*
X173970671Y-95744030D01*
X173992849Y-95754520D01*
X174013893Y-95767133D01*
X174033598Y-95781747D01*
X174051777Y-95798223D01*
X174068253Y-95816402D01*
X174082867Y-95836107D01*
X174095480Y-95857151D01*
X174105970Y-95879329D01*
X174114235Y-95902429D01*
X174120196Y-95926227D01*
X174123796Y-95950496D01*
X174125000Y-95975000D01*
X174125000Y-96725000D01*
X174123796Y-96749504D01*
X174120196Y-96773773D01*
X174114235Y-96797571D01*
X174105970Y-96820671D01*
X174095480Y-96842849D01*
X174082867Y-96863893D01*
X174068253Y-96883598D01*
X174051777Y-96901777D01*
X174033598Y-96918253D01*
X174013893Y-96932867D01*
X173992849Y-96945480D01*
X173970671Y-96955970D01*
X173947571Y-96964235D01*
X173923773Y-96970196D01*
X173899504Y-96973796D01*
X173875000Y-96975000D01*
X172625000Y-96975000D01*
X172600496Y-96973796D01*
X172576227Y-96970196D01*
X172552429Y-96964235D01*
X172529329Y-96955970D01*
X172507151Y-96945480D01*
X172486107Y-96932867D01*
X172466402Y-96918253D01*
X172448223Y-96901777D01*
X172431747Y-96883598D01*
X172417133Y-96863893D01*
X172404520Y-96842849D01*
X172394030Y-96820671D01*
X172385765Y-96797571D01*
X172379804Y-96773773D01*
X172376204Y-96749504D01*
X172375000Y-96725000D01*
X172375000Y-95975000D01*
X172376204Y-95950496D01*
X172379804Y-95926227D01*
X172385765Y-95902429D01*
X172394030Y-95879329D01*
X172404520Y-95857151D01*
X172417133Y-95836107D01*
X172431747Y-95816402D01*
X172448223Y-95798223D01*
X172466402Y-95781747D01*
X172486107Y-95767133D01*
X172507151Y-95754520D01*
X172529329Y-95744030D01*
X172552429Y-95735765D01*
X172576227Y-95729804D01*
X172600496Y-95726204D01*
X172625000Y-95725000D01*
X173875000Y-95725000D01*
X173899504Y-95726204D01*
X173899504Y-95726204D01*
G37*
D15*
X173250000Y-96350000D03*
D10*
G36*
X173899504Y-98526204D02*
G01*
X173923773Y-98529804D01*
X173947571Y-98535765D01*
X173970671Y-98544030D01*
X173992849Y-98554520D01*
X174013893Y-98567133D01*
X174033598Y-98581747D01*
X174051777Y-98598223D01*
X174068253Y-98616402D01*
X174082867Y-98636107D01*
X174095480Y-98657151D01*
X174105970Y-98679329D01*
X174114235Y-98702429D01*
X174120196Y-98726227D01*
X174123796Y-98750496D01*
X174125000Y-98775000D01*
X174125000Y-99525000D01*
X174123796Y-99549504D01*
X174120196Y-99573773D01*
X174114235Y-99597571D01*
X174105970Y-99620671D01*
X174095480Y-99642849D01*
X174082867Y-99663893D01*
X174068253Y-99683598D01*
X174051777Y-99701777D01*
X174033598Y-99718253D01*
X174013893Y-99732867D01*
X173992849Y-99745480D01*
X173970671Y-99755970D01*
X173947571Y-99764235D01*
X173923773Y-99770196D01*
X173899504Y-99773796D01*
X173875000Y-99775000D01*
X172625000Y-99775000D01*
X172600496Y-99773796D01*
X172576227Y-99770196D01*
X172552429Y-99764235D01*
X172529329Y-99755970D01*
X172507151Y-99745480D01*
X172486107Y-99732867D01*
X172466402Y-99718253D01*
X172448223Y-99701777D01*
X172431747Y-99683598D01*
X172417133Y-99663893D01*
X172404520Y-99642849D01*
X172394030Y-99620671D01*
X172385765Y-99597571D01*
X172379804Y-99573773D01*
X172376204Y-99549504D01*
X172375000Y-99525000D01*
X172375000Y-98775000D01*
X172376204Y-98750496D01*
X172379804Y-98726227D01*
X172385765Y-98702429D01*
X172394030Y-98679329D01*
X172404520Y-98657151D01*
X172417133Y-98636107D01*
X172431747Y-98616402D01*
X172448223Y-98598223D01*
X172466402Y-98581747D01*
X172486107Y-98567133D01*
X172507151Y-98554520D01*
X172529329Y-98544030D01*
X172552429Y-98535765D01*
X172576227Y-98529804D01*
X172600496Y-98526204D01*
X172625000Y-98525000D01*
X173875000Y-98525000D01*
X173899504Y-98526204D01*
X173899504Y-98526204D01*
G37*
D15*
X173250000Y-99150000D03*
D18*
X154500000Y-84520000D03*
X153000000Y-84520000D03*
X151500000Y-84520000D03*
D19*
X153000000Y-88480000D03*
D20*
X153000000Y-86130000D03*
D10*
G36*
X152000000Y-86505000D02*
G01*
X152500000Y-85755000D01*
X153500000Y-85755000D01*
X154000000Y-86505000D01*
X152000000Y-86505000D01*
X152000000Y-86505000D01*
G37*
G36*
X164999504Y-91626204D02*
G01*
X165023773Y-91629804D01*
X165047571Y-91635765D01*
X165070671Y-91644030D01*
X165092849Y-91654520D01*
X165113893Y-91667133D01*
X165133598Y-91681747D01*
X165151777Y-91698223D01*
X165168253Y-91716402D01*
X165182867Y-91736107D01*
X165195480Y-91757151D01*
X165205970Y-91779329D01*
X165214235Y-91802429D01*
X165220196Y-91826227D01*
X165223796Y-91850496D01*
X165225000Y-91875000D01*
X165225000Y-93125000D01*
X165223796Y-93149504D01*
X165220196Y-93173773D01*
X165214235Y-93197571D01*
X165205970Y-93220671D01*
X165195480Y-93242849D01*
X165182867Y-93263893D01*
X165168253Y-93283598D01*
X165151777Y-93301777D01*
X165133598Y-93318253D01*
X165113893Y-93332867D01*
X165092849Y-93345480D01*
X165070671Y-93355970D01*
X165047571Y-93364235D01*
X165023773Y-93370196D01*
X164999504Y-93373796D01*
X164975000Y-93375000D01*
X164225000Y-93375000D01*
X164200496Y-93373796D01*
X164176227Y-93370196D01*
X164152429Y-93364235D01*
X164129329Y-93355970D01*
X164107151Y-93345480D01*
X164086107Y-93332867D01*
X164066402Y-93318253D01*
X164048223Y-93301777D01*
X164031747Y-93283598D01*
X164017133Y-93263893D01*
X164004520Y-93242849D01*
X163994030Y-93220671D01*
X163985765Y-93197571D01*
X163979804Y-93173773D01*
X163976204Y-93149504D01*
X163975000Y-93125000D01*
X163975000Y-91875000D01*
X163976204Y-91850496D01*
X163979804Y-91826227D01*
X163985765Y-91802429D01*
X163994030Y-91779329D01*
X164004520Y-91757151D01*
X164017133Y-91736107D01*
X164031747Y-91716402D01*
X164048223Y-91698223D01*
X164066402Y-91681747D01*
X164086107Y-91667133D01*
X164107151Y-91654520D01*
X164129329Y-91644030D01*
X164152429Y-91635765D01*
X164176227Y-91629804D01*
X164200496Y-91626204D01*
X164225000Y-91625000D01*
X164975000Y-91625000D01*
X164999504Y-91626204D01*
X164999504Y-91626204D01*
G37*
D15*
X164600000Y-92500000D03*
D10*
G36*
X167799504Y-91626204D02*
G01*
X167823773Y-91629804D01*
X167847571Y-91635765D01*
X167870671Y-91644030D01*
X167892849Y-91654520D01*
X167913893Y-91667133D01*
X167933598Y-91681747D01*
X167951777Y-91698223D01*
X167968253Y-91716402D01*
X167982867Y-91736107D01*
X167995480Y-91757151D01*
X168005970Y-91779329D01*
X168014235Y-91802429D01*
X168020196Y-91826227D01*
X168023796Y-91850496D01*
X168025000Y-91875000D01*
X168025000Y-93125000D01*
X168023796Y-93149504D01*
X168020196Y-93173773D01*
X168014235Y-93197571D01*
X168005970Y-93220671D01*
X167995480Y-93242849D01*
X167982867Y-93263893D01*
X167968253Y-93283598D01*
X167951777Y-93301777D01*
X167933598Y-93318253D01*
X167913893Y-93332867D01*
X167892849Y-93345480D01*
X167870671Y-93355970D01*
X167847571Y-93364235D01*
X167823773Y-93370196D01*
X167799504Y-93373796D01*
X167775000Y-93375000D01*
X167025000Y-93375000D01*
X167000496Y-93373796D01*
X166976227Y-93370196D01*
X166952429Y-93364235D01*
X166929329Y-93355970D01*
X166907151Y-93345480D01*
X166886107Y-93332867D01*
X166866402Y-93318253D01*
X166848223Y-93301777D01*
X166831747Y-93283598D01*
X166817133Y-93263893D01*
X166804520Y-93242849D01*
X166794030Y-93220671D01*
X166785765Y-93197571D01*
X166779804Y-93173773D01*
X166776204Y-93149504D01*
X166775000Y-93125000D01*
X166775000Y-91875000D01*
X166776204Y-91850496D01*
X166779804Y-91826227D01*
X166785765Y-91802429D01*
X166794030Y-91779329D01*
X166804520Y-91757151D01*
X166817133Y-91736107D01*
X166831747Y-91716402D01*
X166848223Y-91698223D01*
X166866402Y-91681747D01*
X166886107Y-91667133D01*
X166907151Y-91654520D01*
X166929329Y-91644030D01*
X166952429Y-91635765D01*
X166976227Y-91629804D01*
X167000496Y-91626204D01*
X167025000Y-91625000D01*
X167775000Y-91625000D01*
X167799504Y-91626204D01*
X167799504Y-91626204D01*
G37*
D15*
X167400000Y-92500000D03*
D10*
G36*
X168649504Y-104526204D02*
G01*
X168673773Y-104529804D01*
X168697571Y-104535765D01*
X168720671Y-104544030D01*
X168742849Y-104554520D01*
X168763893Y-104567133D01*
X168783598Y-104581747D01*
X168801777Y-104598223D01*
X168818253Y-104616402D01*
X168832867Y-104636107D01*
X168845480Y-104657151D01*
X168855970Y-104679329D01*
X168864235Y-104702429D01*
X168870196Y-104726227D01*
X168873796Y-104750496D01*
X168875000Y-104775000D01*
X168875000Y-105525000D01*
X168873796Y-105549504D01*
X168870196Y-105573773D01*
X168864235Y-105597571D01*
X168855970Y-105620671D01*
X168845480Y-105642849D01*
X168832867Y-105663893D01*
X168818253Y-105683598D01*
X168801777Y-105701777D01*
X168783598Y-105718253D01*
X168763893Y-105732867D01*
X168742849Y-105745480D01*
X168720671Y-105755970D01*
X168697571Y-105764235D01*
X168673773Y-105770196D01*
X168649504Y-105773796D01*
X168625000Y-105775000D01*
X167375000Y-105775000D01*
X167350496Y-105773796D01*
X167326227Y-105770196D01*
X167302429Y-105764235D01*
X167279329Y-105755970D01*
X167257151Y-105745480D01*
X167236107Y-105732867D01*
X167216402Y-105718253D01*
X167198223Y-105701777D01*
X167181747Y-105683598D01*
X167167133Y-105663893D01*
X167154520Y-105642849D01*
X167144030Y-105620671D01*
X167135765Y-105597571D01*
X167129804Y-105573773D01*
X167126204Y-105549504D01*
X167125000Y-105525000D01*
X167125000Y-104775000D01*
X167126204Y-104750496D01*
X167129804Y-104726227D01*
X167135765Y-104702429D01*
X167144030Y-104679329D01*
X167154520Y-104657151D01*
X167167133Y-104636107D01*
X167181747Y-104616402D01*
X167198223Y-104598223D01*
X167216402Y-104581747D01*
X167236107Y-104567133D01*
X167257151Y-104554520D01*
X167279329Y-104544030D01*
X167302429Y-104535765D01*
X167326227Y-104529804D01*
X167350496Y-104526204D01*
X167375000Y-104525000D01*
X168625000Y-104525000D01*
X168649504Y-104526204D01*
X168649504Y-104526204D01*
G37*
D15*
X168000000Y-105150000D03*
D10*
G36*
X168649504Y-101726204D02*
G01*
X168673773Y-101729804D01*
X168697571Y-101735765D01*
X168720671Y-101744030D01*
X168742849Y-101754520D01*
X168763893Y-101767133D01*
X168783598Y-101781747D01*
X168801777Y-101798223D01*
X168818253Y-101816402D01*
X168832867Y-101836107D01*
X168845480Y-101857151D01*
X168855970Y-101879329D01*
X168864235Y-101902429D01*
X168870196Y-101926227D01*
X168873796Y-101950496D01*
X168875000Y-101975000D01*
X168875000Y-102725000D01*
X168873796Y-102749504D01*
X168870196Y-102773773D01*
X168864235Y-102797571D01*
X168855970Y-102820671D01*
X168845480Y-102842849D01*
X168832867Y-102863893D01*
X168818253Y-102883598D01*
X168801777Y-102901777D01*
X168783598Y-102918253D01*
X168763893Y-102932867D01*
X168742849Y-102945480D01*
X168720671Y-102955970D01*
X168697571Y-102964235D01*
X168673773Y-102970196D01*
X168649504Y-102973796D01*
X168625000Y-102975000D01*
X167375000Y-102975000D01*
X167350496Y-102973796D01*
X167326227Y-102970196D01*
X167302429Y-102964235D01*
X167279329Y-102955970D01*
X167257151Y-102945480D01*
X167236107Y-102932867D01*
X167216402Y-102918253D01*
X167198223Y-102901777D01*
X167181747Y-102883598D01*
X167167133Y-102863893D01*
X167154520Y-102842849D01*
X167144030Y-102820671D01*
X167135765Y-102797571D01*
X167129804Y-102773773D01*
X167126204Y-102749504D01*
X167125000Y-102725000D01*
X167125000Y-101975000D01*
X167126204Y-101950496D01*
X167129804Y-101926227D01*
X167135765Y-101902429D01*
X167144030Y-101879329D01*
X167154520Y-101857151D01*
X167167133Y-101836107D01*
X167181747Y-101816402D01*
X167198223Y-101798223D01*
X167216402Y-101781747D01*
X167236107Y-101767133D01*
X167257151Y-101754520D01*
X167279329Y-101744030D01*
X167302429Y-101735765D01*
X167326227Y-101729804D01*
X167350496Y-101726204D01*
X167375000Y-101725000D01*
X168625000Y-101725000D01*
X168649504Y-101726204D01*
X168649504Y-101726204D01*
G37*
D15*
X168000000Y-102350000D03*
D10*
G36*
X158999504Y-95626204D02*
G01*
X159023773Y-95629804D01*
X159047571Y-95635765D01*
X159070671Y-95644030D01*
X159092849Y-95654520D01*
X159113893Y-95667133D01*
X159133598Y-95681747D01*
X159151777Y-95698223D01*
X159168253Y-95716402D01*
X159182867Y-95736107D01*
X159195480Y-95757151D01*
X159205970Y-95779329D01*
X159214235Y-95802429D01*
X159220196Y-95826227D01*
X159223796Y-95850496D01*
X159225000Y-95875000D01*
X159225000Y-97125000D01*
X159223796Y-97149504D01*
X159220196Y-97173773D01*
X159214235Y-97197571D01*
X159205970Y-97220671D01*
X159195480Y-97242849D01*
X159182867Y-97263893D01*
X159168253Y-97283598D01*
X159151777Y-97301777D01*
X159133598Y-97318253D01*
X159113893Y-97332867D01*
X159092849Y-97345480D01*
X159070671Y-97355970D01*
X159047571Y-97364235D01*
X159023773Y-97370196D01*
X158999504Y-97373796D01*
X158975000Y-97375000D01*
X158225000Y-97375000D01*
X158200496Y-97373796D01*
X158176227Y-97370196D01*
X158152429Y-97364235D01*
X158129329Y-97355970D01*
X158107151Y-97345480D01*
X158086107Y-97332867D01*
X158066402Y-97318253D01*
X158048223Y-97301777D01*
X158031747Y-97283598D01*
X158017133Y-97263893D01*
X158004520Y-97242849D01*
X157994030Y-97220671D01*
X157985765Y-97197571D01*
X157979804Y-97173773D01*
X157976204Y-97149504D01*
X157975000Y-97125000D01*
X157975000Y-95875000D01*
X157976204Y-95850496D01*
X157979804Y-95826227D01*
X157985765Y-95802429D01*
X157994030Y-95779329D01*
X158004520Y-95757151D01*
X158017133Y-95736107D01*
X158031747Y-95716402D01*
X158048223Y-95698223D01*
X158066402Y-95681747D01*
X158086107Y-95667133D01*
X158107151Y-95654520D01*
X158129329Y-95644030D01*
X158152429Y-95635765D01*
X158176227Y-95629804D01*
X158200496Y-95626204D01*
X158225000Y-95625000D01*
X158975000Y-95625000D01*
X158999504Y-95626204D01*
X158999504Y-95626204D01*
G37*
D15*
X158600000Y-96500000D03*
D10*
G36*
X161799504Y-95626204D02*
G01*
X161823773Y-95629804D01*
X161847571Y-95635765D01*
X161870671Y-95644030D01*
X161892849Y-95654520D01*
X161913893Y-95667133D01*
X161933598Y-95681747D01*
X161951777Y-95698223D01*
X161968253Y-95716402D01*
X161982867Y-95736107D01*
X161995480Y-95757151D01*
X162005970Y-95779329D01*
X162014235Y-95802429D01*
X162020196Y-95826227D01*
X162023796Y-95850496D01*
X162025000Y-95875000D01*
X162025000Y-97125000D01*
X162023796Y-97149504D01*
X162020196Y-97173773D01*
X162014235Y-97197571D01*
X162005970Y-97220671D01*
X161995480Y-97242849D01*
X161982867Y-97263893D01*
X161968253Y-97283598D01*
X161951777Y-97301777D01*
X161933598Y-97318253D01*
X161913893Y-97332867D01*
X161892849Y-97345480D01*
X161870671Y-97355970D01*
X161847571Y-97364235D01*
X161823773Y-97370196D01*
X161799504Y-97373796D01*
X161775000Y-97375000D01*
X161025000Y-97375000D01*
X161000496Y-97373796D01*
X160976227Y-97370196D01*
X160952429Y-97364235D01*
X160929329Y-97355970D01*
X160907151Y-97345480D01*
X160886107Y-97332867D01*
X160866402Y-97318253D01*
X160848223Y-97301777D01*
X160831747Y-97283598D01*
X160817133Y-97263893D01*
X160804520Y-97242849D01*
X160794030Y-97220671D01*
X160785765Y-97197571D01*
X160779804Y-97173773D01*
X160776204Y-97149504D01*
X160775000Y-97125000D01*
X160775000Y-95875000D01*
X160776204Y-95850496D01*
X160779804Y-95826227D01*
X160785765Y-95802429D01*
X160794030Y-95779329D01*
X160804520Y-95757151D01*
X160817133Y-95736107D01*
X160831747Y-95716402D01*
X160848223Y-95698223D01*
X160866402Y-95681747D01*
X160886107Y-95667133D01*
X160907151Y-95654520D01*
X160929329Y-95644030D01*
X160952429Y-95635765D01*
X160976227Y-95629804D01*
X161000496Y-95626204D01*
X161025000Y-95625000D01*
X161775000Y-95625000D01*
X161799504Y-95626204D01*
X161799504Y-95626204D01*
G37*
D15*
X161400000Y-96500000D03*
D10*
G36*
X147649504Y-66026204D02*
G01*
X147673773Y-66029804D01*
X147697571Y-66035765D01*
X147720671Y-66044030D01*
X147742849Y-66054520D01*
X147763893Y-66067133D01*
X147783598Y-66081747D01*
X147801777Y-66098223D01*
X147818253Y-66116402D01*
X147832867Y-66136107D01*
X147845480Y-66157151D01*
X147855970Y-66179329D01*
X147864235Y-66202429D01*
X147870196Y-66226227D01*
X147873796Y-66250496D01*
X147875000Y-66275000D01*
X147875000Y-67025000D01*
X147873796Y-67049504D01*
X147870196Y-67073773D01*
X147864235Y-67097571D01*
X147855970Y-67120671D01*
X147845480Y-67142849D01*
X147832867Y-67163893D01*
X147818253Y-67183598D01*
X147801777Y-67201777D01*
X147783598Y-67218253D01*
X147763893Y-67232867D01*
X147742849Y-67245480D01*
X147720671Y-67255970D01*
X147697571Y-67264235D01*
X147673773Y-67270196D01*
X147649504Y-67273796D01*
X147625000Y-67275000D01*
X146375000Y-67275000D01*
X146350496Y-67273796D01*
X146326227Y-67270196D01*
X146302429Y-67264235D01*
X146279329Y-67255970D01*
X146257151Y-67245480D01*
X146236107Y-67232867D01*
X146216402Y-67218253D01*
X146198223Y-67201777D01*
X146181747Y-67183598D01*
X146167133Y-67163893D01*
X146154520Y-67142849D01*
X146144030Y-67120671D01*
X146135765Y-67097571D01*
X146129804Y-67073773D01*
X146126204Y-67049504D01*
X146125000Y-67025000D01*
X146125000Y-66275000D01*
X146126204Y-66250496D01*
X146129804Y-66226227D01*
X146135765Y-66202429D01*
X146144030Y-66179329D01*
X146154520Y-66157151D01*
X146167133Y-66136107D01*
X146181747Y-66116402D01*
X146198223Y-66098223D01*
X146216402Y-66081747D01*
X146236107Y-66067133D01*
X146257151Y-66054520D01*
X146279329Y-66044030D01*
X146302429Y-66035765D01*
X146326227Y-66029804D01*
X146350496Y-66026204D01*
X146375000Y-66025000D01*
X147625000Y-66025000D01*
X147649504Y-66026204D01*
X147649504Y-66026204D01*
G37*
D15*
X147000000Y-66650000D03*
D10*
G36*
X147649504Y-63226204D02*
G01*
X147673773Y-63229804D01*
X147697571Y-63235765D01*
X147720671Y-63244030D01*
X147742849Y-63254520D01*
X147763893Y-63267133D01*
X147783598Y-63281747D01*
X147801777Y-63298223D01*
X147818253Y-63316402D01*
X147832867Y-63336107D01*
X147845480Y-63357151D01*
X147855970Y-63379329D01*
X147864235Y-63402429D01*
X147870196Y-63426227D01*
X147873796Y-63450496D01*
X147875000Y-63475000D01*
X147875000Y-64225000D01*
X147873796Y-64249504D01*
X147870196Y-64273773D01*
X147864235Y-64297571D01*
X147855970Y-64320671D01*
X147845480Y-64342849D01*
X147832867Y-64363893D01*
X147818253Y-64383598D01*
X147801777Y-64401777D01*
X147783598Y-64418253D01*
X147763893Y-64432867D01*
X147742849Y-64445480D01*
X147720671Y-64455970D01*
X147697571Y-64464235D01*
X147673773Y-64470196D01*
X147649504Y-64473796D01*
X147625000Y-64475000D01*
X146375000Y-64475000D01*
X146350496Y-64473796D01*
X146326227Y-64470196D01*
X146302429Y-64464235D01*
X146279329Y-64455970D01*
X146257151Y-64445480D01*
X146236107Y-64432867D01*
X146216402Y-64418253D01*
X146198223Y-64401777D01*
X146181747Y-64383598D01*
X146167133Y-64363893D01*
X146154520Y-64342849D01*
X146144030Y-64320671D01*
X146135765Y-64297571D01*
X146129804Y-64273773D01*
X146126204Y-64249504D01*
X146125000Y-64225000D01*
X146125000Y-63475000D01*
X146126204Y-63450496D01*
X146129804Y-63426227D01*
X146135765Y-63402429D01*
X146144030Y-63379329D01*
X146154520Y-63357151D01*
X146167133Y-63336107D01*
X146181747Y-63316402D01*
X146198223Y-63298223D01*
X146216402Y-63281747D01*
X146236107Y-63267133D01*
X146257151Y-63254520D01*
X146279329Y-63244030D01*
X146302429Y-63235765D01*
X146326227Y-63229804D01*
X146350496Y-63226204D01*
X146375000Y-63225000D01*
X147625000Y-63225000D01*
X147649504Y-63226204D01*
X147649504Y-63226204D01*
G37*
D15*
X147000000Y-63850000D03*
D10*
G36*
X164999504Y-95626204D02*
G01*
X165023773Y-95629804D01*
X165047571Y-95635765D01*
X165070671Y-95644030D01*
X165092849Y-95654520D01*
X165113893Y-95667133D01*
X165133598Y-95681747D01*
X165151777Y-95698223D01*
X165168253Y-95716402D01*
X165182867Y-95736107D01*
X165195480Y-95757151D01*
X165205970Y-95779329D01*
X165214235Y-95802429D01*
X165220196Y-95826227D01*
X165223796Y-95850496D01*
X165225000Y-95875000D01*
X165225000Y-97125000D01*
X165223796Y-97149504D01*
X165220196Y-97173773D01*
X165214235Y-97197571D01*
X165205970Y-97220671D01*
X165195480Y-97242849D01*
X165182867Y-97263893D01*
X165168253Y-97283598D01*
X165151777Y-97301777D01*
X165133598Y-97318253D01*
X165113893Y-97332867D01*
X165092849Y-97345480D01*
X165070671Y-97355970D01*
X165047571Y-97364235D01*
X165023773Y-97370196D01*
X164999504Y-97373796D01*
X164975000Y-97375000D01*
X164225000Y-97375000D01*
X164200496Y-97373796D01*
X164176227Y-97370196D01*
X164152429Y-97364235D01*
X164129329Y-97355970D01*
X164107151Y-97345480D01*
X164086107Y-97332867D01*
X164066402Y-97318253D01*
X164048223Y-97301777D01*
X164031747Y-97283598D01*
X164017133Y-97263893D01*
X164004520Y-97242849D01*
X163994030Y-97220671D01*
X163985765Y-97197571D01*
X163979804Y-97173773D01*
X163976204Y-97149504D01*
X163975000Y-97125000D01*
X163975000Y-95875000D01*
X163976204Y-95850496D01*
X163979804Y-95826227D01*
X163985765Y-95802429D01*
X163994030Y-95779329D01*
X164004520Y-95757151D01*
X164017133Y-95736107D01*
X164031747Y-95716402D01*
X164048223Y-95698223D01*
X164066402Y-95681747D01*
X164086107Y-95667133D01*
X164107151Y-95654520D01*
X164129329Y-95644030D01*
X164152429Y-95635765D01*
X164176227Y-95629804D01*
X164200496Y-95626204D01*
X164225000Y-95625000D01*
X164975000Y-95625000D01*
X164999504Y-95626204D01*
X164999504Y-95626204D01*
G37*
D15*
X164600000Y-96500000D03*
D10*
G36*
X167799504Y-95626204D02*
G01*
X167823773Y-95629804D01*
X167847571Y-95635765D01*
X167870671Y-95644030D01*
X167892849Y-95654520D01*
X167913893Y-95667133D01*
X167933598Y-95681747D01*
X167951777Y-95698223D01*
X167968253Y-95716402D01*
X167982867Y-95736107D01*
X167995480Y-95757151D01*
X168005970Y-95779329D01*
X168014235Y-95802429D01*
X168020196Y-95826227D01*
X168023796Y-95850496D01*
X168025000Y-95875000D01*
X168025000Y-97125000D01*
X168023796Y-97149504D01*
X168020196Y-97173773D01*
X168014235Y-97197571D01*
X168005970Y-97220671D01*
X167995480Y-97242849D01*
X167982867Y-97263893D01*
X167968253Y-97283598D01*
X167951777Y-97301777D01*
X167933598Y-97318253D01*
X167913893Y-97332867D01*
X167892849Y-97345480D01*
X167870671Y-97355970D01*
X167847571Y-97364235D01*
X167823773Y-97370196D01*
X167799504Y-97373796D01*
X167775000Y-97375000D01*
X167025000Y-97375000D01*
X167000496Y-97373796D01*
X166976227Y-97370196D01*
X166952429Y-97364235D01*
X166929329Y-97355970D01*
X166907151Y-97345480D01*
X166886107Y-97332867D01*
X166866402Y-97318253D01*
X166848223Y-97301777D01*
X166831747Y-97283598D01*
X166817133Y-97263893D01*
X166804520Y-97242849D01*
X166794030Y-97220671D01*
X166785765Y-97197571D01*
X166779804Y-97173773D01*
X166776204Y-97149504D01*
X166775000Y-97125000D01*
X166775000Y-95875000D01*
X166776204Y-95850496D01*
X166779804Y-95826227D01*
X166785765Y-95802429D01*
X166794030Y-95779329D01*
X166804520Y-95757151D01*
X166817133Y-95736107D01*
X166831747Y-95716402D01*
X166848223Y-95698223D01*
X166866402Y-95681747D01*
X166886107Y-95667133D01*
X166907151Y-95654520D01*
X166929329Y-95644030D01*
X166952429Y-95635765D01*
X166976227Y-95629804D01*
X167000496Y-95626204D01*
X167025000Y-95625000D01*
X167775000Y-95625000D01*
X167799504Y-95626204D01*
X167799504Y-95626204D01*
G37*
D15*
X167400000Y-96500000D03*
D10*
G36*
X161799504Y-99626204D02*
G01*
X161823773Y-99629804D01*
X161847571Y-99635765D01*
X161870671Y-99644030D01*
X161892849Y-99654520D01*
X161913893Y-99667133D01*
X161933598Y-99681747D01*
X161951777Y-99698223D01*
X161968253Y-99716402D01*
X161982867Y-99736107D01*
X161995480Y-99757151D01*
X162005970Y-99779329D01*
X162014235Y-99802429D01*
X162020196Y-99826227D01*
X162023796Y-99850496D01*
X162025000Y-99875000D01*
X162025000Y-101125000D01*
X162023796Y-101149504D01*
X162020196Y-101173773D01*
X162014235Y-101197571D01*
X162005970Y-101220671D01*
X161995480Y-101242849D01*
X161982867Y-101263893D01*
X161968253Y-101283598D01*
X161951777Y-101301777D01*
X161933598Y-101318253D01*
X161913893Y-101332867D01*
X161892849Y-101345480D01*
X161870671Y-101355970D01*
X161847571Y-101364235D01*
X161823773Y-101370196D01*
X161799504Y-101373796D01*
X161775000Y-101375000D01*
X161025000Y-101375000D01*
X161000496Y-101373796D01*
X160976227Y-101370196D01*
X160952429Y-101364235D01*
X160929329Y-101355970D01*
X160907151Y-101345480D01*
X160886107Y-101332867D01*
X160866402Y-101318253D01*
X160848223Y-101301777D01*
X160831747Y-101283598D01*
X160817133Y-101263893D01*
X160804520Y-101242849D01*
X160794030Y-101220671D01*
X160785765Y-101197571D01*
X160779804Y-101173773D01*
X160776204Y-101149504D01*
X160775000Y-101125000D01*
X160775000Y-99875000D01*
X160776204Y-99850496D01*
X160779804Y-99826227D01*
X160785765Y-99802429D01*
X160794030Y-99779329D01*
X160804520Y-99757151D01*
X160817133Y-99736107D01*
X160831747Y-99716402D01*
X160848223Y-99698223D01*
X160866402Y-99681747D01*
X160886107Y-99667133D01*
X160907151Y-99654520D01*
X160929329Y-99644030D01*
X160952429Y-99635765D01*
X160976227Y-99629804D01*
X161000496Y-99626204D01*
X161025000Y-99625000D01*
X161775000Y-99625000D01*
X161799504Y-99626204D01*
X161799504Y-99626204D01*
G37*
D15*
X161400000Y-100500000D03*
D10*
G36*
X158999504Y-99626204D02*
G01*
X159023773Y-99629804D01*
X159047571Y-99635765D01*
X159070671Y-99644030D01*
X159092849Y-99654520D01*
X159113893Y-99667133D01*
X159133598Y-99681747D01*
X159151777Y-99698223D01*
X159168253Y-99716402D01*
X159182867Y-99736107D01*
X159195480Y-99757151D01*
X159205970Y-99779329D01*
X159214235Y-99802429D01*
X159220196Y-99826227D01*
X159223796Y-99850496D01*
X159225000Y-99875000D01*
X159225000Y-101125000D01*
X159223796Y-101149504D01*
X159220196Y-101173773D01*
X159214235Y-101197571D01*
X159205970Y-101220671D01*
X159195480Y-101242849D01*
X159182867Y-101263893D01*
X159168253Y-101283598D01*
X159151777Y-101301777D01*
X159133598Y-101318253D01*
X159113893Y-101332867D01*
X159092849Y-101345480D01*
X159070671Y-101355970D01*
X159047571Y-101364235D01*
X159023773Y-101370196D01*
X158999504Y-101373796D01*
X158975000Y-101375000D01*
X158225000Y-101375000D01*
X158200496Y-101373796D01*
X158176227Y-101370196D01*
X158152429Y-101364235D01*
X158129329Y-101355970D01*
X158107151Y-101345480D01*
X158086107Y-101332867D01*
X158066402Y-101318253D01*
X158048223Y-101301777D01*
X158031747Y-101283598D01*
X158017133Y-101263893D01*
X158004520Y-101242849D01*
X157994030Y-101220671D01*
X157985765Y-101197571D01*
X157979804Y-101173773D01*
X157976204Y-101149504D01*
X157975000Y-101125000D01*
X157975000Y-99875000D01*
X157976204Y-99850496D01*
X157979804Y-99826227D01*
X157985765Y-99802429D01*
X157994030Y-99779329D01*
X158004520Y-99757151D01*
X158017133Y-99736107D01*
X158031747Y-99716402D01*
X158048223Y-99698223D01*
X158066402Y-99681747D01*
X158086107Y-99667133D01*
X158107151Y-99654520D01*
X158129329Y-99644030D01*
X158152429Y-99635765D01*
X158176227Y-99629804D01*
X158200496Y-99626204D01*
X158225000Y-99625000D01*
X158975000Y-99625000D01*
X158999504Y-99626204D01*
X158999504Y-99626204D01*
G37*
D15*
X158600000Y-100500000D03*
D10*
G36*
X161799504Y-83626204D02*
G01*
X161823773Y-83629804D01*
X161847571Y-83635765D01*
X161870671Y-83644030D01*
X161892849Y-83654520D01*
X161913893Y-83667133D01*
X161933598Y-83681747D01*
X161951777Y-83698223D01*
X161968253Y-83716402D01*
X161982867Y-83736107D01*
X161995480Y-83757151D01*
X162005970Y-83779329D01*
X162014235Y-83802429D01*
X162020196Y-83826227D01*
X162023796Y-83850496D01*
X162025000Y-83875000D01*
X162025000Y-85125000D01*
X162023796Y-85149504D01*
X162020196Y-85173773D01*
X162014235Y-85197571D01*
X162005970Y-85220671D01*
X161995480Y-85242849D01*
X161982867Y-85263893D01*
X161968253Y-85283598D01*
X161951777Y-85301777D01*
X161933598Y-85318253D01*
X161913893Y-85332867D01*
X161892849Y-85345480D01*
X161870671Y-85355970D01*
X161847571Y-85364235D01*
X161823773Y-85370196D01*
X161799504Y-85373796D01*
X161775000Y-85375000D01*
X161025000Y-85375000D01*
X161000496Y-85373796D01*
X160976227Y-85370196D01*
X160952429Y-85364235D01*
X160929329Y-85355970D01*
X160907151Y-85345480D01*
X160886107Y-85332867D01*
X160866402Y-85318253D01*
X160848223Y-85301777D01*
X160831747Y-85283598D01*
X160817133Y-85263893D01*
X160804520Y-85242849D01*
X160794030Y-85220671D01*
X160785765Y-85197571D01*
X160779804Y-85173773D01*
X160776204Y-85149504D01*
X160775000Y-85125000D01*
X160775000Y-83875000D01*
X160776204Y-83850496D01*
X160779804Y-83826227D01*
X160785765Y-83802429D01*
X160794030Y-83779329D01*
X160804520Y-83757151D01*
X160817133Y-83736107D01*
X160831747Y-83716402D01*
X160848223Y-83698223D01*
X160866402Y-83681747D01*
X160886107Y-83667133D01*
X160907151Y-83654520D01*
X160929329Y-83644030D01*
X160952429Y-83635765D01*
X160976227Y-83629804D01*
X161000496Y-83626204D01*
X161025000Y-83625000D01*
X161775000Y-83625000D01*
X161799504Y-83626204D01*
X161799504Y-83626204D01*
G37*
D15*
X161400000Y-84500000D03*
D10*
G36*
X158999504Y-83626204D02*
G01*
X159023773Y-83629804D01*
X159047571Y-83635765D01*
X159070671Y-83644030D01*
X159092849Y-83654520D01*
X159113893Y-83667133D01*
X159133598Y-83681747D01*
X159151777Y-83698223D01*
X159168253Y-83716402D01*
X159182867Y-83736107D01*
X159195480Y-83757151D01*
X159205970Y-83779329D01*
X159214235Y-83802429D01*
X159220196Y-83826227D01*
X159223796Y-83850496D01*
X159225000Y-83875000D01*
X159225000Y-85125000D01*
X159223796Y-85149504D01*
X159220196Y-85173773D01*
X159214235Y-85197571D01*
X159205970Y-85220671D01*
X159195480Y-85242849D01*
X159182867Y-85263893D01*
X159168253Y-85283598D01*
X159151777Y-85301777D01*
X159133598Y-85318253D01*
X159113893Y-85332867D01*
X159092849Y-85345480D01*
X159070671Y-85355970D01*
X159047571Y-85364235D01*
X159023773Y-85370196D01*
X158999504Y-85373796D01*
X158975000Y-85375000D01*
X158225000Y-85375000D01*
X158200496Y-85373796D01*
X158176227Y-85370196D01*
X158152429Y-85364235D01*
X158129329Y-85355970D01*
X158107151Y-85345480D01*
X158086107Y-85332867D01*
X158066402Y-85318253D01*
X158048223Y-85301777D01*
X158031747Y-85283598D01*
X158017133Y-85263893D01*
X158004520Y-85242849D01*
X157994030Y-85220671D01*
X157985765Y-85197571D01*
X157979804Y-85173773D01*
X157976204Y-85149504D01*
X157975000Y-85125000D01*
X157975000Y-83875000D01*
X157976204Y-83850496D01*
X157979804Y-83826227D01*
X157985765Y-83802429D01*
X157994030Y-83779329D01*
X158004520Y-83757151D01*
X158017133Y-83736107D01*
X158031747Y-83716402D01*
X158048223Y-83698223D01*
X158066402Y-83681747D01*
X158086107Y-83667133D01*
X158107151Y-83654520D01*
X158129329Y-83644030D01*
X158152429Y-83635765D01*
X158176227Y-83629804D01*
X158200496Y-83626204D01*
X158225000Y-83625000D01*
X158975000Y-83625000D01*
X158999504Y-83626204D01*
X158999504Y-83626204D01*
G37*
D15*
X158600000Y-84500000D03*
D10*
G36*
X161799504Y-87626204D02*
G01*
X161823773Y-87629804D01*
X161847571Y-87635765D01*
X161870671Y-87644030D01*
X161892849Y-87654520D01*
X161913893Y-87667133D01*
X161933598Y-87681747D01*
X161951777Y-87698223D01*
X161968253Y-87716402D01*
X161982867Y-87736107D01*
X161995480Y-87757151D01*
X162005970Y-87779329D01*
X162014235Y-87802429D01*
X162020196Y-87826227D01*
X162023796Y-87850496D01*
X162025000Y-87875000D01*
X162025000Y-89125000D01*
X162023796Y-89149504D01*
X162020196Y-89173773D01*
X162014235Y-89197571D01*
X162005970Y-89220671D01*
X161995480Y-89242849D01*
X161982867Y-89263893D01*
X161968253Y-89283598D01*
X161951777Y-89301777D01*
X161933598Y-89318253D01*
X161913893Y-89332867D01*
X161892849Y-89345480D01*
X161870671Y-89355970D01*
X161847571Y-89364235D01*
X161823773Y-89370196D01*
X161799504Y-89373796D01*
X161775000Y-89375000D01*
X161025000Y-89375000D01*
X161000496Y-89373796D01*
X160976227Y-89370196D01*
X160952429Y-89364235D01*
X160929329Y-89355970D01*
X160907151Y-89345480D01*
X160886107Y-89332867D01*
X160866402Y-89318253D01*
X160848223Y-89301777D01*
X160831747Y-89283598D01*
X160817133Y-89263893D01*
X160804520Y-89242849D01*
X160794030Y-89220671D01*
X160785765Y-89197571D01*
X160779804Y-89173773D01*
X160776204Y-89149504D01*
X160775000Y-89125000D01*
X160775000Y-87875000D01*
X160776204Y-87850496D01*
X160779804Y-87826227D01*
X160785765Y-87802429D01*
X160794030Y-87779329D01*
X160804520Y-87757151D01*
X160817133Y-87736107D01*
X160831747Y-87716402D01*
X160848223Y-87698223D01*
X160866402Y-87681747D01*
X160886107Y-87667133D01*
X160907151Y-87654520D01*
X160929329Y-87644030D01*
X160952429Y-87635765D01*
X160976227Y-87629804D01*
X161000496Y-87626204D01*
X161025000Y-87625000D01*
X161775000Y-87625000D01*
X161799504Y-87626204D01*
X161799504Y-87626204D01*
G37*
D15*
X161400000Y-88500000D03*
D10*
G36*
X158999504Y-87626204D02*
G01*
X159023773Y-87629804D01*
X159047571Y-87635765D01*
X159070671Y-87644030D01*
X159092849Y-87654520D01*
X159113893Y-87667133D01*
X159133598Y-87681747D01*
X159151777Y-87698223D01*
X159168253Y-87716402D01*
X159182867Y-87736107D01*
X159195480Y-87757151D01*
X159205970Y-87779329D01*
X159214235Y-87802429D01*
X159220196Y-87826227D01*
X159223796Y-87850496D01*
X159225000Y-87875000D01*
X159225000Y-89125000D01*
X159223796Y-89149504D01*
X159220196Y-89173773D01*
X159214235Y-89197571D01*
X159205970Y-89220671D01*
X159195480Y-89242849D01*
X159182867Y-89263893D01*
X159168253Y-89283598D01*
X159151777Y-89301777D01*
X159133598Y-89318253D01*
X159113893Y-89332867D01*
X159092849Y-89345480D01*
X159070671Y-89355970D01*
X159047571Y-89364235D01*
X159023773Y-89370196D01*
X158999504Y-89373796D01*
X158975000Y-89375000D01*
X158225000Y-89375000D01*
X158200496Y-89373796D01*
X158176227Y-89370196D01*
X158152429Y-89364235D01*
X158129329Y-89355970D01*
X158107151Y-89345480D01*
X158086107Y-89332867D01*
X158066402Y-89318253D01*
X158048223Y-89301777D01*
X158031747Y-89283598D01*
X158017133Y-89263893D01*
X158004520Y-89242849D01*
X157994030Y-89220671D01*
X157985765Y-89197571D01*
X157979804Y-89173773D01*
X157976204Y-89149504D01*
X157975000Y-89125000D01*
X157975000Y-87875000D01*
X157976204Y-87850496D01*
X157979804Y-87826227D01*
X157985765Y-87802429D01*
X157994030Y-87779329D01*
X158004520Y-87757151D01*
X158017133Y-87736107D01*
X158031747Y-87716402D01*
X158048223Y-87698223D01*
X158066402Y-87681747D01*
X158086107Y-87667133D01*
X158107151Y-87654520D01*
X158129329Y-87644030D01*
X158152429Y-87635765D01*
X158176227Y-87629804D01*
X158200496Y-87626204D01*
X158225000Y-87625000D01*
X158975000Y-87625000D01*
X158999504Y-87626204D01*
X158999504Y-87626204D01*
G37*
D15*
X158600000Y-88500000D03*
D10*
G36*
X161799504Y-91626204D02*
G01*
X161823773Y-91629804D01*
X161847571Y-91635765D01*
X161870671Y-91644030D01*
X161892849Y-91654520D01*
X161913893Y-91667133D01*
X161933598Y-91681747D01*
X161951777Y-91698223D01*
X161968253Y-91716402D01*
X161982867Y-91736107D01*
X161995480Y-91757151D01*
X162005970Y-91779329D01*
X162014235Y-91802429D01*
X162020196Y-91826227D01*
X162023796Y-91850496D01*
X162025000Y-91875000D01*
X162025000Y-93125000D01*
X162023796Y-93149504D01*
X162020196Y-93173773D01*
X162014235Y-93197571D01*
X162005970Y-93220671D01*
X161995480Y-93242849D01*
X161982867Y-93263893D01*
X161968253Y-93283598D01*
X161951777Y-93301777D01*
X161933598Y-93318253D01*
X161913893Y-93332867D01*
X161892849Y-93345480D01*
X161870671Y-93355970D01*
X161847571Y-93364235D01*
X161823773Y-93370196D01*
X161799504Y-93373796D01*
X161775000Y-93375000D01*
X161025000Y-93375000D01*
X161000496Y-93373796D01*
X160976227Y-93370196D01*
X160952429Y-93364235D01*
X160929329Y-93355970D01*
X160907151Y-93345480D01*
X160886107Y-93332867D01*
X160866402Y-93318253D01*
X160848223Y-93301777D01*
X160831747Y-93283598D01*
X160817133Y-93263893D01*
X160804520Y-93242849D01*
X160794030Y-93220671D01*
X160785765Y-93197571D01*
X160779804Y-93173773D01*
X160776204Y-93149504D01*
X160775000Y-93125000D01*
X160775000Y-91875000D01*
X160776204Y-91850496D01*
X160779804Y-91826227D01*
X160785765Y-91802429D01*
X160794030Y-91779329D01*
X160804520Y-91757151D01*
X160817133Y-91736107D01*
X160831747Y-91716402D01*
X160848223Y-91698223D01*
X160866402Y-91681747D01*
X160886107Y-91667133D01*
X160907151Y-91654520D01*
X160929329Y-91644030D01*
X160952429Y-91635765D01*
X160976227Y-91629804D01*
X161000496Y-91626204D01*
X161025000Y-91625000D01*
X161775000Y-91625000D01*
X161799504Y-91626204D01*
X161799504Y-91626204D01*
G37*
D15*
X161400000Y-92500000D03*
D10*
G36*
X158999504Y-91626204D02*
G01*
X159023773Y-91629804D01*
X159047571Y-91635765D01*
X159070671Y-91644030D01*
X159092849Y-91654520D01*
X159113893Y-91667133D01*
X159133598Y-91681747D01*
X159151777Y-91698223D01*
X159168253Y-91716402D01*
X159182867Y-91736107D01*
X159195480Y-91757151D01*
X159205970Y-91779329D01*
X159214235Y-91802429D01*
X159220196Y-91826227D01*
X159223796Y-91850496D01*
X159225000Y-91875000D01*
X159225000Y-93125000D01*
X159223796Y-93149504D01*
X159220196Y-93173773D01*
X159214235Y-93197571D01*
X159205970Y-93220671D01*
X159195480Y-93242849D01*
X159182867Y-93263893D01*
X159168253Y-93283598D01*
X159151777Y-93301777D01*
X159133598Y-93318253D01*
X159113893Y-93332867D01*
X159092849Y-93345480D01*
X159070671Y-93355970D01*
X159047571Y-93364235D01*
X159023773Y-93370196D01*
X158999504Y-93373796D01*
X158975000Y-93375000D01*
X158225000Y-93375000D01*
X158200496Y-93373796D01*
X158176227Y-93370196D01*
X158152429Y-93364235D01*
X158129329Y-93355970D01*
X158107151Y-93345480D01*
X158086107Y-93332867D01*
X158066402Y-93318253D01*
X158048223Y-93301777D01*
X158031747Y-93283598D01*
X158017133Y-93263893D01*
X158004520Y-93242849D01*
X157994030Y-93220671D01*
X157985765Y-93197571D01*
X157979804Y-93173773D01*
X157976204Y-93149504D01*
X157975000Y-93125000D01*
X157975000Y-91875000D01*
X157976204Y-91850496D01*
X157979804Y-91826227D01*
X157985765Y-91802429D01*
X157994030Y-91779329D01*
X158004520Y-91757151D01*
X158017133Y-91736107D01*
X158031747Y-91716402D01*
X158048223Y-91698223D01*
X158066402Y-91681747D01*
X158086107Y-91667133D01*
X158107151Y-91654520D01*
X158129329Y-91644030D01*
X158152429Y-91635765D01*
X158176227Y-91629804D01*
X158200496Y-91626204D01*
X158225000Y-91625000D01*
X158975000Y-91625000D01*
X158999504Y-91626204D01*
X158999504Y-91626204D01*
G37*
D15*
X158600000Y-92500000D03*
D10*
G36*
X143774504Y-63226204D02*
G01*
X143798773Y-63229804D01*
X143822571Y-63235765D01*
X143845671Y-63244030D01*
X143867849Y-63254520D01*
X143888893Y-63267133D01*
X143908598Y-63281747D01*
X143926777Y-63298223D01*
X143943253Y-63316402D01*
X143957867Y-63336107D01*
X143970480Y-63357151D01*
X143980970Y-63379329D01*
X143989235Y-63402429D01*
X143995196Y-63426227D01*
X143998796Y-63450496D01*
X144000000Y-63475000D01*
X144000000Y-64225000D01*
X143998796Y-64249504D01*
X143995196Y-64273773D01*
X143989235Y-64297571D01*
X143980970Y-64320671D01*
X143970480Y-64342849D01*
X143957867Y-64363893D01*
X143943253Y-64383598D01*
X143926777Y-64401777D01*
X143908598Y-64418253D01*
X143888893Y-64432867D01*
X143867849Y-64445480D01*
X143845671Y-64455970D01*
X143822571Y-64464235D01*
X143798773Y-64470196D01*
X143774504Y-64473796D01*
X143750000Y-64475000D01*
X142500000Y-64475000D01*
X142475496Y-64473796D01*
X142451227Y-64470196D01*
X142427429Y-64464235D01*
X142404329Y-64455970D01*
X142382151Y-64445480D01*
X142361107Y-64432867D01*
X142341402Y-64418253D01*
X142323223Y-64401777D01*
X142306747Y-64383598D01*
X142292133Y-64363893D01*
X142279520Y-64342849D01*
X142269030Y-64320671D01*
X142260765Y-64297571D01*
X142254804Y-64273773D01*
X142251204Y-64249504D01*
X142250000Y-64225000D01*
X142250000Y-63475000D01*
X142251204Y-63450496D01*
X142254804Y-63426227D01*
X142260765Y-63402429D01*
X142269030Y-63379329D01*
X142279520Y-63357151D01*
X142292133Y-63336107D01*
X142306747Y-63316402D01*
X142323223Y-63298223D01*
X142341402Y-63281747D01*
X142361107Y-63267133D01*
X142382151Y-63254520D01*
X142404329Y-63244030D01*
X142427429Y-63235765D01*
X142451227Y-63229804D01*
X142475496Y-63226204D01*
X142500000Y-63225000D01*
X143750000Y-63225000D01*
X143774504Y-63226204D01*
X143774504Y-63226204D01*
G37*
D15*
X143125000Y-63850000D03*
D10*
G36*
X143774504Y-66026204D02*
G01*
X143798773Y-66029804D01*
X143822571Y-66035765D01*
X143845671Y-66044030D01*
X143867849Y-66054520D01*
X143888893Y-66067133D01*
X143908598Y-66081747D01*
X143926777Y-66098223D01*
X143943253Y-66116402D01*
X143957867Y-66136107D01*
X143970480Y-66157151D01*
X143980970Y-66179329D01*
X143989235Y-66202429D01*
X143995196Y-66226227D01*
X143998796Y-66250496D01*
X144000000Y-66275000D01*
X144000000Y-67025000D01*
X143998796Y-67049504D01*
X143995196Y-67073773D01*
X143989235Y-67097571D01*
X143980970Y-67120671D01*
X143970480Y-67142849D01*
X143957867Y-67163893D01*
X143943253Y-67183598D01*
X143926777Y-67201777D01*
X143908598Y-67218253D01*
X143888893Y-67232867D01*
X143867849Y-67245480D01*
X143845671Y-67255970D01*
X143822571Y-67264235D01*
X143798773Y-67270196D01*
X143774504Y-67273796D01*
X143750000Y-67275000D01*
X142500000Y-67275000D01*
X142475496Y-67273796D01*
X142451227Y-67270196D01*
X142427429Y-67264235D01*
X142404329Y-67255970D01*
X142382151Y-67245480D01*
X142361107Y-67232867D01*
X142341402Y-67218253D01*
X142323223Y-67201777D01*
X142306747Y-67183598D01*
X142292133Y-67163893D01*
X142279520Y-67142849D01*
X142269030Y-67120671D01*
X142260765Y-67097571D01*
X142254804Y-67073773D01*
X142251204Y-67049504D01*
X142250000Y-67025000D01*
X142250000Y-66275000D01*
X142251204Y-66250496D01*
X142254804Y-66226227D01*
X142260765Y-66202429D01*
X142269030Y-66179329D01*
X142279520Y-66157151D01*
X142292133Y-66136107D01*
X142306747Y-66116402D01*
X142323223Y-66098223D01*
X142341402Y-66081747D01*
X142361107Y-66067133D01*
X142382151Y-66054520D01*
X142404329Y-66044030D01*
X142427429Y-66035765D01*
X142451227Y-66029804D01*
X142475496Y-66026204D01*
X142500000Y-66025000D01*
X143750000Y-66025000D01*
X143774504Y-66026204D01*
X143774504Y-66026204D01*
G37*
D15*
X143125000Y-66650000D03*
D10*
G36*
X139899504Y-63226204D02*
G01*
X139923773Y-63229804D01*
X139947571Y-63235765D01*
X139970671Y-63244030D01*
X139992849Y-63254520D01*
X140013893Y-63267133D01*
X140033598Y-63281747D01*
X140051777Y-63298223D01*
X140068253Y-63316402D01*
X140082867Y-63336107D01*
X140095480Y-63357151D01*
X140105970Y-63379329D01*
X140114235Y-63402429D01*
X140120196Y-63426227D01*
X140123796Y-63450496D01*
X140125000Y-63475000D01*
X140125000Y-64225000D01*
X140123796Y-64249504D01*
X140120196Y-64273773D01*
X140114235Y-64297571D01*
X140105970Y-64320671D01*
X140095480Y-64342849D01*
X140082867Y-64363893D01*
X140068253Y-64383598D01*
X140051777Y-64401777D01*
X140033598Y-64418253D01*
X140013893Y-64432867D01*
X139992849Y-64445480D01*
X139970671Y-64455970D01*
X139947571Y-64464235D01*
X139923773Y-64470196D01*
X139899504Y-64473796D01*
X139875000Y-64475000D01*
X138625000Y-64475000D01*
X138600496Y-64473796D01*
X138576227Y-64470196D01*
X138552429Y-64464235D01*
X138529329Y-64455970D01*
X138507151Y-64445480D01*
X138486107Y-64432867D01*
X138466402Y-64418253D01*
X138448223Y-64401777D01*
X138431747Y-64383598D01*
X138417133Y-64363893D01*
X138404520Y-64342849D01*
X138394030Y-64320671D01*
X138385765Y-64297571D01*
X138379804Y-64273773D01*
X138376204Y-64249504D01*
X138375000Y-64225000D01*
X138375000Y-63475000D01*
X138376204Y-63450496D01*
X138379804Y-63426227D01*
X138385765Y-63402429D01*
X138394030Y-63379329D01*
X138404520Y-63357151D01*
X138417133Y-63336107D01*
X138431747Y-63316402D01*
X138448223Y-63298223D01*
X138466402Y-63281747D01*
X138486107Y-63267133D01*
X138507151Y-63254520D01*
X138529329Y-63244030D01*
X138552429Y-63235765D01*
X138576227Y-63229804D01*
X138600496Y-63226204D01*
X138625000Y-63225000D01*
X139875000Y-63225000D01*
X139899504Y-63226204D01*
X139899504Y-63226204D01*
G37*
D15*
X139250000Y-63850000D03*
D10*
G36*
X139899504Y-66026204D02*
G01*
X139923773Y-66029804D01*
X139947571Y-66035765D01*
X139970671Y-66044030D01*
X139992849Y-66054520D01*
X140013893Y-66067133D01*
X140033598Y-66081747D01*
X140051777Y-66098223D01*
X140068253Y-66116402D01*
X140082867Y-66136107D01*
X140095480Y-66157151D01*
X140105970Y-66179329D01*
X140114235Y-66202429D01*
X140120196Y-66226227D01*
X140123796Y-66250496D01*
X140125000Y-66275000D01*
X140125000Y-67025000D01*
X140123796Y-67049504D01*
X140120196Y-67073773D01*
X140114235Y-67097571D01*
X140105970Y-67120671D01*
X140095480Y-67142849D01*
X140082867Y-67163893D01*
X140068253Y-67183598D01*
X140051777Y-67201777D01*
X140033598Y-67218253D01*
X140013893Y-67232867D01*
X139992849Y-67245480D01*
X139970671Y-67255970D01*
X139947571Y-67264235D01*
X139923773Y-67270196D01*
X139899504Y-67273796D01*
X139875000Y-67275000D01*
X138625000Y-67275000D01*
X138600496Y-67273796D01*
X138576227Y-67270196D01*
X138552429Y-67264235D01*
X138529329Y-67255970D01*
X138507151Y-67245480D01*
X138486107Y-67232867D01*
X138466402Y-67218253D01*
X138448223Y-67201777D01*
X138431747Y-67183598D01*
X138417133Y-67163893D01*
X138404520Y-67142849D01*
X138394030Y-67120671D01*
X138385765Y-67097571D01*
X138379804Y-67073773D01*
X138376204Y-67049504D01*
X138375000Y-67025000D01*
X138375000Y-66275000D01*
X138376204Y-66250496D01*
X138379804Y-66226227D01*
X138385765Y-66202429D01*
X138394030Y-66179329D01*
X138404520Y-66157151D01*
X138417133Y-66136107D01*
X138431747Y-66116402D01*
X138448223Y-66098223D01*
X138466402Y-66081747D01*
X138486107Y-66067133D01*
X138507151Y-66054520D01*
X138529329Y-66044030D01*
X138552429Y-66035765D01*
X138576227Y-66029804D01*
X138600496Y-66026204D01*
X138625000Y-66025000D01*
X139875000Y-66025000D01*
X139899504Y-66026204D01*
X139899504Y-66026204D01*
G37*
D15*
X139250000Y-66650000D03*
D10*
G36*
X164999504Y-83626204D02*
G01*
X165023773Y-83629804D01*
X165047571Y-83635765D01*
X165070671Y-83644030D01*
X165092849Y-83654520D01*
X165113893Y-83667133D01*
X165133598Y-83681747D01*
X165151777Y-83698223D01*
X165168253Y-83716402D01*
X165182867Y-83736107D01*
X165195480Y-83757151D01*
X165205970Y-83779329D01*
X165214235Y-83802429D01*
X165220196Y-83826227D01*
X165223796Y-83850496D01*
X165225000Y-83875000D01*
X165225000Y-85125000D01*
X165223796Y-85149504D01*
X165220196Y-85173773D01*
X165214235Y-85197571D01*
X165205970Y-85220671D01*
X165195480Y-85242849D01*
X165182867Y-85263893D01*
X165168253Y-85283598D01*
X165151777Y-85301777D01*
X165133598Y-85318253D01*
X165113893Y-85332867D01*
X165092849Y-85345480D01*
X165070671Y-85355970D01*
X165047571Y-85364235D01*
X165023773Y-85370196D01*
X164999504Y-85373796D01*
X164975000Y-85375000D01*
X164225000Y-85375000D01*
X164200496Y-85373796D01*
X164176227Y-85370196D01*
X164152429Y-85364235D01*
X164129329Y-85355970D01*
X164107151Y-85345480D01*
X164086107Y-85332867D01*
X164066402Y-85318253D01*
X164048223Y-85301777D01*
X164031747Y-85283598D01*
X164017133Y-85263893D01*
X164004520Y-85242849D01*
X163994030Y-85220671D01*
X163985765Y-85197571D01*
X163979804Y-85173773D01*
X163976204Y-85149504D01*
X163975000Y-85125000D01*
X163975000Y-83875000D01*
X163976204Y-83850496D01*
X163979804Y-83826227D01*
X163985765Y-83802429D01*
X163994030Y-83779329D01*
X164004520Y-83757151D01*
X164017133Y-83736107D01*
X164031747Y-83716402D01*
X164048223Y-83698223D01*
X164066402Y-83681747D01*
X164086107Y-83667133D01*
X164107151Y-83654520D01*
X164129329Y-83644030D01*
X164152429Y-83635765D01*
X164176227Y-83629804D01*
X164200496Y-83626204D01*
X164225000Y-83625000D01*
X164975000Y-83625000D01*
X164999504Y-83626204D01*
X164999504Y-83626204D01*
G37*
D15*
X164600000Y-84500000D03*
D10*
G36*
X167799504Y-83626204D02*
G01*
X167823773Y-83629804D01*
X167847571Y-83635765D01*
X167870671Y-83644030D01*
X167892849Y-83654520D01*
X167913893Y-83667133D01*
X167933598Y-83681747D01*
X167951777Y-83698223D01*
X167968253Y-83716402D01*
X167982867Y-83736107D01*
X167995480Y-83757151D01*
X168005970Y-83779329D01*
X168014235Y-83802429D01*
X168020196Y-83826227D01*
X168023796Y-83850496D01*
X168025000Y-83875000D01*
X168025000Y-85125000D01*
X168023796Y-85149504D01*
X168020196Y-85173773D01*
X168014235Y-85197571D01*
X168005970Y-85220671D01*
X167995480Y-85242849D01*
X167982867Y-85263893D01*
X167968253Y-85283598D01*
X167951777Y-85301777D01*
X167933598Y-85318253D01*
X167913893Y-85332867D01*
X167892849Y-85345480D01*
X167870671Y-85355970D01*
X167847571Y-85364235D01*
X167823773Y-85370196D01*
X167799504Y-85373796D01*
X167775000Y-85375000D01*
X167025000Y-85375000D01*
X167000496Y-85373796D01*
X166976227Y-85370196D01*
X166952429Y-85364235D01*
X166929329Y-85355970D01*
X166907151Y-85345480D01*
X166886107Y-85332867D01*
X166866402Y-85318253D01*
X166848223Y-85301777D01*
X166831747Y-85283598D01*
X166817133Y-85263893D01*
X166804520Y-85242849D01*
X166794030Y-85220671D01*
X166785765Y-85197571D01*
X166779804Y-85173773D01*
X166776204Y-85149504D01*
X166775000Y-85125000D01*
X166775000Y-83875000D01*
X166776204Y-83850496D01*
X166779804Y-83826227D01*
X166785765Y-83802429D01*
X166794030Y-83779329D01*
X166804520Y-83757151D01*
X166817133Y-83736107D01*
X166831747Y-83716402D01*
X166848223Y-83698223D01*
X166866402Y-83681747D01*
X166886107Y-83667133D01*
X166907151Y-83654520D01*
X166929329Y-83644030D01*
X166952429Y-83635765D01*
X166976227Y-83629804D01*
X167000496Y-83626204D01*
X167025000Y-83625000D01*
X167775000Y-83625000D01*
X167799504Y-83626204D01*
X167799504Y-83626204D01*
G37*
D15*
X167400000Y-84500000D03*
D10*
G36*
X167799504Y-87626204D02*
G01*
X167823773Y-87629804D01*
X167847571Y-87635765D01*
X167870671Y-87644030D01*
X167892849Y-87654520D01*
X167913893Y-87667133D01*
X167933598Y-87681747D01*
X167951777Y-87698223D01*
X167968253Y-87716402D01*
X167982867Y-87736107D01*
X167995480Y-87757151D01*
X168005970Y-87779329D01*
X168014235Y-87802429D01*
X168020196Y-87826227D01*
X168023796Y-87850496D01*
X168025000Y-87875000D01*
X168025000Y-89125000D01*
X168023796Y-89149504D01*
X168020196Y-89173773D01*
X168014235Y-89197571D01*
X168005970Y-89220671D01*
X167995480Y-89242849D01*
X167982867Y-89263893D01*
X167968253Y-89283598D01*
X167951777Y-89301777D01*
X167933598Y-89318253D01*
X167913893Y-89332867D01*
X167892849Y-89345480D01*
X167870671Y-89355970D01*
X167847571Y-89364235D01*
X167823773Y-89370196D01*
X167799504Y-89373796D01*
X167775000Y-89375000D01*
X167025000Y-89375000D01*
X167000496Y-89373796D01*
X166976227Y-89370196D01*
X166952429Y-89364235D01*
X166929329Y-89355970D01*
X166907151Y-89345480D01*
X166886107Y-89332867D01*
X166866402Y-89318253D01*
X166848223Y-89301777D01*
X166831747Y-89283598D01*
X166817133Y-89263893D01*
X166804520Y-89242849D01*
X166794030Y-89220671D01*
X166785765Y-89197571D01*
X166779804Y-89173773D01*
X166776204Y-89149504D01*
X166775000Y-89125000D01*
X166775000Y-87875000D01*
X166776204Y-87850496D01*
X166779804Y-87826227D01*
X166785765Y-87802429D01*
X166794030Y-87779329D01*
X166804520Y-87757151D01*
X166817133Y-87736107D01*
X166831747Y-87716402D01*
X166848223Y-87698223D01*
X166866402Y-87681747D01*
X166886107Y-87667133D01*
X166907151Y-87654520D01*
X166929329Y-87644030D01*
X166952429Y-87635765D01*
X166976227Y-87629804D01*
X167000496Y-87626204D01*
X167025000Y-87625000D01*
X167775000Y-87625000D01*
X167799504Y-87626204D01*
X167799504Y-87626204D01*
G37*
D15*
X167400000Y-88500000D03*
D10*
G36*
X164999504Y-87626204D02*
G01*
X165023773Y-87629804D01*
X165047571Y-87635765D01*
X165070671Y-87644030D01*
X165092849Y-87654520D01*
X165113893Y-87667133D01*
X165133598Y-87681747D01*
X165151777Y-87698223D01*
X165168253Y-87716402D01*
X165182867Y-87736107D01*
X165195480Y-87757151D01*
X165205970Y-87779329D01*
X165214235Y-87802429D01*
X165220196Y-87826227D01*
X165223796Y-87850496D01*
X165225000Y-87875000D01*
X165225000Y-89125000D01*
X165223796Y-89149504D01*
X165220196Y-89173773D01*
X165214235Y-89197571D01*
X165205970Y-89220671D01*
X165195480Y-89242849D01*
X165182867Y-89263893D01*
X165168253Y-89283598D01*
X165151777Y-89301777D01*
X165133598Y-89318253D01*
X165113893Y-89332867D01*
X165092849Y-89345480D01*
X165070671Y-89355970D01*
X165047571Y-89364235D01*
X165023773Y-89370196D01*
X164999504Y-89373796D01*
X164975000Y-89375000D01*
X164225000Y-89375000D01*
X164200496Y-89373796D01*
X164176227Y-89370196D01*
X164152429Y-89364235D01*
X164129329Y-89355970D01*
X164107151Y-89345480D01*
X164086107Y-89332867D01*
X164066402Y-89318253D01*
X164048223Y-89301777D01*
X164031747Y-89283598D01*
X164017133Y-89263893D01*
X164004520Y-89242849D01*
X163994030Y-89220671D01*
X163985765Y-89197571D01*
X163979804Y-89173773D01*
X163976204Y-89149504D01*
X163975000Y-89125000D01*
X163975000Y-87875000D01*
X163976204Y-87850496D01*
X163979804Y-87826227D01*
X163985765Y-87802429D01*
X163994030Y-87779329D01*
X164004520Y-87757151D01*
X164017133Y-87736107D01*
X164031747Y-87716402D01*
X164048223Y-87698223D01*
X164066402Y-87681747D01*
X164086107Y-87667133D01*
X164107151Y-87654520D01*
X164129329Y-87644030D01*
X164152429Y-87635765D01*
X164176227Y-87629804D01*
X164200496Y-87626204D01*
X164225000Y-87625000D01*
X164975000Y-87625000D01*
X164999504Y-87626204D01*
X164999504Y-87626204D01*
G37*
D15*
X164600000Y-88500000D03*
D21*
X172650000Y-90300000D03*
X172650000Y-91250000D03*
X172650000Y-92200000D03*
X174850000Y-92200000D03*
X174850000Y-90300000D03*
D22*
X184800000Y-75710000D03*
X184800000Y-81190000D03*
D23*
X184050000Y-81410000D03*
X184050000Y-75460000D03*
D24*
X182750000Y-81310000D03*
X182730000Y-75560000D03*
D25*
X182850000Y-79760000D03*
X182850000Y-79110000D03*
X182850000Y-78460000D03*
X182850000Y-77810000D03*
X182850000Y-77160000D03*
D26*
X186000000Y-79420000D03*
X186000000Y-77500000D03*
D27*
X136750000Y-78850000D03*
X140900000Y-78850000D03*
X136750000Y-81000000D03*
X140900000Y-81000000D03*
X147575000Y-81075000D03*
X143425000Y-81075000D03*
X147575000Y-78925000D03*
X143425000Y-78925000D03*
D10*
G36*
X113089703Y-62415722D02*
G01*
X113104264Y-62417882D01*
X113118543Y-62421459D01*
X113132403Y-62426418D01*
X113145710Y-62432712D01*
X113158336Y-62440280D01*
X113170159Y-62449048D01*
X113181066Y-62458934D01*
X113190952Y-62469841D01*
X113199720Y-62481664D01*
X113207288Y-62494290D01*
X113213582Y-62507597D01*
X113218541Y-62521457D01*
X113222118Y-62535736D01*
X113224278Y-62550297D01*
X113225000Y-62565000D01*
X113225000Y-63235000D01*
X113224278Y-63249703D01*
X113222118Y-63264264D01*
X113218541Y-63278543D01*
X113213582Y-63292403D01*
X113207288Y-63305710D01*
X113199720Y-63318336D01*
X113190952Y-63330159D01*
X113181066Y-63341066D01*
X113170159Y-63350952D01*
X113158336Y-63359720D01*
X113145710Y-63367288D01*
X113132403Y-63373582D01*
X113118543Y-63378541D01*
X113104264Y-63382118D01*
X113089703Y-63384278D01*
X113075000Y-63385000D01*
X112775000Y-63385000D01*
X112760297Y-63384278D01*
X112745736Y-63382118D01*
X112731457Y-63378541D01*
X112717597Y-63373582D01*
X112704290Y-63367288D01*
X112691664Y-63359720D01*
X112679841Y-63350952D01*
X112668934Y-63341066D01*
X112659048Y-63330159D01*
X112650280Y-63318336D01*
X112642712Y-63305710D01*
X112636418Y-63292403D01*
X112631459Y-63278543D01*
X112627882Y-63264264D01*
X112625722Y-63249703D01*
X112625000Y-63235000D01*
X112625000Y-62565000D01*
X112625722Y-62550297D01*
X112627882Y-62535736D01*
X112631459Y-62521457D01*
X112636418Y-62507597D01*
X112642712Y-62494290D01*
X112650280Y-62481664D01*
X112659048Y-62469841D01*
X112668934Y-62458934D01*
X112679841Y-62449048D01*
X112691664Y-62440280D01*
X112704290Y-62432712D01*
X112717597Y-62426418D01*
X112731457Y-62421459D01*
X112745736Y-62417882D01*
X112760297Y-62415722D01*
X112775000Y-62415000D01*
X113075000Y-62415000D01*
X113089703Y-62415722D01*
X113089703Y-62415722D01*
G37*
D28*
X112925000Y-62900000D03*
D10*
G36*
X113089703Y-63615722D02*
G01*
X113104264Y-63617882D01*
X113118543Y-63621459D01*
X113132403Y-63626418D01*
X113145710Y-63632712D01*
X113158336Y-63640280D01*
X113170159Y-63649048D01*
X113181066Y-63658934D01*
X113190952Y-63669841D01*
X113199720Y-63681664D01*
X113207288Y-63694290D01*
X113213582Y-63707597D01*
X113218541Y-63721457D01*
X113222118Y-63735736D01*
X113224278Y-63750297D01*
X113225000Y-63765000D01*
X113225000Y-64435000D01*
X113224278Y-64449703D01*
X113222118Y-64464264D01*
X113218541Y-64478543D01*
X113213582Y-64492403D01*
X113207288Y-64505710D01*
X113199720Y-64518336D01*
X113190952Y-64530159D01*
X113181066Y-64541066D01*
X113170159Y-64550952D01*
X113158336Y-64559720D01*
X113145710Y-64567288D01*
X113132403Y-64573582D01*
X113118543Y-64578541D01*
X113104264Y-64582118D01*
X113089703Y-64584278D01*
X113075000Y-64585000D01*
X112775000Y-64585000D01*
X112760297Y-64584278D01*
X112745736Y-64582118D01*
X112731457Y-64578541D01*
X112717597Y-64573582D01*
X112704290Y-64567288D01*
X112691664Y-64559720D01*
X112679841Y-64550952D01*
X112668934Y-64541066D01*
X112659048Y-64530159D01*
X112650280Y-64518336D01*
X112642712Y-64505710D01*
X112636418Y-64492403D01*
X112631459Y-64478543D01*
X112627882Y-64464264D01*
X112625722Y-64449703D01*
X112625000Y-64435000D01*
X112625000Y-63765000D01*
X112625722Y-63750297D01*
X112627882Y-63735736D01*
X112631459Y-63721457D01*
X112636418Y-63707597D01*
X112642712Y-63694290D01*
X112650280Y-63681664D01*
X112659048Y-63669841D01*
X112668934Y-63658934D01*
X112679841Y-63649048D01*
X112691664Y-63640280D01*
X112704290Y-63632712D01*
X112717597Y-63626418D01*
X112731457Y-63621459D01*
X112745736Y-63617882D01*
X112760297Y-63615722D01*
X112775000Y-63615000D01*
X113075000Y-63615000D01*
X113089703Y-63615722D01*
X113089703Y-63615722D01*
G37*
D28*
X112925000Y-64100000D03*
D10*
G36*
X113839703Y-62415722D02*
G01*
X113854264Y-62417882D01*
X113868543Y-62421459D01*
X113882403Y-62426418D01*
X113895710Y-62432712D01*
X113908336Y-62440280D01*
X113920159Y-62449048D01*
X113931066Y-62458934D01*
X113940952Y-62469841D01*
X113949720Y-62481664D01*
X113957288Y-62494290D01*
X113963582Y-62507597D01*
X113968541Y-62521457D01*
X113972118Y-62535736D01*
X113974278Y-62550297D01*
X113975000Y-62565000D01*
X113975000Y-63235000D01*
X113974278Y-63249703D01*
X113972118Y-63264264D01*
X113968541Y-63278543D01*
X113963582Y-63292403D01*
X113957288Y-63305710D01*
X113949720Y-63318336D01*
X113940952Y-63330159D01*
X113931066Y-63341066D01*
X113920159Y-63350952D01*
X113908336Y-63359720D01*
X113895710Y-63367288D01*
X113882403Y-63373582D01*
X113868543Y-63378541D01*
X113854264Y-63382118D01*
X113839703Y-63384278D01*
X113825000Y-63385000D01*
X113525000Y-63385000D01*
X113510297Y-63384278D01*
X113495736Y-63382118D01*
X113481457Y-63378541D01*
X113467597Y-63373582D01*
X113454290Y-63367288D01*
X113441664Y-63359720D01*
X113429841Y-63350952D01*
X113418934Y-63341066D01*
X113409048Y-63330159D01*
X113400280Y-63318336D01*
X113392712Y-63305710D01*
X113386418Y-63292403D01*
X113381459Y-63278543D01*
X113377882Y-63264264D01*
X113375722Y-63249703D01*
X113375000Y-63235000D01*
X113375000Y-62565000D01*
X113375722Y-62550297D01*
X113377882Y-62535736D01*
X113381459Y-62521457D01*
X113386418Y-62507597D01*
X113392712Y-62494290D01*
X113400280Y-62481664D01*
X113409048Y-62469841D01*
X113418934Y-62458934D01*
X113429841Y-62449048D01*
X113441664Y-62440280D01*
X113454290Y-62432712D01*
X113467597Y-62426418D01*
X113481457Y-62421459D01*
X113495736Y-62417882D01*
X113510297Y-62415722D01*
X113525000Y-62415000D01*
X113825000Y-62415000D01*
X113839703Y-62415722D01*
X113839703Y-62415722D01*
G37*
D28*
X113675000Y-62900000D03*
D10*
G36*
X113839703Y-63615722D02*
G01*
X113854264Y-63617882D01*
X113868543Y-63621459D01*
X113882403Y-63626418D01*
X113895710Y-63632712D01*
X113908336Y-63640280D01*
X113920159Y-63649048D01*
X113931066Y-63658934D01*
X113940952Y-63669841D01*
X113949720Y-63681664D01*
X113957288Y-63694290D01*
X113963582Y-63707597D01*
X113968541Y-63721457D01*
X113972118Y-63735736D01*
X113974278Y-63750297D01*
X113975000Y-63765000D01*
X113975000Y-64435000D01*
X113974278Y-64449703D01*
X113972118Y-64464264D01*
X113968541Y-64478543D01*
X113963582Y-64492403D01*
X113957288Y-64505710D01*
X113949720Y-64518336D01*
X113940952Y-64530159D01*
X113931066Y-64541066D01*
X113920159Y-64550952D01*
X113908336Y-64559720D01*
X113895710Y-64567288D01*
X113882403Y-64573582D01*
X113868543Y-64578541D01*
X113854264Y-64582118D01*
X113839703Y-64584278D01*
X113825000Y-64585000D01*
X113525000Y-64585000D01*
X113510297Y-64584278D01*
X113495736Y-64582118D01*
X113481457Y-64578541D01*
X113467597Y-64573582D01*
X113454290Y-64567288D01*
X113441664Y-64559720D01*
X113429841Y-64550952D01*
X113418934Y-64541066D01*
X113409048Y-64530159D01*
X113400280Y-64518336D01*
X113392712Y-64505710D01*
X113386418Y-64492403D01*
X113381459Y-64478543D01*
X113377882Y-64464264D01*
X113375722Y-64449703D01*
X113375000Y-64435000D01*
X113375000Y-63765000D01*
X113375722Y-63750297D01*
X113377882Y-63735736D01*
X113381459Y-63721457D01*
X113386418Y-63707597D01*
X113392712Y-63694290D01*
X113400280Y-63681664D01*
X113409048Y-63669841D01*
X113418934Y-63658934D01*
X113429841Y-63649048D01*
X113441664Y-63640280D01*
X113454290Y-63632712D01*
X113467597Y-63626418D01*
X113481457Y-63621459D01*
X113495736Y-63617882D01*
X113510297Y-63615722D01*
X113525000Y-63615000D01*
X113825000Y-63615000D01*
X113839703Y-63615722D01*
X113839703Y-63615722D01*
G37*
D28*
X113675000Y-64100000D03*
D10*
G36*
X112159802Y-62300482D02*
G01*
X112169509Y-62301921D01*
X112179028Y-62304306D01*
X112188268Y-62307612D01*
X112197140Y-62311808D01*
X112205557Y-62316853D01*
X112213439Y-62322699D01*
X112220711Y-62329289D01*
X112227301Y-62336561D01*
X112233147Y-62344443D01*
X112238192Y-62352860D01*
X112242388Y-62361732D01*
X112245694Y-62370972D01*
X112248079Y-62380491D01*
X112249518Y-62390198D01*
X112250000Y-62400000D01*
X112250000Y-62600000D01*
X112249518Y-62609802D01*
X112248079Y-62619509D01*
X112245694Y-62629028D01*
X112242388Y-62638268D01*
X112238192Y-62647140D01*
X112233147Y-62655557D01*
X112227301Y-62663439D01*
X112220711Y-62670711D01*
X112213439Y-62677301D01*
X112205557Y-62683147D01*
X112197140Y-62688192D01*
X112188268Y-62692388D01*
X112179028Y-62695694D01*
X112169509Y-62698079D01*
X112159802Y-62699518D01*
X112150000Y-62700000D01*
X111550000Y-62700000D01*
X111540198Y-62699518D01*
X111530491Y-62698079D01*
X111520972Y-62695694D01*
X111511732Y-62692388D01*
X111502860Y-62688192D01*
X111494443Y-62683147D01*
X111486561Y-62677301D01*
X111479289Y-62670711D01*
X111472699Y-62663439D01*
X111466853Y-62655557D01*
X111461808Y-62647140D01*
X111457612Y-62638268D01*
X111454306Y-62629028D01*
X111451921Y-62619509D01*
X111450482Y-62609802D01*
X111450000Y-62600000D01*
X111450000Y-62400000D01*
X111450482Y-62390198D01*
X111451921Y-62380491D01*
X111454306Y-62370972D01*
X111457612Y-62361732D01*
X111461808Y-62352860D01*
X111466853Y-62344443D01*
X111472699Y-62336561D01*
X111479289Y-62329289D01*
X111486561Y-62322699D01*
X111494443Y-62316853D01*
X111502860Y-62311808D01*
X111511732Y-62307612D01*
X111520972Y-62304306D01*
X111530491Y-62301921D01*
X111540198Y-62300482D01*
X111550000Y-62300000D01*
X112150000Y-62300000D01*
X112159802Y-62300482D01*
X112159802Y-62300482D01*
G37*
D29*
X111850000Y-62500000D03*
D10*
G36*
X112159802Y-63300482D02*
G01*
X112169509Y-63301921D01*
X112179028Y-63304306D01*
X112188268Y-63307612D01*
X112197140Y-63311808D01*
X112205557Y-63316853D01*
X112213439Y-63322699D01*
X112220711Y-63329289D01*
X112227301Y-63336561D01*
X112233147Y-63344443D01*
X112238192Y-63352860D01*
X112242388Y-63361732D01*
X112245694Y-63370972D01*
X112248079Y-63380491D01*
X112249518Y-63390198D01*
X112250000Y-63400000D01*
X112250000Y-63600000D01*
X112249518Y-63609802D01*
X112248079Y-63619509D01*
X112245694Y-63629028D01*
X112242388Y-63638268D01*
X112238192Y-63647140D01*
X112233147Y-63655557D01*
X112227301Y-63663439D01*
X112220711Y-63670711D01*
X112213439Y-63677301D01*
X112205557Y-63683147D01*
X112197140Y-63688192D01*
X112188268Y-63692388D01*
X112179028Y-63695694D01*
X112169509Y-63698079D01*
X112159802Y-63699518D01*
X112150000Y-63700000D01*
X111550000Y-63700000D01*
X111540198Y-63699518D01*
X111530491Y-63698079D01*
X111520972Y-63695694D01*
X111511732Y-63692388D01*
X111502860Y-63688192D01*
X111494443Y-63683147D01*
X111486561Y-63677301D01*
X111479289Y-63670711D01*
X111472699Y-63663439D01*
X111466853Y-63655557D01*
X111461808Y-63647140D01*
X111457612Y-63638268D01*
X111454306Y-63629028D01*
X111451921Y-63619509D01*
X111450482Y-63609802D01*
X111450000Y-63600000D01*
X111450000Y-63400000D01*
X111450482Y-63390198D01*
X111451921Y-63380491D01*
X111454306Y-63370972D01*
X111457612Y-63361732D01*
X111461808Y-63352860D01*
X111466853Y-63344443D01*
X111472699Y-63336561D01*
X111479289Y-63329289D01*
X111486561Y-63322699D01*
X111494443Y-63316853D01*
X111502860Y-63311808D01*
X111511732Y-63307612D01*
X111520972Y-63304306D01*
X111530491Y-63301921D01*
X111540198Y-63300482D01*
X111550000Y-63300000D01*
X112150000Y-63300000D01*
X112159802Y-63300482D01*
X112159802Y-63300482D01*
G37*
D29*
X111850000Y-63500000D03*
D10*
G36*
X112159802Y-64300482D02*
G01*
X112169509Y-64301921D01*
X112179028Y-64304306D01*
X112188268Y-64307612D01*
X112197140Y-64311808D01*
X112205557Y-64316853D01*
X112213439Y-64322699D01*
X112220711Y-64329289D01*
X112227301Y-64336561D01*
X112233147Y-64344443D01*
X112238192Y-64352860D01*
X112242388Y-64361732D01*
X112245694Y-64370972D01*
X112248079Y-64380491D01*
X112249518Y-64390198D01*
X112250000Y-64400000D01*
X112250000Y-64600000D01*
X112249518Y-64609802D01*
X112248079Y-64619509D01*
X112245694Y-64629028D01*
X112242388Y-64638268D01*
X112238192Y-64647140D01*
X112233147Y-64655557D01*
X112227301Y-64663439D01*
X112220711Y-64670711D01*
X112213439Y-64677301D01*
X112205557Y-64683147D01*
X112197140Y-64688192D01*
X112188268Y-64692388D01*
X112179028Y-64695694D01*
X112169509Y-64698079D01*
X112159802Y-64699518D01*
X112150000Y-64700000D01*
X111550000Y-64700000D01*
X111540198Y-64699518D01*
X111530491Y-64698079D01*
X111520972Y-64695694D01*
X111511732Y-64692388D01*
X111502860Y-64688192D01*
X111494443Y-64683147D01*
X111486561Y-64677301D01*
X111479289Y-64670711D01*
X111472699Y-64663439D01*
X111466853Y-64655557D01*
X111461808Y-64647140D01*
X111457612Y-64638268D01*
X111454306Y-64629028D01*
X111451921Y-64619509D01*
X111450482Y-64609802D01*
X111450000Y-64600000D01*
X111450000Y-64400000D01*
X111450482Y-64390198D01*
X111451921Y-64380491D01*
X111454306Y-64370972D01*
X111457612Y-64361732D01*
X111461808Y-64352860D01*
X111466853Y-64344443D01*
X111472699Y-64336561D01*
X111479289Y-64329289D01*
X111486561Y-64322699D01*
X111494443Y-64316853D01*
X111502860Y-64311808D01*
X111511732Y-64307612D01*
X111520972Y-64304306D01*
X111530491Y-64301921D01*
X111540198Y-64300482D01*
X111550000Y-64300000D01*
X112150000Y-64300000D01*
X112159802Y-64300482D01*
X112159802Y-64300482D01*
G37*
D29*
X111850000Y-64500000D03*
D10*
G36*
X115059802Y-64300482D02*
G01*
X115069509Y-64301921D01*
X115079028Y-64304306D01*
X115088268Y-64307612D01*
X115097140Y-64311808D01*
X115105557Y-64316853D01*
X115113439Y-64322699D01*
X115120711Y-64329289D01*
X115127301Y-64336561D01*
X115133147Y-64344443D01*
X115138192Y-64352860D01*
X115142388Y-64361732D01*
X115145694Y-64370972D01*
X115148079Y-64380491D01*
X115149518Y-64390198D01*
X115150000Y-64400000D01*
X115150000Y-64600000D01*
X115149518Y-64609802D01*
X115148079Y-64619509D01*
X115145694Y-64629028D01*
X115142388Y-64638268D01*
X115138192Y-64647140D01*
X115133147Y-64655557D01*
X115127301Y-64663439D01*
X115120711Y-64670711D01*
X115113439Y-64677301D01*
X115105557Y-64683147D01*
X115097140Y-64688192D01*
X115088268Y-64692388D01*
X115079028Y-64695694D01*
X115069509Y-64698079D01*
X115059802Y-64699518D01*
X115050000Y-64700000D01*
X114450000Y-64700000D01*
X114440198Y-64699518D01*
X114430491Y-64698079D01*
X114420972Y-64695694D01*
X114411732Y-64692388D01*
X114402860Y-64688192D01*
X114394443Y-64683147D01*
X114386561Y-64677301D01*
X114379289Y-64670711D01*
X114372699Y-64663439D01*
X114366853Y-64655557D01*
X114361808Y-64647140D01*
X114357612Y-64638268D01*
X114354306Y-64629028D01*
X114351921Y-64619509D01*
X114350482Y-64609802D01*
X114350000Y-64600000D01*
X114350000Y-64400000D01*
X114350482Y-64390198D01*
X114351921Y-64380491D01*
X114354306Y-64370972D01*
X114357612Y-64361732D01*
X114361808Y-64352860D01*
X114366853Y-64344443D01*
X114372699Y-64336561D01*
X114379289Y-64329289D01*
X114386561Y-64322699D01*
X114394443Y-64316853D01*
X114402860Y-64311808D01*
X114411732Y-64307612D01*
X114420972Y-64304306D01*
X114430491Y-64301921D01*
X114440198Y-64300482D01*
X114450000Y-64300000D01*
X115050000Y-64300000D01*
X115059802Y-64300482D01*
X115059802Y-64300482D01*
G37*
D29*
X114750000Y-64500000D03*
D10*
G36*
X115059802Y-63300482D02*
G01*
X115069509Y-63301921D01*
X115079028Y-63304306D01*
X115088268Y-63307612D01*
X115097140Y-63311808D01*
X115105557Y-63316853D01*
X115113439Y-63322699D01*
X115120711Y-63329289D01*
X115127301Y-63336561D01*
X115133147Y-63344443D01*
X115138192Y-63352860D01*
X115142388Y-63361732D01*
X115145694Y-63370972D01*
X115148079Y-63380491D01*
X115149518Y-63390198D01*
X115150000Y-63400000D01*
X115150000Y-63600000D01*
X115149518Y-63609802D01*
X115148079Y-63619509D01*
X115145694Y-63629028D01*
X115142388Y-63638268D01*
X115138192Y-63647140D01*
X115133147Y-63655557D01*
X115127301Y-63663439D01*
X115120711Y-63670711D01*
X115113439Y-63677301D01*
X115105557Y-63683147D01*
X115097140Y-63688192D01*
X115088268Y-63692388D01*
X115079028Y-63695694D01*
X115069509Y-63698079D01*
X115059802Y-63699518D01*
X115050000Y-63700000D01*
X114450000Y-63700000D01*
X114440198Y-63699518D01*
X114430491Y-63698079D01*
X114420972Y-63695694D01*
X114411732Y-63692388D01*
X114402860Y-63688192D01*
X114394443Y-63683147D01*
X114386561Y-63677301D01*
X114379289Y-63670711D01*
X114372699Y-63663439D01*
X114366853Y-63655557D01*
X114361808Y-63647140D01*
X114357612Y-63638268D01*
X114354306Y-63629028D01*
X114351921Y-63619509D01*
X114350482Y-63609802D01*
X114350000Y-63600000D01*
X114350000Y-63400000D01*
X114350482Y-63390198D01*
X114351921Y-63380491D01*
X114354306Y-63370972D01*
X114357612Y-63361732D01*
X114361808Y-63352860D01*
X114366853Y-63344443D01*
X114372699Y-63336561D01*
X114379289Y-63329289D01*
X114386561Y-63322699D01*
X114394443Y-63316853D01*
X114402860Y-63311808D01*
X114411732Y-63307612D01*
X114420972Y-63304306D01*
X114430491Y-63301921D01*
X114440198Y-63300482D01*
X114450000Y-63300000D01*
X115050000Y-63300000D01*
X115059802Y-63300482D01*
X115059802Y-63300482D01*
G37*
D29*
X114750000Y-63500000D03*
D10*
G36*
X115059802Y-62300482D02*
G01*
X115069509Y-62301921D01*
X115079028Y-62304306D01*
X115088268Y-62307612D01*
X115097140Y-62311808D01*
X115105557Y-62316853D01*
X115113439Y-62322699D01*
X115120711Y-62329289D01*
X115127301Y-62336561D01*
X115133147Y-62344443D01*
X115138192Y-62352860D01*
X115142388Y-62361732D01*
X115145694Y-62370972D01*
X115148079Y-62380491D01*
X115149518Y-62390198D01*
X115150000Y-62400000D01*
X115150000Y-62600000D01*
X115149518Y-62609802D01*
X115148079Y-62619509D01*
X115145694Y-62629028D01*
X115142388Y-62638268D01*
X115138192Y-62647140D01*
X115133147Y-62655557D01*
X115127301Y-62663439D01*
X115120711Y-62670711D01*
X115113439Y-62677301D01*
X115105557Y-62683147D01*
X115097140Y-62688192D01*
X115088268Y-62692388D01*
X115079028Y-62695694D01*
X115069509Y-62698079D01*
X115059802Y-62699518D01*
X115050000Y-62700000D01*
X114450000Y-62700000D01*
X114440198Y-62699518D01*
X114430491Y-62698079D01*
X114420972Y-62695694D01*
X114411732Y-62692388D01*
X114402860Y-62688192D01*
X114394443Y-62683147D01*
X114386561Y-62677301D01*
X114379289Y-62670711D01*
X114372699Y-62663439D01*
X114366853Y-62655557D01*
X114361808Y-62647140D01*
X114357612Y-62638268D01*
X114354306Y-62629028D01*
X114351921Y-62619509D01*
X114350482Y-62609802D01*
X114350000Y-62600000D01*
X114350000Y-62400000D01*
X114350482Y-62390198D01*
X114351921Y-62380491D01*
X114354306Y-62370972D01*
X114357612Y-62361732D01*
X114361808Y-62352860D01*
X114366853Y-62344443D01*
X114372699Y-62336561D01*
X114379289Y-62329289D01*
X114386561Y-62322699D01*
X114394443Y-62316853D01*
X114402860Y-62311808D01*
X114411732Y-62307612D01*
X114420972Y-62304306D01*
X114430491Y-62301921D01*
X114440198Y-62300482D01*
X114450000Y-62300000D01*
X115050000Y-62300000D01*
X115059802Y-62300482D01*
X115059802Y-62300482D01*
G37*
D29*
X114750000Y-62500000D03*
D10*
G36*
X139899504Y-76126204D02*
G01*
X139923773Y-76129804D01*
X139947571Y-76135765D01*
X139970671Y-76144030D01*
X139992849Y-76154520D01*
X140013893Y-76167133D01*
X140033598Y-76181747D01*
X140051777Y-76198223D01*
X140068253Y-76216402D01*
X140082867Y-76236107D01*
X140095480Y-76257151D01*
X140105970Y-76279329D01*
X140114235Y-76302429D01*
X140120196Y-76326227D01*
X140123796Y-76350496D01*
X140125000Y-76375000D01*
X140125000Y-77125000D01*
X140123796Y-77149504D01*
X140120196Y-77173773D01*
X140114235Y-77197571D01*
X140105970Y-77220671D01*
X140095480Y-77242849D01*
X140082867Y-77263893D01*
X140068253Y-77283598D01*
X140051777Y-77301777D01*
X140033598Y-77318253D01*
X140013893Y-77332867D01*
X139992849Y-77345480D01*
X139970671Y-77355970D01*
X139947571Y-77364235D01*
X139923773Y-77370196D01*
X139899504Y-77373796D01*
X139875000Y-77375000D01*
X138625000Y-77375000D01*
X138600496Y-77373796D01*
X138576227Y-77370196D01*
X138552429Y-77364235D01*
X138529329Y-77355970D01*
X138507151Y-77345480D01*
X138486107Y-77332867D01*
X138466402Y-77318253D01*
X138448223Y-77301777D01*
X138431747Y-77283598D01*
X138417133Y-77263893D01*
X138404520Y-77242849D01*
X138394030Y-77220671D01*
X138385765Y-77197571D01*
X138379804Y-77173773D01*
X138376204Y-77149504D01*
X138375000Y-77125000D01*
X138375000Y-76375000D01*
X138376204Y-76350496D01*
X138379804Y-76326227D01*
X138385765Y-76302429D01*
X138394030Y-76279329D01*
X138404520Y-76257151D01*
X138417133Y-76236107D01*
X138431747Y-76216402D01*
X138448223Y-76198223D01*
X138466402Y-76181747D01*
X138486107Y-76167133D01*
X138507151Y-76154520D01*
X138529329Y-76144030D01*
X138552429Y-76135765D01*
X138576227Y-76129804D01*
X138600496Y-76126204D01*
X138625000Y-76125000D01*
X139875000Y-76125000D01*
X139899504Y-76126204D01*
X139899504Y-76126204D01*
G37*
D15*
X139250000Y-76750000D03*
D10*
G36*
X139899504Y-73326204D02*
G01*
X139923773Y-73329804D01*
X139947571Y-73335765D01*
X139970671Y-73344030D01*
X139992849Y-73354520D01*
X140013893Y-73367133D01*
X140033598Y-73381747D01*
X140051777Y-73398223D01*
X140068253Y-73416402D01*
X140082867Y-73436107D01*
X140095480Y-73457151D01*
X140105970Y-73479329D01*
X140114235Y-73502429D01*
X140120196Y-73526227D01*
X140123796Y-73550496D01*
X140125000Y-73575000D01*
X140125000Y-74325000D01*
X140123796Y-74349504D01*
X140120196Y-74373773D01*
X140114235Y-74397571D01*
X140105970Y-74420671D01*
X140095480Y-74442849D01*
X140082867Y-74463893D01*
X140068253Y-74483598D01*
X140051777Y-74501777D01*
X140033598Y-74518253D01*
X140013893Y-74532867D01*
X139992849Y-74545480D01*
X139970671Y-74555970D01*
X139947571Y-74564235D01*
X139923773Y-74570196D01*
X139899504Y-74573796D01*
X139875000Y-74575000D01*
X138625000Y-74575000D01*
X138600496Y-74573796D01*
X138576227Y-74570196D01*
X138552429Y-74564235D01*
X138529329Y-74555970D01*
X138507151Y-74545480D01*
X138486107Y-74532867D01*
X138466402Y-74518253D01*
X138448223Y-74501777D01*
X138431747Y-74483598D01*
X138417133Y-74463893D01*
X138404520Y-74442849D01*
X138394030Y-74420671D01*
X138385765Y-74397571D01*
X138379804Y-74373773D01*
X138376204Y-74349504D01*
X138375000Y-74325000D01*
X138375000Y-73575000D01*
X138376204Y-73550496D01*
X138379804Y-73526227D01*
X138385765Y-73502429D01*
X138394030Y-73479329D01*
X138404520Y-73457151D01*
X138417133Y-73436107D01*
X138431747Y-73416402D01*
X138448223Y-73398223D01*
X138466402Y-73381747D01*
X138486107Y-73367133D01*
X138507151Y-73354520D01*
X138529329Y-73344030D01*
X138552429Y-73335765D01*
X138576227Y-73329804D01*
X138600496Y-73326204D01*
X138625000Y-73325000D01*
X139875000Y-73325000D01*
X139899504Y-73326204D01*
X139899504Y-73326204D01*
G37*
D15*
X139250000Y-73950000D03*
D10*
G36*
X139899504Y-68326204D02*
G01*
X139923773Y-68329804D01*
X139947571Y-68335765D01*
X139970671Y-68344030D01*
X139992849Y-68354520D01*
X140013893Y-68367133D01*
X140033598Y-68381747D01*
X140051777Y-68398223D01*
X140068253Y-68416402D01*
X140082867Y-68436107D01*
X140095480Y-68457151D01*
X140105970Y-68479329D01*
X140114235Y-68502429D01*
X140120196Y-68526227D01*
X140123796Y-68550496D01*
X140125000Y-68575000D01*
X140125000Y-69325000D01*
X140123796Y-69349504D01*
X140120196Y-69373773D01*
X140114235Y-69397571D01*
X140105970Y-69420671D01*
X140095480Y-69442849D01*
X140082867Y-69463893D01*
X140068253Y-69483598D01*
X140051777Y-69501777D01*
X140033598Y-69518253D01*
X140013893Y-69532867D01*
X139992849Y-69545480D01*
X139970671Y-69555970D01*
X139947571Y-69564235D01*
X139923773Y-69570196D01*
X139899504Y-69573796D01*
X139875000Y-69575000D01*
X138625000Y-69575000D01*
X138600496Y-69573796D01*
X138576227Y-69570196D01*
X138552429Y-69564235D01*
X138529329Y-69555970D01*
X138507151Y-69545480D01*
X138486107Y-69532867D01*
X138466402Y-69518253D01*
X138448223Y-69501777D01*
X138431747Y-69483598D01*
X138417133Y-69463893D01*
X138404520Y-69442849D01*
X138394030Y-69420671D01*
X138385765Y-69397571D01*
X138379804Y-69373773D01*
X138376204Y-69349504D01*
X138375000Y-69325000D01*
X138375000Y-68575000D01*
X138376204Y-68550496D01*
X138379804Y-68526227D01*
X138385765Y-68502429D01*
X138394030Y-68479329D01*
X138404520Y-68457151D01*
X138417133Y-68436107D01*
X138431747Y-68416402D01*
X138448223Y-68398223D01*
X138466402Y-68381747D01*
X138486107Y-68367133D01*
X138507151Y-68354520D01*
X138529329Y-68344030D01*
X138552429Y-68335765D01*
X138576227Y-68329804D01*
X138600496Y-68326204D01*
X138625000Y-68325000D01*
X139875000Y-68325000D01*
X139899504Y-68326204D01*
X139899504Y-68326204D01*
G37*
D15*
X139250000Y-68950000D03*
D10*
G36*
X139899504Y-71126204D02*
G01*
X139923773Y-71129804D01*
X139947571Y-71135765D01*
X139970671Y-71144030D01*
X139992849Y-71154520D01*
X140013893Y-71167133D01*
X140033598Y-71181747D01*
X140051777Y-71198223D01*
X140068253Y-71216402D01*
X140082867Y-71236107D01*
X140095480Y-71257151D01*
X140105970Y-71279329D01*
X140114235Y-71302429D01*
X140120196Y-71326227D01*
X140123796Y-71350496D01*
X140125000Y-71375000D01*
X140125000Y-72125000D01*
X140123796Y-72149504D01*
X140120196Y-72173773D01*
X140114235Y-72197571D01*
X140105970Y-72220671D01*
X140095480Y-72242849D01*
X140082867Y-72263893D01*
X140068253Y-72283598D01*
X140051777Y-72301777D01*
X140033598Y-72318253D01*
X140013893Y-72332867D01*
X139992849Y-72345480D01*
X139970671Y-72355970D01*
X139947571Y-72364235D01*
X139923773Y-72370196D01*
X139899504Y-72373796D01*
X139875000Y-72375000D01*
X138625000Y-72375000D01*
X138600496Y-72373796D01*
X138576227Y-72370196D01*
X138552429Y-72364235D01*
X138529329Y-72355970D01*
X138507151Y-72345480D01*
X138486107Y-72332867D01*
X138466402Y-72318253D01*
X138448223Y-72301777D01*
X138431747Y-72283598D01*
X138417133Y-72263893D01*
X138404520Y-72242849D01*
X138394030Y-72220671D01*
X138385765Y-72197571D01*
X138379804Y-72173773D01*
X138376204Y-72149504D01*
X138375000Y-72125000D01*
X138375000Y-71375000D01*
X138376204Y-71350496D01*
X138379804Y-71326227D01*
X138385765Y-71302429D01*
X138394030Y-71279329D01*
X138404520Y-71257151D01*
X138417133Y-71236107D01*
X138431747Y-71216402D01*
X138448223Y-71198223D01*
X138466402Y-71181747D01*
X138486107Y-71167133D01*
X138507151Y-71154520D01*
X138529329Y-71144030D01*
X138552429Y-71135765D01*
X138576227Y-71129804D01*
X138600496Y-71126204D01*
X138625000Y-71125000D01*
X139875000Y-71125000D01*
X139899504Y-71126204D01*
X139899504Y-71126204D01*
G37*
D15*
X139250000Y-71750000D03*
D10*
G36*
X148774504Y-97651204D02*
G01*
X148798773Y-97654804D01*
X148822571Y-97660765D01*
X148845671Y-97669030D01*
X148867849Y-97679520D01*
X148888893Y-97692133D01*
X148908598Y-97706747D01*
X148926777Y-97723223D01*
X148943253Y-97741402D01*
X148957867Y-97761107D01*
X148970480Y-97782151D01*
X148980970Y-97804329D01*
X148989235Y-97827429D01*
X148995196Y-97851227D01*
X148998796Y-97875496D01*
X149000000Y-97900000D01*
X149000000Y-100900000D01*
X148998796Y-100924504D01*
X148995196Y-100948773D01*
X148989235Y-100972571D01*
X148980970Y-100995671D01*
X148970480Y-101017849D01*
X148957867Y-101038893D01*
X148943253Y-101058598D01*
X148926777Y-101076777D01*
X148908598Y-101093253D01*
X148888893Y-101107867D01*
X148867849Y-101120480D01*
X148845671Y-101130970D01*
X148822571Y-101139235D01*
X148798773Y-101145196D01*
X148774504Y-101148796D01*
X148750000Y-101150000D01*
X148250000Y-101150000D01*
X148225496Y-101148796D01*
X148201227Y-101145196D01*
X148177429Y-101139235D01*
X148154329Y-101130970D01*
X148132151Y-101120480D01*
X148111107Y-101107867D01*
X148091402Y-101093253D01*
X148073223Y-101076777D01*
X148056747Y-101058598D01*
X148042133Y-101038893D01*
X148029520Y-101017849D01*
X148019030Y-100995671D01*
X148010765Y-100972571D01*
X148004804Y-100948773D01*
X148001204Y-100924504D01*
X148000000Y-100900000D01*
X148000000Y-97900000D01*
X148001204Y-97875496D01*
X148004804Y-97851227D01*
X148010765Y-97827429D01*
X148019030Y-97804329D01*
X148029520Y-97782151D01*
X148042133Y-97761107D01*
X148056747Y-97741402D01*
X148073223Y-97723223D01*
X148091402Y-97706747D01*
X148111107Y-97692133D01*
X148132151Y-97679520D01*
X148154329Y-97669030D01*
X148177429Y-97660765D01*
X148201227Y-97654804D01*
X148225496Y-97651204D01*
X148250000Y-97650000D01*
X148750000Y-97650000D01*
X148774504Y-97651204D01*
X148774504Y-97651204D01*
G37*
D30*
X148500000Y-99400000D03*
D10*
G36*
X150774504Y-97651204D02*
G01*
X150798773Y-97654804D01*
X150822571Y-97660765D01*
X150845671Y-97669030D01*
X150867849Y-97679520D01*
X150888893Y-97692133D01*
X150908598Y-97706747D01*
X150926777Y-97723223D01*
X150943253Y-97741402D01*
X150957867Y-97761107D01*
X150970480Y-97782151D01*
X150980970Y-97804329D01*
X150989235Y-97827429D01*
X150995196Y-97851227D01*
X150998796Y-97875496D01*
X151000000Y-97900000D01*
X151000000Y-100900000D01*
X150998796Y-100924504D01*
X150995196Y-100948773D01*
X150989235Y-100972571D01*
X150980970Y-100995671D01*
X150970480Y-101017849D01*
X150957867Y-101038893D01*
X150943253Y-101058598D01*
X150926777Y-101076777D01*
X150908598Y-101093253D01*
X150888893Y-101107867D01*
X150867849Y-101120480D01*
X150845671Y-101130970D01*
X150822571Y-101139235D01*
X150798773Y-101145196D01*
X150774504Y-101148796D01*
X150750000Y-101150000D01*
X150250000Y-101150000D01*
X150225496Y-101148796D01*
X150201227Y-101145196D01*
X150177429Y-101139235D01*
X150154329Y-101130970D01*
X150132151Y-101120480D01*
X150111107Y-101107867D01*
X150091402Y-101093253D01*
X150073223Y-101076777D01*
X150056747Y-101058598D01*
X150042133Y-101038893D01*
X150029520Y-101017849D01*
X150019030Y-100995671D01*
X150010765Y-100972571D01*
X150004804Y-100948773D01*
X150001204Y-100924504D01*
X150000000Y-100900000D01*
X150000000Y-97900000D01*
X150001204Y-97875496D01*
X150004804Y-97851227D01*
X150010765Y-97827429D01*
X150019030Y-97804329D01*
X150029520Y-97782151D01*
X150042133Y-97761107D01*
X150056747Y-97741402D01*
X150073223Y-97723223D01*
X150091402Y-97706747D01*
X150111107Y-97692133D01*
X150132151Y-97679520D01*
X150154329Y-97669030D01*
X150177429Y-97660765D01*
X150201227Y-97654804D01*
X150225496Y-97651204D01*
X150250000Y-97650000D01*
X150750000Y-97650000D01*
X150774504Y-97651204D01*
X150774504Y-97651204D01*
G37*
D30*
X150500000Y-99400000D03*
D10*
G36*
X146674504Y-103451204D02*
G01*
X146698773Y-103454804D01*
X146722571Y-103460765D01*
X146745671Y-103469030D01*
X146767849Y-103479520D01*
X146788893Y-103492133D01*
X146808598Y-103506747D01*
X146826777Y-103523223D01*
X146843253Y-103541402D01*
X146857867Y-103561107D01*
X146870480Y-103582151D01*
X146880970Y-103604329D01*
X146889235Y-103627429D01*
X146895196Y-103651227D01*
X146898796Y-103675496D01*
X146900000Y-103700000D01*
X146900000Y-106600000D01*
X146898796Y-106624504D01*
X146895196Y-106648773D01*
X146889235Y-106672571D01*
X146880970Y-106695671D01*
X146870480Y-106717849D01*
X146857867Y-106738893D01*
X146843253Y-106758598D01*
X146826777Y-106776777D01*
X146808598Y-106793253D01*
X146788893Y-106807867D01*
X146767849Y-106820480D01*
X146745671Y-106830970D01*
X146722571Y-106839235D01*
X146698773Y-106845196D01*
X146674504Y-106848796D01*
X146650000Y-106850000D01*
X145650000Y-106850000D01*
X145625496Y-106848796D01*
X145601227Y-106845196D01*
X145577429Y-106839235D01*
X145554329Y-106830970D01*
X145532151Y-106820480D01*
X145511107Y-106807867D01*
X145491402Y-106793253D01*
X145473223Y-106776777D01*
X145456747Y-106758598D01*
X145442133Y-106738893D01*
X145429520Y-106717849D01*
X145419030Y-106695671D01*
X145410765Y-106672571D01*
X145404804Y-106648773D01*
X145401204Y-106624504D01*
X145400000Y-106600000D01*
X145400000Y-103700000D01*
X145401204Y-103675496D01*
X145404804Y-103651227D01*
X145410765Y-103627429D01*
X145419030Y-103604329D01*
X145429520Y-103582151D01*
X145442133Y-103561107D01*
X145456747Y-103541402D01*
X145473223Y-103523223D01*
X145491402Y-103506747D01*
X145511107Y-103492133D01*
X145532151Y-103479520D01*
X145554329Y-103469030D01*
X145577429Y-103460765D01*
X145601227Y-103454804D01*
X145625496Y-103451204D01*
X145650000Y-103450000D01*
X146650000Y-103450000D01*
X146674504Y-103451204D01*
X146674504Y-103451204D01*
G37*
D31*
X146150000Y-105150000D03*
D10*
G36*
X153374504Y-103451204D02*
G01*
X153398773Y-103454804D01*
X153422571Y-103460765D01*
X153445671Y-103469030D01*
X153467849Y-103479520D01*
X153488893Y-103492133D01*
X153508598Y-103506747D01*
X153526777Y-103523223D01*
X153543253Y-103541402D01*
X153557867Y-103561107D01*
X153570480Y-103582151D01*
X153580970Y-103604329D01*
X153589235Y-103627429D01*
X153595196Y-103651227D01*
X153598796Y-103675496D01*
X153600000Y-103700000D01*
X153600000Y-106600000D01*
X153598796Y-106624504D01*
X153595196Y-106648773D01*
X153589235Y-106672571D01*
X153580970Y-106695671D01*
X153570480Y-106717849D01*
X153557867Y-106738893D01*
X153543253Y-106758598D01*
X153526777Y-106776777D01*
X153508598Y-106793253D01*
X153488893Y-106807867D01*
X153467849Y-106820480D01*
X153445671Y-106830970D01*
X153422571Y-106839235D01*
X153398773Y-106845196D01*
X153374504Y-106848796D01*
X153350000Y-106850000D01*
X152350000Y-106850000D01*
X152325496Y-106848796D01*
X152301227Y-106845196D01*
X152277429Y-106839235D01*
X152254329Y-106830970D01*
X152232151Y-106820480D01*
X152211107Y-106807867D01*
X152191402Y-106793253D01*
X152173223Y-106776777D01*
X152156747Y-106758598D01*
X152142133Y-106738893D01*
X152129520Y-106717849D01*
X152119030Y-106695671D01*
X152110765Y-106672571D01*
X152104804Y-106648773D01*
X152101204Y-106624504D01*
X152100000Y-106600000D01*
X152100000Y-103700000D01*
X152101204Y-103675496D01*
X152104804Y-103651227D01*
X152110765Y-103627429D01*
X152119030Y-103604329D01*
X152129520Y-103582151D01*
X152142133Y-103561107D01*
X152156747Y-103541402D01*
X152173223Y-103523223D01*
X152191402Y-103506747D01*
X152211107Y-103492133D01*
X152232151Y-103479520D01*
X152254329Y-103469030D01*
X152277429Y-103460765D01*
X152301227Y-103454804D01*
X152325496Y-103451204D01*
X152350000Y-103450000D01*
X153350000Y-103450000D01*
X153374504Y-103451204D01*
X153374504Y-103451204D01*
G37*
D31*
X152850000Y-105150000D03*
M02*
