G04 #@! TF.GenerationSoftware,KiCad,Pcbnew,(5.1.0)-1*
G04 #@! TF.CreationDate,2019-04-15T21:45:38-04:00*
G04 #@! TF.ProjectId,eWeatherStation,65576561-7468-4657-9253-746174696f6e,rev?*
G04 #@! TF.SameCoordinates,Original*
G04 #@! TF.FileFunction,Profile,NP*
%FSLAX46Y46*%
G04 Gerber Fmt 4.6, Leading zero omitted, Abs format (unit mm)*
G04 Created by KiCad (PCBNEW (5.1.0)-1) date 2019-04-15 21:45:38*
%MOMM*%
%LPD*%
G04 APERTURE LIST*
%ADD10C,0.100000*%
G04 APERTURE END LIST*
D10*
X126500000Y-84500000D02*
G75*
G02X126250000Y-84750000I-250000J0D01*
G01*
X123250000Y-84750000D02*
G75*
G02X123000000Y-84500000I0J250000D01*
G01*
X123250000Y-84750000D02*
X126250000Y-84750000D01*
X123000000Y-75250000D02*
G75*
G02X123250000Y-75000000I250000J0D01*
G01*
X126500000Y-84500000D02*
X126500000Y-75250000D01*
X123000000Y-75250000D02*
X123000000Y-84500000D01*
X126250000Y-75000000D02*
G75*
G02X126500000Y-75250000I0J-250000D01*
G01*
X126250000Y-75000000D02*
X123250000Y-75000000D01*
X123500000Y-69750000D02*
G75*
G02X123250000Y-70000000I-250000J0D01*
G01*
X123500000Y-72750000D02*
G75*
G02X123250000Y-73000000I-250000J0D01*
G01*
X112550000Y-73000000D02*
G75*
G02X112300000Y-72750000I0J250000D01*
G01*
X112550000Y-70000000D02*
G75*
G02X112300000Y-69750000I0J250000D01*
G01*
X112300000Y-68750000D02*
G75*
G02X112550000Y-68500000I250000J0D01*
G01*
X112300000Y-71750000D02*
G75*
G02X112550000Y-71500000I250000J0D01*
G01*
X123250000Y-71500000D02*
G75*
G02X123500000Y-71750000I0J-250000D01*
G01*
X123250000Y-68500000D02*
G75*
G02X123500000Y-68750000I0J-250000D01*
G01*
X126500000Y-60750000D02*
G75*
G02X126750000Y-60500000I250000J0D01*
G01*
X126750000Y-67000000D02*
G75*
G02X126500000Y-66750000I0J250000D01*
G01*
X128000000Y-66750000D02*
G75*
G02X127750000Y-67000000I-250000J0D01*
G01*
X124000000Y-66750000D02*
G75*
G02X123750000Y-67000000I-250000J0D01*
G01*
X122750000Y-67000000D02*
G75*
G02X122500000Y-66750000I0J250000D01*
G01*
X122500000Y-61250000D02*
G75*
G02X122750000Y-61000000I250000J0D01*
G01*
X123750000Y-61000000D02*
G75*
G02X124000000Y-61250000I0J-250000D01*
G01*
X127750000Y-60500000D02*
G75*
G02X128000000Y-60750000I0J-250000D01*
G01*
X173000000Y-59500000D02*
G75*
G02X173500000Y-60000000I0J-500000D01*
G01*
X187500000Y-72000000D02*
G75*
G02X188000000Y-72500000I0J-500000D01*
G01*
X188000000Y-107000000D02*
G75*
G02X187500000Y-107500000I-500000J0D01*
G01*
X127500000Y-107500000D02*
G75*
G02X127000000Y-107000000I0J500000D01*
G01*
X109700000Y-60000000D02*
G75*
G02X110200000Y-59500000I500000J0D01*
G01*
X110200000Y-88500000D02*
G75*
G02X109700000Y-88000000I0J500000D01*
G01*
X112300000Y-71750000D02*
X112300000Y-72750000D01*
X112550000Y-73000000D02*
X123250000Y-73000000D01*
X123250000Y-71500000D02*
X112550000Y-71500000D01*
X123500000Y-72750000D02*
X123500000Y-71750000D01*
X126750000Y-67000000D02*
X127750000Y-67000000D01*
X126500000Y-60750000D02*
X126500000Y-66750000D01*
X127750000Y-60500000D02*
X126750000Y-60500000D01*
X128000000Y-66750000D02*
X128000000Y-60750000D01*
X123750000Y-61000000D02*
X122750000Y-61000000D01*
X124000000Y-66750000D02*
X124000000Y-61250000D01*
X122750000Y-67000000D02*
X123750000Y-67000000D01*
X122500000Y-61250000D02*
X122500000Y-66750000D01*
X123250000Y-68500000D02*
X112550000Y-68500000D01*
X123500000Y-69750000D02*
X123500000Y-68750000D01*
X112550000Y-70000000D02*
X123250000Y-70000000D01*
X112300000Y-68750000D02*
X112300000Y-69750000D01*
X186306359Y-71989913D02*
X187500000Y-72000000D01*
X127000000Y-107000000D02*
X127000000Y-88500000D01*
X187500000Y-107500000D02*
X127500000Y-107500000D01*
X110200000Y-88500000D02*
X127000000Y-88500000D01*
X109700000Y-60000000D02*
X109700000Y-88000000D01*
X173000000Y-59500000D02*
X110200000Y-59500000D01*
X186306359Y-71989913D02*
G75*
G02X173500000Y-60000000I-556359J12239913D01*
G01*
X188000000Y-107000000D02*
X188000000Y-72500000D01*
M02*
