G04 #@! TF.GenerationSoftware,KiCad,Pcbnew,(5.1.0)-1*
G04 #@! TF.CreationDate,2019-04-15T21:45:38-04:00*
G04 #@! TF.ProjectId,eWeatherStation,65576561-7468-4657-9253-746174696f6e,rev?*
G04 #@! TF.SameCoordinates,Original*
G04 #@! TF.FileFunction,Soldermask,Bot*
G04 #@! TF.FilePolarity,Negative*
%FSLAX46Y46*%
G04 Gerber Fmt 4.6, Leading zero omitted, Abs format (unit mm)*
G04 Created by KiCad (PCBNEW (5.1.0)-1) date 2019-04-15 21:45:38*
%MOMM*%
%LPD*%
G04 APERTURE LIST*
%ADD10C,0.100000*%
G04 APERTURE END LIST*
D10*
G36*
X186088362Y-103883545D02*
G01*
X186176588Y-103892234D01*
X186346389Y-103943743D01*
X186346392Y-103943744D01*
X186502878Y-104027388D01*
X186640044Y-104139956D01*
X186752612Y-104277122D01*
X186836256Y-104433608D01*
X186836257Y-104433611D01*
X186887766Y-104603412D01*
X186905158Y-104780000D01*
X186887766Y-104956588D01*
X186836257Y-105126389D01*
X186836256Y-105126392D01*
X186752612Y-105282878D01*
X186640044Y-105420044D01*
X186502878Y-105532612D01*
X186346392Y-105616256D01*
X186346389Y-105616257D01*
X186176588Y-105667766D01*
X186088362Y-105676455D01*
X186044250Y-105680800D01*
X185955750Y-105680800D01*
X185911638Y-105676455D01*
X185823412Y-105667766D01*
X185653611Y-105616257D01*
X185653608Y-105616256D01*
X185497122Y-105532612D01*
X185359956Y-105420044D01*
X185247388Y-105282878D01*
X185163744Y-105126392D01*
X185163743Y-105126389D01*
X185112234Y-104956588D01*
X185094842Y-104780000D01*
X185112234Y-104603412D01*
X185163743Y-104433611D01*
X185163744Y-104433608D01*
X185247388Y-104277122D01*
X185359956Y-104139956D01*
X185497122Y-104027388D01*
X185653608Y-103943744D01*
X185653611Y-103943743D01*
X185823412Y-103892234D01*
X185911638Y-103883545D01*
X185955750Y-103879200D01*
X186044250Y-103879200D01*
X186088362Y-103883545D01*
X186088362Y-103883545D01*
G37*
G36*
X186088362Y-101343545D02*
G01*
X186176588Y-101352234D01*
X186346389Y-101403743D01*
X186346392Y-101403744D01*
X186502878Y-101487388D01*
X186640044Y-101599956D01*
X186752612Y-101737122D01*
X186836256Y-101893608D01*
X186836257Y-101893611D01*
X186887766Y-102063412D01*
X186905158Y-102240000D01*
X186887766Y-102416588D01*
X186836257Y-102586389D01*
X186836256Y-102586392D01*
X186752612Y-102742878D01*
X186640044Y-102880044D01*
X186502878Y-102992612D01*
X186346392Y-103076256D01*
X186346389Y-103076257D01*
X186176588Y-103127766D01*
X186088362Y-103136455D01*
X186044250Y-103140800D01*
X185955750Y-103140800D01*
X185911638Y-103136455D01*
X185823412Y-103127766D01*
X185653611Y-103076257D01*
X185653608Y-103076256D01*
X185497122Y-102992612D01*
X185359956Y-102880044D01*
X185247388Y-102742878D01*
X185163744Y-102586392D01*
X185163743Y-102586389D01*
X185112234Y-102416588D01*
X185094842Y-102240000D01*
X185112234Y-102063412D01*
X185163743Y-101893611D01*
X185163744Y-101893608D01*
X185247388Y-101737122D01*
X185359956Y-101599956D01*
X185497122Y-101487388D01*
X185653608Y-101403744D01*
X185653611Y-101403743D01*
X185823412Y-101352234D01*
X185911638Y-101343545D01*
X185955750Y-101339200D01*
X186044250Y-101339200D01*
X186088362Y-101343545D01*
X186088362Y-101343545D01*
G37*
G36*
X186088362Y-98803545D02*
G01*
X186176588Y-98812234D01*
X186346389Y-98863743D01*
X186346392Y-98863744D01*
X186502878Y-98947388D01*
X186640044Y-99059956D01*
X186752612Y-99197122D01*
X186836256Y-99353608D01*
X186836257Y-99353611D01*
X186887766Y-99523412D01*
X186905158Y-99700000D01*
X186887766Y-99876588D01*
X186836257Y-100046389D01*
X186836256Y-100046392D01*
X186752612Y-100202878D01*
X186640044Y-100340044D01*
X186502878Y-100452612D01*
X186346392Y-100536256D01*
X186346389Y-100536257D01*
X186176588Y-100587766D01*
X186088362Y-100596455D01*
X186044250Y-100600800D01*
X185955750Y-100600800D01*
X185911638Y-100596455D01*
X185823412Y-100587766D01*
X185653611Y-100536257D01*
X185653608Y-100536256D01*
X185497122Y-100452612D01*
X185359956Y-100340044D01*
X185247388Y-100202878D01*
X185163744Y-100046392D01*
X185163743Y-100046389D01*
X185112234Y-99876588D01*
X185094842Y-99700000D01*
X185112234Y-99523412D01*
X185163743Y-99353611D01*
X185163744Y-99353608D01*
X185247388Y-99197122D01*
X185359956Y-99059956D01*
X185497122Y-98947388D01*
X185653608Y-98863744D01*
X185653611Y-98863743D01*
X185823412Y-98812234D01*
X185911638Y-98803545D01*
X185955750Y-98799200D01*
X186044250Y-98799200D01*
X186088362Y-98803545D01*
X186088362Y-98803545D01*
G37*
G36*
X186088362Y-96263545D02*
G01*
X186176588Y-96272234D01*
X186346389Y-96323743D01*
X186346392Y-96323744D01*
X186502878Y-96407388D01*
X186640044Y-96519956D01*
X186752612Y-96657122D01*
X186836256Y-96813608D01*
X186836257Y-96813611D01*
X186887766Y-96983412D01*
X186905158Y-97160000D01*
X186887766Y-97336588D01*
X186836257Y-97506389D01*
X186836256Y-97506392D01*
X186752612Y-97662878D01*
X186640044Y-97800044D01*
X186502878Y-97912612D01*
X186346392Y-97996256D01*
X186346389Y-97996257D01*
X186176588Y-98047766D01*
X186088362Y-98056455D01*
X186044250Y-98060800D01*
X185955750Y-98060800D01*
X185911638Y-98056455D01*
X185823412Y-98047766D01*
X185653611Y-97996257D01*
X185653608Y-97996256D01*
X185497122Y-97912612D01*
X185359956Y-97800044D01*
X185247388Y-97662878D01*
X185163744Y-97506392D01*
X185163743Y-97506389D01*
X185112234Y-97336588D01*
X185094842Y-97160000D01*
X185112234Y-96983412D01*
X185163743Y-96813611D01*
X185163744Y-96813608D01*
X185247388Y-96657122D01*
X185359956Y-96519956D01*
X185497122Y-96407388D01*
X185653608Y-96323744D01*
X185653611Y-96323743D01*
X185823412Y-96272234D01*
X185911638Y-96263545D01*
X185955750Y-96259200D01*
X186044250Y-96259200D01*
X186088362Y-96263545D01*
X186088362Y-96263545D01*
G37*
G36*
X186088362Y-93723545D02*
G01*
X186176588Y-93732234D01*
X186346389Y-93783743D01*
X186346392Y-93783744D01*
X186502878Y-93867388D01*
X186640044Y-93979956D01*
X186752612Y-94117122D01*
X186836256Y-94273608D01*
X186836257Y-94273611D01*
X186887766Y-94443412D01*
X186905158Y-94620000D01*
X186887766Y-94796588D01*
X186836257Y-94966389D01*
X186836256Y-94966392D01*
X186752612Y-95122878D01*
X186640044Y-95260044D01*
X186502878Y-95372612D01*
X186346392Y-95456256D01*
X186346389Y-95456257D01*
X186176588Y-95507766D01*
X186088362Y-95516455D01*
X186044250Y-95520800D01*
X185955750Y-95520800D01*
X185911638Y-95516455D01*
X185823412Y-95507766D01*
X185653611Y-95456257D01*
X185653608Y-95456256D01*
X185497122Y-95372612D01*
X185359956Y-95260044D01*
X185247388Y-95122878D01*
X185163744Y-94966392D01*
X185163743Y-94966389D01*
X185112234Y-94796588D01*
X185094842Y-94620000D01*
X185112234Y-94443412D01*
X185163743Y-94273611D01*
X185163744Y-94273608D01*
X185247388Y-94117122D01*
X185359956Y-93979956D01*
X185497122Y-93867388D01*
X185653608Y-93783744D01*
X185653611Y-93783743D01*
X185823412Y-93732234D01*
X185911638Y-93723545D01*
X185955750Y-93719200D01*
X186044250Y-93719200D01*
X186088362Y-93723545D01*
X186088362Y-93723545D01*
G37*
G36*
X186088362Y-91183545D02*
G01*
X186176588Y-91192234D01*
X186346389Y-91243743D01*
X186346392Y-91243744D01*
X186502878Y-91327388D01*
X186640044Y-91439956D01*
X186752612Y-91577122D01*
X186836256Y-91733608D01*
X186836257Y-91733611D01*
X186887766Y-91903412D01*
X186905158Y-92080000D01*
X186887766Y-92256588D01*
X186836257Y-92426389D01*
X186836256Y-92426392D01*
X186752612Y-92582878D01*
X186640044Y-92720044D01*
X186502878Y-92832612D01*
X186346392Y-92916256D01*
X186346389Y-92916257D01*
X186176588Y-92967766D01*
X186088362Y-92976455D01*
X186044250Y-92980800D01*
X185955750Y-92980800D01*
X185911638Y-92976455D01*
X185823412Y-92967766D01*
X185653611Y-92916257D01*
X185653608Y-92916256D01*
X185497122Y-92832612D01*
X185359956Y-92720044D01*
X185247388Y-92582878D01*
X185163744Y-92426392D01*
X185163743Y-92426389D01*
X185112234Y-92256588D01*
X185094842Y-92080000D01*
X185112234Y-91903412D01*
X185163743Y-91733611D01*
X185163744Y-91733608D01*
X185247388Y-91577122D01*
X185359956Y-91439956D01*
X185497122Y-91327388D01*
X185653608Y-91243744D01*
X185653611Y-91243743D01*
X185823412Y-91192234D01*
X185911638Y-91183545D01*
X185955750Y-91179200D01*
X186044250Y-91179200D01*
X186088362Y-91183545D01*
X186088362Y-91183545D01*
G37*
G36*
X186088362Y-88643545D02*
G01*
X186176588Y-88652234D01*
X186346389Y-88703743D01*
X186346392Y-88703744D01*
X186502878Y-88787388D01*
X186640044Y-88899956D01*
X186752612Y-89037122D01*
X186836256Y-89193608D01*
X186836257Y-89193611D01*
X186887766Y-89363412D01*
X186905158Y-89540000D01*
X186887766Y-89716588D01*
X186836257Y-89886389D01*
X186836256Y-89886392D01*
X186752612Y-90042878D01*
X186640044Y-90180044D01*
X186502878Y-90292612D01*
X186346392Y-90376256D01*
X186346389Y-90376257D01*
X186176588Y-90427766D01*
X186088362Y-90436455D01*
X186044250Y-90440800D01*
X185955750Y-90440800D01*
X185911638Y-90436455D01*
X185823412Y-90427766D01*
X185653611Y-90376257D01*
X185653608Y-90376256D01*
X185497122Y-90292612D01*
X185359956Y-90180044D01*
X185247388Y-90042878D01*
X185163744Y-89886392D01*
X185163743Y-89886389D01*
X185112234Y-89716588D01*
X185094842Y-89540000D01*
X185112234Y-89363412D01*
X185163743Y-89193611D01*
X185163744Y-89193608D01*
X185247388Y-89037122D01*
X185359956Y-88899956D01*
X185497122Y-88787388D01*
X185653608Y-88703744D01*
X185653611Y-88703743D01*
X185823412Y-88652234D01*
X185911638Y-88643545D01*
X185955750Y-88639200D01*
X186044250Y-88639200D01*
X186088362Y-88643545D01*
X186088362Y-88643545D01*
G37*
G36*
X186900800Y-87900800D02*
G01*
X185099200Y-87900800D01*
X185099200Y-86099200D01*
X186900800Y-86099200D01*
X186900800Y-87900800D01*
X186900800Y-87900800D01*
G37*
G36*
X119838362Y-82973545D02*
G01*
X119926588Y-82982234D01*
X120096389Y-83033743D01*
X120096392Y-83033744D01*
X120252878Y-83117388D01*
X120390044Y-83229956D01*
X120502612Y-83367122D01*
X120586256Y-83523608D01*
X120586257Y-83523611D01*
X120637766Y-83693412D01*
X120655158Y-83870000D01*
X120637766Y-84046588D01*
X120586257Y-84216389D01*
X120586256Y-84216392D01*
X120502612Y-84372878D01*
X120390044Y-84510044D01*
X120252878Y-84622612D01*
X120096392Y-84706256D01*
X120096389Y-84706257D01*
X119926588Y-84757766D01*
X119838362Y-84766455D01*
X119794250Y-84770800D01*
X119705750Y-84770800D01*
X119661638Y-84766455D01*
X119573412Y-84757766D01*
X119403611Y-84706257D01*
X119403608Y-84706256D01*
X119247122Y-84622612D01*
X119109956Y-84510044D01*
X118997388Y-84372878D01*
X118913744Y-84216392D01*
X118913743Y-84216389D01*
X118862234Y-84046588D01*
X118844842Y-83870000D01*
X118862234Y-83693412D01*
X118913743Y-83523611D01*
X118913744Y-83523608D01*
X118997388Y-83367122D01*
X119109956Y-83229956D01*
X119247122Y-83117388D01*
X119403608Y-83033744D01*
X119403611Y-83033743D01*
X119573412Y-82982234D01*
X119661638Y-82973545D01*
X119705750Y-82969200D01*
X119794250Y-82969200D01*
X119838362Y-82973545D01*
X119838362Y-82973545D01*
G37*
G36*
X119838362Y-80433545D02*
G01*
X119926588Y-80442234D01*
X120096389Y-80493743D01*
X120096392Y-80493744D01*
X120252878Y-80577388D01*
X120390044Y-80689956D01*
X120502612Y-80827122D01*
X120586256Y-80983608D01*
X120586257Y-80983611D01*
X120637766Y-81153412D01*
X120655158Y-81330000D01*
X120637766Y-81506588D01*
X120586257Y-81676389D01*
X120586256Y-81676392D01*
X120502612Y-81832878D01*
X120390044Y-81970044D01*
X120252878Y-82082612D01*
X120096392Y-82166256D01*
X120096389Y-82166257D01*
X119926588Y-82217766D01*
X119838362Y-82226455D01*
X119794250Y-82230800D01*
X119705750Y-82230800D01*
X119661638Y-82226455D01*
X119573412Y-82217766D01*
X119403611Y-82166257D01*
X119403608Y-82166256D01*
X119247122Y-82082612D01*
X119109956Y-81970044D01*
X118997388Y-81832878D01*
X118913744Y-81676392D01*
X118913743Y-81676389D01*
X118862234Y-81506588D01*
X118844842Y-81330000D01*
X118862234Y-81153412D01*
X118913743Y-80983611D01*
X118913744Y-80983608D01*
X118997388Y-80827122D01*
X119109956Y-80689956D01*
X119247122Y-80577388D01*
X119403608Y-80493744D01*
X119403611Y-80493743D01*
X119573412Y-80442234D01*
X119661638Y-80433545D01*
X119705750Y-80429200D01*
X119794250Y-80429200D01*
X119838362Y-80433545D01*
X119838362Y-80433545D01*
G37*
G36*
X186047283Y-80474702D02*
G01*
X186184095Y-80516204D01*
X186310183Y-80583599D01*
X186420701Y-80674299D01*
X186511401Y-80784817D01*
X186578796Y-80910905D01*
X186620298Y-81047717D01*
X186634311Y-81190000D01*
X186620298Y-81332283D01*
X186578796Y-81469095D01*
X186511401Y-81595183D01*
X186420701Y-81705701D01*
X186310183Y-81796401D01*
X186184095Y-81863796D01*
X186047283Y-81905298D01*
X185940650Y-81915800D01*
X185519350Y-81915800D01*
X185412717Y-81905298D01*
X185275905Y-81863796D01*
X185149817Y-81796401D01*
X185039299Y-81705701D01*
X184948599Y-81595183D01*
X184881204Y-81469095D01*
X184839702Y-81332283D01*
X184825689Y-81190000D01*
X184839702Y-81047717D01*
X184881204Y-80910905D01*
X184948599Y-80784817D01*
X185039299Y-80674299D01*
X185149817Y-80583599D01*
X185275905Y-80516204D01*
X185412717Y-80474702D01*
X185519350Y-80464200D01*
X185940650Y-80464200D01*
X186047283Y-80474702D01*
X186047283Y-80474702D01*
G37*
G36*
X183047777Y-80287893D02*
G01*
X183161029Y-80322247D01*
X183265402Y-80378036D01*
X183356885Y-80453115D01*
X183431964Y-80544598D01*
X183487753Y-80648971D01*
X183522107Y-80762223D01*
X183533707Y-80880000D01*
X183522107Y-80997777D01*
X183487753Y-81111029D01*
X183431964Y-81215402D01*
X183356885Y-81306885D01*
X183265402Y-81381964D01*
X183161029Y-81437753D01*
X183047777Y-81472107D01*
X182959515Y-81480800D01*
X182500485Y-81480800D01*
X182412223Y-81472107D01*
X182298971Y-81437753D01*
X182194598Y-81381964D01*
X182103115Y-81306885D01*
X182028036Y-81215402D01*
X181972247Y-81111029D01*
X181937893Y-80997777D01*
X181926293Y-80880000D01*
X181937893Y-80762223D01*
X181972247Y-80648971D01*
X182028036Y-80544598D01*
X182103115Y-80453115D01*
X182194598Y-80378036D01*
X182298971Y-80322247D01*
X182412223Y-80287893D01*
X182500485Y-80279200D01*
X182959515Y-80279200D01*
X183047777Y-80287893D01*
X183047777Y-80287893D01*
G37*
G36*
X119838362Y-77893545D02*
G01*
X119926588Y-77902234D01*
X120096389Y-77953743D01*
X120096392Y-77953744D01*
X120252878Y-78037388D01*
X120390044Y-78149956D01*
X120502612Y-78287122D01*
X120586256Y-78443608D01*
X120586257Y-78443611D01*
X120637766Y-78613412D01*
X120655158Y-78790000D01*
X120637766Y-78966588D01*
X120586257Y-79136389D01*
X120586256Y-79136392D01*
X120502612Y-79292878D01*
X120390044Y-79430044D01*
X120252878Y-79542612D01*
X120096392Y-79626256D01*
X120096389Y-79626257D01*
X119926588Y-79677766D01*
X119838362Y-79686455D01*
X119794250Y-79690800D01*
X119705750Y-79690800D01*
X119661638Y-79686455D01*
X119573412Y-79677766D01*
X119403611Y-79626257D01*
X119403608Y-79626256D01*
X119247122Y-79542612D01*
X119109956Y-79430044D01*
X118997388Y-79292878D01*
X118913744Y-79136392D01*
X118913743Y-79136389D01*
X118862234Y-78966588D01*
X118844842Y-78790000D01*
X118862234Y-78613412D01*
X118913743Y-78443611D01*
X118913744Y-78443608D01*
X118997388Y-78287122D01*
X119109956Y-78149956D01*
X119247122Y-78037388D01*
X119403608Y-77953744D01*
X119403611Y-77953743D01*
X119573412Y-77902234D01*
X119661638Y-77893545D01*
X119705750Y-77889200D01*
X119794250Y-77889200D01*
X119838362Y-77893545D01*
X119838362Y-77893545D01*
G37*
G36*
X120650800Y-77150800D02*
G01*
X118849200Y-77150800D01*
X118849200Y-75349200D01*
X120650800Y-75349200D01*
X120650800Y-77150800D01*
X120650800Y-77150800D01*
G37*
G36*
X183047777Y-75447893D02*
G01*
X183161029Y-75482247D01*
X183265402Y-75538036D01*
X183356885Y-75613115D01*
X183431964Y-75704598D01*
X183487753Y-75808971D01*
X183522107Y-75922223D01*
X183533707Y-76040000D01*
X183522107Y-76157777D01*
X183487753Y-76271029D01*
X183431964Y-76375402D01*
X183356885Y-76466885D01*
X183265402Y-76541964D01*
X183161029Y-76597753D01*
X183047777Y-76632107D01*
X182959515Y-76640800D01*
X182500485Y-76640800D01*
X182412223Y-76632107D01*
X182298971Y-76597753D01*
X182194598Y-76541964D01*
X182103115Y-76466885D01*
X182028036Y-76375402D01*
X181972247Y-76271029D01*
X181937893Y-76157777D01*
X181926293Y-76040000D01*
X181937893Y-75922223D01*
X181972247Y-75808971D01*
X182028036Y-75704598D01*
X182103115Y-75613115D01*
X182194598Y-75538036D01*
X182298971Y-75482247D01*
X182412223Y-75447893D01*
X182500485Y-75439200D01*
X182959515Y-75439200D01*
X183047777Y-75447893D01*
X183047777Y-75447893D01*
G37*
G36*
X186047283Y-75014702D02*
G01*
X186184095Y-75056204D01*
X186310183Y-75123599D01*
X186420701Y-75214299D01*
X186511401Y-75324817D01*
X186578796Y-75450905D01*
X186620298Y-75587717D01*
X186634311Y-75730000D01*
X186620298Y-75872283D01*
X186578796Y-76009095D01*
X186511401Y-76135183D01*
X186420701Y-76245701D01*
X186310183Y-76336401D01*
X186184095Y-76403796D01*
X186047283Y-76445298D01*
X185940650Y-76455800D01*
X185519350Y-76455800D01*
X185412717Y-76445298D01*
X185275905Y-76403796D01*
X185149817Y-76336401D01*
X185039299Y-76245701D01*
X184948599Y-76135183D01*
X184881204Y-76009095D01*
X184839702Y-75872283D01*
X184825689Y-75730000D01*
X184839702Y-75587717D01*
X184881204Y-75450905D01*
X184948599Y-75324817D01*
X185039299Y-75214299D01*
X185149817Y-75123599D01*
X185275905Y-75056204D01*
X185412717Y-75014702D01*
X185519350Y-75004200D01*
X185940650Y-75004200D01*
X186047283Y-75014702D01*
X186047283Y-75014702D01*
G37*
M02*
